<svg width="21" height="21" viewBox="0 0 21 21" fill="none" xmlns="http://www.w3.org/2000/svg">
<path d="M19.9453 12.3788C20.3735 11.9507 20.614 11.37 20.614 10.7645C20.614 10.159 20.3735 9.57834 19.9453 9.1502C19.5172 8.72205 18.9365 8.48152 18.331 8.48152H13.004V3.15454C13.004 2.54906 12.7635 1.96837 12.3354 1.54022C11.9072 1.11208 11.3265 0.871552 10.7211 0.871552C10.1156 0.871552 9.53488 1.11208 9.10674 1.54022C8.6786 1.96837 8.43807 2.54906 8.43807 3.15454V8.48152H3.11109C2.5056 8.48152 1.92491 8.72205 1.49677 9.1502C1.06862 9.57834 0.828094 10.159 0.828094 10.7645C0.828094 11.37 1.06862 11.9507 1.49677 12.3788C1.92491 12.807 2.5056 13.0475 3.11109 13.0475H8.43807V18.3745C8.43807 18.98 8.6786 19.5607 9.10674 19.9888C9.53488 20.4169 10.1156 20.6575 10.7211 20.6575C11.3265 20.6575 11.9072 20.4169 12.3354 19.9888C12.7635 19.5607 13.004 18.98 13.004 18.3745V13.0475H18.331C18.9365 13.0475 19.5172 12.807 19.9453 12.3788Z" fill="#334155"/>
</svg>
