<svg width="574" height="222" viewBox="0 0 574 222" fill="none" xmlns="http://www.w3.org/2000/svg">
<g opacity="0.55">
<path d="M562.614 0H11.0576C4.98249 0 0.0576172 4.92488 0.0576172 11V211C0.0576172 217.075 4.98247 222 11.0576 222H562.614C568.689 222 573.614 217.075 573.614 211V11C573.614 4.92487 568.689 0 562.614 0Z" fill="#E6F6FF"/>
<mask id="mask0_1961_1658" style="mask-type:luminance" maskUnits="userSpaceOnUse" x="0" y="0" width="574" height="222">
<path d="M562.612 0H11.0562C4.98102 0 0.0561523 4.92488 0.0561523 11V211C0.0561523 217.075 4.981 222 11.0561 222H562.612C568.687 222 573.612 217.075 573.612 211V11C573.612 4.92487 568.687 0 562.612 0Z" fill="white"/>
</mask>
<g mask="url(#mask0_1961_1658)">
<path d="M562.612 0H11.0562C4.98102 0 0.0561523 4.92488 0.0561523 11V211C0.0561523 217.075 4.981 222 11.0561 222H562.612C568.687 222 573.612 217.075 573.612 211V11C573.612 4.92487 568.687 0 562.612 0Z" fill="#009FCF"/>
</g>
</g>
<path d="M573.999 167.127C573.998 167.127 573.998 167.127 573.998 167.126V163.864C573.998 161.839 572.177 160.303 570.175 160.606C544.224 164.532 511.373 164.134 521.822 160.68C535.196 156.259 546.143 161.454 565.289 154.664C584.435 147.874 520.448 146.913 511.211 156.995C507.528 161.015 497.311 163.012 486.776 163.863L459.945 163.791C457.789 163.514 457.006 163.183 458.257 162.89C464.884 161.343 462.011 160.017 456.733 159.179C452.434 158.497 445.951 161.096 439.459 163.218C438.395 163.566 437.282 163.731 436.162 163.728L429.145 163.709C425.632 163.7 424.614 162.034 428.057 161.339C429.798 160.987 432.095 160.65 435.055 160.348C456.719 158.138 456.549 151.949 445.768 153.095C434.987 154.242 428.141 160.238 391.051 162.338C353.962 164.438 295.384 159.243 309.742 159.179C324.099 159.115 388.805 159.465 388.007 158.138C387.764 157.734 382.809 157.669 374.982 157.676C374.457 157.677 374.362 156.353 374.362 155.828C374.362 154.389 368.595 153.223 361.483 153.223C354.369 153.223 348.605 154.389 348.605 155.828C348.605 156.352 348.51 157.681 347.985 157.677C332.191 157.567 314.134 157.14 298.549 155.707C261.285 152.281 262.668 131.063 242.931 134.343C223.196 137.624 247.312 148.553 257.641 150.76C267.969 152.966 278.447 157.033 257.641 154.664C236.834 152.295 240.547 145.285 237.232 148.94C233.915 152.596 253.318 154.27 245.768 155.817C238.217 157.364 226.549 153.607 226.003 149.19C225.457 144.773 203.058 131.835 199.233 139.673C198.849 140.462 198.948 141.282 199.476 142.127C203.824 149.078 204.237 161.228 196.037 161.21C156.009 161.119 99.3062 150.618 74.623 158.432C73.0057 158.944 71.2692 159.464 69.4677 159.99C68.1665 160.369 66.8053 160.498 65.4552 160.378L11.9736 155.626C5.53953 155.054 0 160.123 0 166.583V167.127V211C0 217.075 4.92487 222 11 222H563C569.075 222 574 217.075 574 211V167.129C574 167.128 574 167.127 573.999 167.127Z" fill="#35AED3"/>
<path d="M96.2223 192.645L96.2222 192.646C95.8662 192.921 95.7154 193.226 95.684 193.532C95.6523 193.842 95.7414 194.174 95.9033 194.506L95.6644 194.566L95.9032 194.506C96.5464 195.824 97.8278 196.976 99.5404 197.828L96.2223 192.645ZM96.2223 192.645C96.9265 192.1 98.1043 191.876 99.1728 192.038C100.308 192.209 101.339 192.71 102.194 193.332C102.85 193.808 103.483 194.314 104.064 194.855L104.238 194.708L104.064 194.855C104.127 194.914 104.189 194.973 104.248 195.034L104.249 195.035M96.2223 192.645L104.249 195.035M104.249 195.035C104.709 195.497 105.161 196.076 105.353 196.647C105.538 197.201 105.485 197.753 104.921 198.215L104.249 195.035ZM102.288 198.695C103.305 198.839 104.272 198.746 104.921 198.215L102.288 198.695ZM102.288 198.695C101.272 198.552 100.247 198.179 99.5405 197.828L102.288 198.695Z" fill="#000D4C" stroke="white" stroke-width="0.5"/>
<path d="M69.8001 195.797L69.8002 195.797C70.3441 196.579 71.3249 197.36 72.4252 197.856L69.8001 195.797ZM69.8001 195.797C69.5224 195.398 69.498 194.983 69.7177 194.629M69.8001 195.797L69.7177 194.629M75.9132 198.232L75.9133 198.232C77.014 197.966 77.5039 197.254 77.3219 196.627L75.9132 198.232ZM75.9132 198.232C74.747 198.514 73.425 198.306 72.4253 197.856L75.9132 198.232ZM69.7177 194.629C69.9409 194.27 70.4273 193.961 71.1971 193.835L69.7177 194.629ZM71.1971 193.835C72.7991 193.572 74.7238 194.111 75.9184 194.96C76.5512 195.41 77.1047 195.971 77.3063 196.577C77.3118 196.594 77.317 196.611 77.3219 196.627L71.1971 193.835Z" fill="#000D4C" stroke="white" stroke-width="0.5"/>
<path d="M86.058 196.708C85.5579 196.787 85.2434 197.161 85.3797 197.485M86.058 196.708L86.147 196.941C85.9487 196.972 85.7912 197.062 85.6992 197.168C85.6042 197.278 85.5992 197.378 85.6246 197.438L85.6248 197.439C85.6667 197.539 85.7308 197.627 85.8195 197.692C85.8467 197.712 85.873 197.73 85.9051 197.752C85.9182 197.761 85.9322 197.77 85.9477 197.781C85.9932 197.812 86.0474 197.851 86.1006 197.896C86.1308 197.918 86.1655 197.94 86.2046 197.963C86.4815 198.118 86.8575 198.224 87.2367 198.197C87.3411 198.189 87.4542 198.165 87.5505 198.126C87.6498 198.085 87.7114 198.038 87.7383 197.998C87.7521 197.978 87.7742 197.946 87.8063 197.916C87.9292 197.784 87.9301 197.655 87.882 197.541C87.8282 197.413 87.6989 197.275 87.5141 197.167C87.1492 196.956 86.6667 196.859 86.1471 196.941L85.3797 197.485M86.058 196.708C86.632 196.618 87.189 196.722 87.6281 196.976M86.058 196.708L87.6281 196.976M85.3797 197.485C85.437 197.622 85.531 197.757 85.6742 197.863C85.7074 197.887 85.7418 197.911 85.7762 197.934C85.8347 197.974 85.8932 198.014 85.9459 198.059C85.9915 198.093 86.0412 198.125 86.0925 198.155C86.423 198.341 86.8622 198.463 87.3032 198.432C87.564 198.413 87.8583 198.311 87.9704 198.145C87.9836 198.125 87.9977 198.106 88.0155 198.09C88.3697 197.717 88.0871 197.244 87.6281 196.976M85.3797 197.485L87.6281 196.976" fill="#000D4C" stroke="white" stroke-width="0.5"/>
<path d="M76.2504 202.345C76.2503 202.345 76.2503 202.345 76.2502 202.345L76.2504 202.345ZM76.2504 202.345L76.2505 202.345C76.2512 202.345 76.2512 202.345 76.251 202.345C76.2509 202.345 76.2506 202.345 76.2504 202.345ZM77.0499 205.289L77.0496 205.289C76.2962 205.452 75.5586 205.287 74.9586 204.986C74.7249 204.869 74.5125 204.73 74.3307 204.583C74.0168 204.328 73.6684 203.991 73.4385 203.644C73.2081 203.296 73.1208 202.977 73.24 202.713C73.4317 202.289 73.9 202.069 74.4838 202.02C75.066 201.972 75.7208 202.1 76.212 202.328C76.2205 202.332 76.2278 202.336 76.2331 202.338L76.2402 202.341C76.7232 202.571 77.193 202.849 77.5316 203.162C77.867 203.472 78.0533 203.795 78.0322 204.139L78.0321 204.139C78.024 204.274 78.0051 204.411 77.9811 204.548C77.9277 204.853 77.6642 205.157 77.0499 205.289Z" fill="#000D4C" stroke="white" stroke-width="0.5"/>
<path d="M66.5056 199.364L66.5048 199.364C66.331 199.402 66.1117 199.407 65.9227 199.375C65.8109 199.355 65.6965 199.316 65.6081 199.265C65.5205 199.213 65.4782 199.162 65.4618 199.117L65.4616 199.117C65.4472 199.077 65.4451 199.011 65.5093 198.932L65.5093 198.932L65.5097 198.931C65.5668 198.86 65.675 198.793 65.8176 198.752C65.959 198.711 66.1128 198.702 66.2445 198.726L66.2445 198.726L66.2455 198.726C66.3155 198.738 66.3916 198.762 66.4553 198.791C66.5131 198.818 66.5416 198.841 66.5517 198.851C66.6028 198.936 66.6851 198.978 66.7132 198.991L66.7989 198.789L66.7132 198.991C66.7351 199.002 66.7558 199.013 66.7763 199.027L66.7762 199.027L66.779 199.029C66.8246 199.058 66.8348 199.08 66.8381 199.089C66.8421 199.1 66.8458 199.123 66.8307 199.157C66.7985 199.231 66.6928 199.325 66.5056 199.364ZM66.5609 198.862C66.561 198.862 66.561 198.862 66.5609 198.862L66.5609 198.862ZM65.2865 198.773C65.1885 198.894 65.1672 199.029 65.2123 199.152L65.2865 198.773Z" fill="#000D4C" stroke="white" stroke-width="0.5"/>
<path d="M113.099 197.628L113.099 197.628L113.1 197.626C113.13 197.556 113.175 197.487 113.24 197.421L113.03 197.248L113.24 197.421C113.302 197.358 113.413 197.291 113.544 197.251C113.678 197.209 113.803 197.204 113.897 197.229C114.198 197.309 114.5 197.447 114.72 197.612C114.809 197.679 114.88 197.747 114.931 197.813C115.094 198.021 115.173 198.267 115.122 198.429C115.081 198.552 114.947 198.656 114.721 198.713C114.499 198.769 114.229 198.768 113.997 198.715C113.633 198.632 113.362 198.452 113.208 198.254C113.056 198.06 113.007 197.836 113.099 197.628Z" fill="#000D4C" stroke="white" stroke-width="0.5"/>
<path d="M97.0014 200.849L97.2531 200.82C97.2318 200.756 97.226 200.688 97.2412 200.621L97.2412 200.621L97.2414 200.62C97.2544 200.561 97.2781 200.511 97.3232 200.464L97.3232 200.464L97.3246 200.463C97.4522 200.329 97.6375 200.225 97.8791 200.182C98.1113 200.141 98.3758 200.168 98.5617 200.239C98.6455 200.27 98.7262 200.318 98.7884 200.371C98.8514 200.424 98.881 200.469 98.8909 200.497C98.9145 200.572 98.9176 200.649 98.8931 200.723L98.8931 200.723L98.8915 200.729C98.8777 200.776 98.8568 200.816 98.8202 200.854L98.8202 200.854L98.8196 200.855C98.6919 200.988 98.5066 201.093 98.2651 201.135C98.0328 201.177 97.7684 201.15 97.5824 201.079C97.4991 201.047 97.4183 201 97.3557 200.947C97.2913 200.892 97.262 200.846 97.2529 200.819L97.0014 200.849ZM97.0014 200.849C96.9678 200.748 96.9588 200.641 96.9825 200.536L99.0323 201.026C98.8756 201.19 98.6495 201.316 98.359 201.367C98.0844 201.416 97.7643 201.388 97.5177 201.294C97.2828 201.204 97.0611 201.026 97.0014 200.849Z" fill="#000D4C" stroke="white" stroke-width="0.5"/>
<path d="M32.1213 209.423L32.3504 209.573C32.4822 209.39 32.8318 209.235 33.2164 209.209L33.2165 209.209C33.6462 209.18 34.0605 209.22 34.4481 209.327L34.4484 209.327C34.8397 209.435 35.1016 209.618 35.3568 209.859L35.3574 209.859C35.4677 209.963 35.5391 210.054 35.5688 210.131C35.5924 210.192 35.5966 210.259 35.5296 210.343L35.5295 210.343C35.3985 210.508 35.1863 210.61 34.9166 210.664C34.6463 210.718 34.3336 210.72 34.0276 210.697C33.8946 210.687 33.7642 210.668 33.6406 210.642C33.6147 210.636 33.5996 210.633 33.5881 210.631C33.575 210.628 33.5665 210.627 33.5521 210.623L33.5521 210.623L33.5467 210.622C32.898 210.461 32.5118 210.189 32.3227 209.822C32.2828 209.742 32.2857 209.664 32.3506 209.573L32.1213 209.423ZM32.1213 209.423C32.0242 209.558 31.9995 209.715 32.086 209.886L33.5203 210.848C33.5415 210.854 33.5643 210.859 33.5864 210.863C33.5988 210.866 33.611 210.868 33.6226 210.871C33.7611 210.9 33.9059 210.921 34.0527 210.932C34.6922 210.98 35.4145 210.928 35.7533 210.501C35.971 210.227 35.7776 209.944 35.5322 209.713C35.2502 209.447 34.9413 209.229 34.4831 209.103C34.0578 208.985 33.6092 208.943 33.1509 208.974C32.7237 209.003 32.3 209.174 32.1213 209.423Z" fill="#000D4C" stroke="white" stroke-width="0.5"/>
<path d="M22.8397 214.659L22.8401 214.659C23.373 214.417 24.0059 214.377 24.5986 214.481L24.599 214.481C24.9129 214.536 25.2138 214.632 25.4792 214.756C25.8596 214.935 26.2592 215.13 26.5844 215.361C26.9088 215.592 27.1222 215.833 27.1868 216.102C27.2112 216.203 27.2048 216.325 27.1339 216.475L27.1339 216.475C27.0078 216.741 26.7128 216.952 26.3105 217.088C25.9111 217.223 25.4314 217.274 24.9807 217.241L24.9804 217.241C24.0754 217.175 23.1659 216.786 22.6067 216.326C22.5992 216.319 22.5922 216.313 22.5854 216.308C22.5477 216.276 22.5204 216.253 22.4948 216.229L22.4948 216.229L22.4911 216.225C22.2224 215.976 22.1055 215.688 22.1448 215.419C22.1844 215.147 22.389 214.864 22.8397 214.659Z" fill="#000D4C" stroke="white" stroke-width="0.5"/>
<path d="M41.4325 209.461C41.4809 209.605 41.4701 209.766 41.3458 209.895L41.4325 209.461ZM41.4325 209.461C41.3858 209.321 41.2123 209.184 41.0295 209.114C40.8381 209.041 40.5865 209.019 40.3737 209.057C40.1472 209.097 39.971 209.194 39.849 209.323M41.4325 209.461L39.849 209.323M39.849 209.323C39.7248 209.452 39.7139 209.613 39.7624 209.757L39.849 209.323ZM41.1336 209.723L41.1336 209.723L41.1326 209.724C41.0401 209.822 40.9051 209.898 40.7273 209.929C40.5551 209.96 40.3614 209.939 40.2301 209.889C40.1723 209.867 40.1164 209.834 40.0742 209.799C40.0301 209.761 40.0164 209.735 40.0139 209.728L40.0138 209.727C39.9873 209.649 39.9925 209.566 40.0612 209.494L40.0612 209.494L40.0622 209.493C40.1547 209.396 40.2898 209.32 40.4676 209.288C40.6378 209.258 40.8337 209.278 40.9648 209.328C41.0225 209.351 41.0784 209.384 41.1207 209.419C41.1648 209.456 41.1784 209.482 41.1809 209.49L41.1811 209.49C41.2075 209.569 41.2024 209.652 41.1336 209.723Z" fill="#000D4C" stroke="white" stroke-width="0.5"/>
<path d="M35.8519 213.804C35.8867 213.817 35.9027 213.828 35.9091 213.834C35.9104 213.845 35.9084 213.868 35.8826 213.899C35.8508 213.936 35.789 213.975 35.6934 213.992C35.6079 214.007 35.5166 213.996 35.4505 213.972C35.4156 213.959 35.3996 213.947 35.3932 213.942C35.3917 213.93 35.3937 213.907 35.4192 213.877C35.4504 213.84 35.5119 213.801 35.609 213.784C35.6945 213.769 35.7859 213.78 35.8519 213.804ZM35.3896 213.938C35.3896 213.938 35.39 213.938 35.3905 213.939L35.3896 213.938ZM35.9119 213.837C35.9126 213.837 35.9129 213.838 35.9128 213.838L35.9119 213.837Z" fill="#000D4C" stroke="white" stroke-width="0.5"/>
<path d="M16.7723 218.077L16.7721 218.077C16.7432 217.992 16.7492 217.9 16.8236 217.822C16.9238 217.718 17.0673 217.637 17.2563 217.604C17.4386 217.571 17.6443 217.592 17.7863 217.646C17.8482 217.67 17.908 217.705 17.9537 217.744C18.0009 217.784 18.018 217.814 18.0222 217.826L18.0223 217.826C18.0512 217.911 18.0452 218.003 17.9708 218.081C17.8705 218.185 17.7271 218.266 17.5381 218.299C17.3541 218.332 17.1478 218.31 17.0081 218.257C16.9468 218.233 16.8867 218.198 16.8407 218.159C16.7928 218.118 16.776 218.088 16.7723 218.077ZM16.6111 217.651C16.4818 217.786 16.4694 217.955 16.5209 218.107L18.2734 217.796C18.2237 217.649 18.0425 217.505 17.8511 217.432C17.648 217.354 17.3866 217.332 17.1624 217.372C16.9245 217.414 16.7404 217.517 16.6111 217.651Z" fill="#000D4C" stroke="white" stroke-width="0.5"/>
<path d="M272.693 192.645L272.692 192.646C272.336 192.921 272.186 193.226 272.154 193.532C272.122 193.842 272.212 194.174 272.373 194.506L272.135 194.566L272.373 194.506C273.017 195.824 274.298 196.976 276.011 197.828L272.693 192.645ZM272.693 192.645C273.397 192.1 274.574 191.876 275.643 192.038C276.778 192.209 277.809 192.71 278.665 193.332C279.32 193.808 279.953 194.314 280.534 194.855L280.708 194.708L280.534 194.855C280.597 194.914 280.659 194.973 280.719 195.034L280.72 195.035M272.693 192.645L280.72 195.035M280.72 195.035C281.179 195.497 281.631 196.076 281.823 196.647C282.008 197.201 281.955 197.753 281.391 198.215L280.72 195.035ZM278.758 198.695C279.776 198.839 280.743 198.746 281.391 198.215L278.758 198.695ZM278.758 198.695C277.743 198.552 276.717 198.179 276.011 197.828L278.758 198.695Z" fill="#000D4C" stroke="white" stroke-width="0.5"/>
<path d="M246.27 195.797L246.27 195.797C246.814 196.579 247.795 197.36 248.895 197.856L246.27 195.797ZM246.27 195.797C245.993 195.398 245.968 194.983 246.188 194.629M246.27 195.797L246.188 194.629M252.383 198.232L252.384 198.232C253.484 197.966 253.974 197.254 253.792 196.627L252.383 198.232ZM252.383 198.232C251.217 198.514 249.895 198.306 248.895 197.856L252.383 198.232ZM246.188 194.629C246.411 194.27 246.898 193.961 247.667 193.835L246.188 194.629ZM247.667 193.835C249.269 193.572 251.194 194.111 252.389 194.96C253.021 195.41 253.575 195.971 253.777 196.577C253.782 196.594 253.787 196.611 253.792 196.627L247.667 193.835Z" fill="#000D4C" stroke="white" stroke-width="0.5"/>
<path d="M262.527 196.708C262.027 196.787 261.713 197.161 261.849 197.485M262.527 196.708L262.616 196.941C262.418 196.972 262.26 197.062 262.168 197.168C262.073 197.278 262.068 197.378 262.094 197.438L262.094 197.439C262.136 197.539 262.2 197.627 262.289 197.692C262.316 197.712 262.342 197.73 262.374 197.752C262.387 197.761 262.401 197.77 262.417 197.781C262.462 197.812 262.517 197.851 262.57 197.896C262.6 197.918 262.635 197.94 262.674 197.963C262.951 198.118 263.327 198.224 263.706 198.197C263.81 198.189 263.923 198.165 264.02 198.126C264.119 198.085 264.181 198.038 264.208 197.998C264.221 197.978 264.243 197.946 264.276 197.916C264.398 197.784 264.399 197.655 264.351 197.541C264.297 197.413 264.168 197.275 263.983 197.167C263.618 196.956 263.136 196.859 262.616 196.941L261.849 197.485M262.527 196.708C263.101 196.618 263.658 196.722 264.097 196.976M262.527 196.708L264.097 196.976M261.849 197.485C261.906 197.622 262 197.757 262.143 197.863C262.177 197.887 262.211 197.911 262.245 197.934C262.304 197.974 262.362 198.014 262.415 198.059C262.461 198.093 262.51 198.125 262.562 198.155C262.892 198.341 263.331 198.463 263.772 198.432C264.033 198.413 264.328 198.311 264.44 198.145C264.453 198.125 264.467 198.106 264.485 198.09C264.839 197.717 264.556 197.244 264.097 196.976M261.849 197.485L264.097 196.976" fill="#000D4C" stroke="white" stroke-width="0.5"/>
<path d="M252.721 202.345C252.721 202.345 252.721 202.345 252.721 202.345L252.721 202.345ZM252.721 202.345L252.721 202.345C252.722 202.345 252.722 202.345 252.722 202.345C252.722 202.345 252.721 202.345 252.721 202.345ZM253.521 205.289L253.52 205.289C252.767 205.452 252.029 205.287 251.429 204.986C251.196 204.869 250.983 204.73 250.801 204.583C250.487 204.328 250.139 203.991 249.909 203.644C249.679 203.296 249.591 202.977 249.711 202.713C249.902 202.289 250.371 202.069 250.954 202.02C251.537 201.972 252.191 202.1 252.683 202.328C252.691 202.332 252.698 202.336 252.704 202.338L252.711 202.341C253.194 202.571 253.664 202.849 254.002 203.162C254.338 203.472 254.524 203.795 254.503 204.139L254.503 204.139C254.495 204.274 254.476 204.411 254.452 204.548C254.398 204.853 254.135 205.157 253.521 205.289Z" fill="#000D4C" stroke="white" stroke-width="0.5"/>
<path d="M242.976 199.364L242.975 199.364C242.801 199.402 242.582 199.407 242.393 199.375C242.281 199.355 242.167 199.316 242.078 199.265C241.991 199.213 241.948 199.162 241.932 199.117L241.932 199.117C241.917 199.077 241.915 199.011 241.979 198.932L241.979 198.932L241.98 198.931C242.037 198.86 242.145 198.793 242.288 198.752C242.429 198.711 242.583 198.702 242.715 198.726L242.715 198.726L242.716 198.726C242.786 198.738 242.862 198.762 242.926 198.791C242.983 198.818 243.012 198.841 243.022 198.851C243.073 198.936 243.155 198.978 243.183 198.991L243.269 198.789L243.183 198.991C243.205 199.002 243.226 199.013 243.246 199.027L243.246 199.027L243.249 199.029C243.295 199.058 243.305 199.08 243.308 199.089C243.312 199.1 243.316 199.123 243.301 199.157C243.269 199.231 243.163 199.325 242.976 199.364ZM243.031 198.862C243.031 198.862 243.031 198.862 243.031 198.862L243.031 198.862ZM241.757 198.773C241.659 198.894 241.637 199.029 241.683 199.152L241.757 198.773Z" fill="#000D4C" stroke="white" stroke-width="0.5"/>
<path d="M289.57 197.628L289.57 197.628L289.571 197.626C289.601 197.556 289.645 197.487 289.711 197.421L289.501 197.248L289.711 197.421C289.773 197.358 289.883 197.291 290.015 197.251C290.148 197.209 290.274 197.204 290.368 197.229C290.668 197.309 290.971 197.447 291.191 197.612C291.279 197.679 291.35 197.747 291.402 197.813C291.565 198.021 291.644 198.267 291.592 198.429C291.552 198.552 291.418 198.656 291.192 198.713C290.97 198.769 290.7 198.768 290.468 198.715C290.104 198.632 289.832 198.452 289.678 198.254C289.527 198.06 289.478 197.836 289.57 197.628Z" fill="#000D4C" stroke="white" stroke-width="0.5"/>
<path d="M273.472 200.849L273.724 200.82C273.703 200.756 273.697 200.688 273.712 200.621L273.712 200.621L273.712 200.62C273.725 200.561 273.749 200.511 273.794 200.464L273.794 200.464L273.795 200.463C273.923 200.329 274.108 200.225 274.35 200.182C274.582 200.141 274.846 200.168 275.032 200.239C275.116 200.27 275.197 200.318 275.259 200.371C275.322 200.424 275.352 200.469 275.362 200.497C275.385 200.572 275.388 200.649 275.364 200.723L275.364 200.723L275.362 200.729C275.348 200.776 275.327 200.816 275.291 200.854L275.291 200.854L275.29 200.855C275.163 200.988 274.977 201.093 274.736 201.135C274.504 201.177 274.239 201.15 274.053 201.079C273.97 201.047 273.889 201 273.826 200.947C273.762 200.892 273.733 200.846 273.724 200.819L273.472 200.849ZM273.472 200.849C273.439 200.748 273.429 200.641 273.453 200.536L275.503 201.026C275.346 201.19 275.12 201.316 274.83 201.367C274.555 201.416 274.235 201.388 273.988 201.294C273.753 201.204 273.532 201.026 273.472 200.849Z" fill="#000D4C" stroke="white" stroke-width="0.5"/>
<path d="M208.592 209.423L208.821 209.573C208.952 209.39 209.302 209.235 209.687 209.209L209.687 209.209C210.116 209.18 210.531 209.22 210.918 209.327L210.919 209.327C211.31 209.435 211.572 209.618 211.827 209.859L211.828 209.859C211.938 209.963 212.009 210.054 212.039 210.131C212.063 210.192 212.067 210.259 212 210.343L212 210.343C211.869 210.508 211.657 210.61 211.387 210.664C211.117 210.718 210.804 210.72 210.498 210.697C210.365 210.687 210.234 210.668 210.111 210.642C210.085 210.636 210.07 210.633 210.058 210.631C210.045 210.628 210.037 210.627 210.022 210.623L210.022 210.623L210.017 210.622C209.368 210.461 208.982 210.189 208.793 209.822C208.753 209.742 208.756 209.664 208.821 209.573L208.592 209.423ZM208.592 209.423C208.494 209.558 208.47 209.715 208.556 209.886L209.991 210.848C210.012 210.854 210.034 210.859 210.057 210.863C210.069 210.866 210.081 210.868 210.093 210.871C210.231 210.9 210.376 210.921 210.523 210.932C211.162 210.98 211.885 210.928 212.224 210.501C212.441 210.227 212.248 209.944 212.002 209.713C211.72 209.447 211.412 209.229 210.953 209.103C210.528 208.985 210.079 208.943 209.621 208.974C209.194 209.003 208.77 209.174 208.592 209.423Z" fill="#000D4C" stroke="white" stroke-width="0.5"/>
<path d="M199.31 214.659L199.31 214.659C199.843 214.417 200.476 214.377 201.069 214.481L201.069 214.481C201.383 214.536 201.684 214.632 201.949 214.756C202.33 214.935 202.729 215.13 203.055 215.361C203.379 215.592 203.592 215.833 203.657 216.102C203.681 216.203 203.675 216.325 203.604 216.475L203.604 216.475C203.478 216.741 203.183 216.952 202.781 217.088C202.381 217.223 201.902 217.274 201.451 217.241L201.451 217.241C200.546 217.175 199.636 216.786 199.077 216.326C199.069 216.319 199.062 216.313 199.056 216.308C199.018 216.276 198.991 216.253 198.965 216.229L198.965 216.229L198.961 216.225C198.693 215.976 198.576 215.688 198.615 215.419C198.655 215.147 198.859 214.864 199.31 214.659Z" fill="#000D4C" stroke="white" stroke-width="0.5"/>
<path d="M217.903 209.461C217.952 209.605 217.941 209.766 217.817 209.895L217.903 209.461ZM217.903 209.461C217.857 209.321 217.683 209.184 217.5 209.114C217.309 209.041 217.057 209.019 216.844 209.057C216.618 209.097 216.442 209.194 216.32 209.323M217.903 209.461L216.32 209.323M216.32 209.323C216.195 209.452 216.185 209.613 216.233 209.757L216.32 209.323ZM217.604 209.723L217.604 209.723L217.603 209.724C217.511 209.822 217.376 209.898 217.198 209.929C217.026 209.96 216.832 209.939 216.701 209.889C216.643 209.867 216.587 209.834 216.545 209.799C216.501 209.761 216.487 209.735 216.485 209.728L216.484 209.727C216.458 209.649 216.463 209.566 216.532 209.494L216.532 209.494L216.533 209.493C216.625 209.396 216.761 209.32 216.938 209.288C217.108 209.258 217.304 209.278 217.435 209.328C217.493 209.351 217.549 209.384 217.591 209.419C217.635 209.456 217.649 209.482 217.652 209.49L217.652 209.49C217.678 209.569 217.673 209.652 217.604 209.723Z" fill="#000D4C" stroke="white" stroke-width="0.5"/>
<path d="M212.323 213.804C212.357 213.817 212.373 213.828 212.38 213.834C212.381 213.845 212.379 213.868 212.353 213.899C212.322 213.936 212.26 213.975 212.164 213.992C212.079 214.007 211.987 213.996 211.921 213.972C211.886 213.959 211.87 213.947 211.864 213.942C211.862 213.93 211.864 213.907 211.89 213.877C211.921 213.84 211.983 213.801 212.08 213.784C212.165 213.769 212.257 213.78 212.323 213.804ZM211.86 213.938C211.86 213.938 211.861 213.938 211.861 213.939L211.86 213.938ZM212.383 213.837C212.383 213.837 212.384 213.838 212.384 213.838L212.383 213.837Z" fill="#000D4C" stroke="white" stroke-width="0.5"/>
<path d="M193.243 218.077L193.242 218.077C193.213 217.992 193.219 217.9 193.294 217.822C193.394 217.718 193.538 217.637 193.726 217.604C193.909 217.571 194.114 217.592 194.257 217.646C194.318 217.67 194.378 217.705 194.424 217.744C194.471 217.784 194.488 217.814 194.492 217.826L194.493 217.826C194.521 217.911 194.515 218.003 194.441 218.081C194.341 218.185 194.197 218.266 194.008 218.299C193.824 218.332 193.618 218.31 193.478 218.257C193.417 218.233 193.357 218.198 193.311 218.159C193.263 218.118 193.246 218.088 193.243 218.077ZM193.081 217.651C192.952 217.786 192.94 217.955 192.991 218.107L194.744 217.796C194.694 217.649 194.513 217.505 194.321 217.432C194.118 217.354 193.857 217.332 193.633 217.372C193.395 217.414 193.211 217.517 193.081 217.651Z" fill="#000D4C" stroke="white" stroke-width="0.5"/>
<path d="M492.111 192.645L492.111 192.646C491.755 192.921 491.605 193.226 491.573 193.532C491.541 193.842 491.631 194.174 491.792 194.506L491.554 194.566L491.792 194.506C492.436 195.824 493.717 196.976 495.43 197.828L492.111 192.645ZM492.111 192.645C492.816 192.1 493.993 191.876 495.062 192.038C496.197 192.209 497.228 192.71 498.084 193.332C498.739 193.808 499.372 194.314 499.953 194.855L500.127 194.708L499.953 194.855C500.016 194.914 500.078 194.973 500.138 195.034L500.138 195.035M492.111 192.645L500.138 195.035M500.138 195.035C500.598 195.497 501.05 196.076 501.242 196.647C501.427 197.201 501.374 197.753 500.81 198.215L500.138 195.035ZM498.177 198.695C499.194 198.839 500.162 198.746 500.81 198.215L498.177 198.695ZM498.177 198.695C497.162 198.552 496.136 198.179 495.43 197.828L498.177 198.695Z" fill="#000D4C" stroke="white" stroke-width="0.5"/>
<path d="M465.689 195.797L465.689 195.797C466.233 196.579 467.214 197.36 468.314 197.856L465.689 195.797ZM465.689 195.797C465.412 195.398 465.387 194.983 465.607 194.629M465.689 195.797L465.607 194.629M471.802 198.232L471.802 198.232C472.903 197.966 473.393 197.254 473.211 196.627L471.802 198.232ZM471.802 198.232C470.636 198.514 469.314 198.306 468.314 197.856L471.802 198.232ZM465.607 194.629C465.83 194.27 466.316 193.961 467.086 193.835L465.607 194.629ZM467.086 193.835C468.688 193.572 470.613 194.111 471.808 194.96C472.44 195.41 472.994 195.971 473.196 196.577C473.201 196.594 473.206 196.611 473.211 196.627L467.086 193.835Z" fill="#000D4C" stroke="white" stroke-width="0.5"/>
<path d="M481.947 196.708C481.447 196.787 481.133 197.161 481.269 197.485M481.947 196.708L482.036 196.941C481.838 196.972 481.68 197.062 481.588 197.168C481.493 197.278 481.488 197.378 481.514 197.438L481.514 197.439C481.556 197.539 481.62 197.627 481.709 197.692C481.736 197.712 481.762 197.73 481.794 197.752C481.807 197.761 481.821 197.77 481.837 197.781C481.882 197.812 481.937 197.851 481.99 197.896C482.02 197.918 482.055 197.94 482.094 197.963C482.371 198.118 482.747 198.224 483.126 198.197C483.23 198.189 483.343 198.165 483.44 198.126C483.539 198.085 483.601 198.038 483.627 197.998C483.641 197.978 483.663 197.946 483.695 197.916C483.818 197.784 483.819 197.655 483.771 197.541C483.717 197.413 483.588 197.275 483.403 197.167C483.038 196.956 482.556 196.859 482.036 196.941L481.269 197.485M481.947 196.708C482.521 196.618 483.078 196.722 483.517 196.976M481.947 196.708L483.517 196.976M481.269 197.485C481.326 197.622 481.42 197.757 481.563 197.863C481.597 197.887 481.631 197.911 481.665 197.934C481.724 197.974 481.782 198.014 481.835 198.059C481.881 198.093 481.93 198.125 481.982 198.155C482.312 198.341 482.751 198.463 483.192 198.432C483.453 198.413 483.747 198.311 483.86 198.145C483.873 198.125 483.887 198.106 483.905 198.09C484.259 197.717 483.976 197.244 483.517 196.976M481.269 197.485L483.517 196.976" fill="#000D4C" stroke="white" stroke-width="0.5"/>
<path d="M472.139 202.345C472.139 202.345 472.139 202.345 472.139 202.345L472.139 202.345ZM472.139 202.345L472.139 202.345C472.14 202.345 472.14 202.345 472.14 202.345C472.14 202.345 472.139 202.345 472.139 202.345ZM472.939 205.289L472.938 205.289C472.185 205.452 471.447 205.287 470.847 204.986C470.614 204.869 470.401 204.73 470.219 204.583C469.905 204.328 469.557 203.991 469.327 203.644C469.097 203.296 469.009 202.977 469.129 202.713C469.32 202.289 469.789 202.069 470.372 202.02C470.955 201.972 471.609 202.1 472.101 202.328C472.109 202.332 472.116 202.336 472.122 202.338L472.129 202.341C472.612 202.571 473.082 202.849 473.42 203.162C473.756 203.472 473.942 203.795 473.921 204.139L473.921 204.139C473.913 204.274 473.894 204.411 473.87 204.548C473.816 204.853 473.553 205.157 472.939 205.289Z" fill="#000D4C" stroke="white" stroke-width="0.5"/>
<path d="M462.395 199.364L462.394 199.364C462.22 199.402 462.001 199.407 461.812 199.375C461.7 199.355 461.586 199.316 461.497 199.265C461.41 199.213 461.367 199.162 461.351 199.117L461.351 199.117C461.336 199.077 461.334 199.011 461.398 198.932L461.398 198.932L461.399 198.931C461.456 198.86 461.564 198.793 461.707 198.752C461.848 198.711 462.002 198.702 462.134 198.726L462.134 198.726L462.135 198.726C462.205 198.738 462.281 198.762 462.344 198.791C462.402 198.818 462.431 198.841 462.441 198.851C462.492 198.936 462.574 198.978 462.602 198.991L462.688 198.789L462.602 198.991C462.624 199.002 462.645 199.013 462.665 199.027L462.665 199.027L462.668 199.029C462.714 199.058 462.724 199.08 462.727 199.089C462.731 199.1 462.735 199.123 462.72 199.157C462.688 199.231 462.582 199.325 462.395 199.364ZM462.45 198.862C462.45 198.862 462.45 198.862 462.45 198.862L462.45 198.862ZM461.176 198.773C461.078 198.894 461.056 199.029 461.101 199.152L461.176 198.773Z" fill="#000D4C" stroke="white" stroke-width="0.5"/>
<path d="M508.989 197.628L508.989 197.628L508.99 197.626C509.02 197.556 509.064 197.487 509.13 197.421L508.92 197.248L509.13 197.421C509.192 197.358 509.302 197.291 509.434 197.251C509.567 197.209 509.693 197.204 509.787 197.229C510.087 197.309 510.39 197.447 510.609 197.612C510.698 197.679 510.769 197.747 510.821 197.813C510.984 198.021 511.063 198.267 511.011 198.429C510.971 198.552 510.837 198.656 510.611 198.713C510.389 198.769 510.119 198.768 509.887 198.715C509.523 198.632 509.251 198.452 509.097 198.254C508.946 198.06 508.897 197.836 508.989 197.628Z" fill="#000D4C" stroke="white" stroke-width="0.5"/>
<path d="M492.89 200.849L493.142 200.82C493.12 200.756 493.115 200.688 493.13 200.621L493.13 200.621L493.13 200.62C493.143 200.561 493.167 200.511 493.212 200.464L493.212 200.464L493.213 200.463C493.341 200.329 493.526 200.225 493.768 200.182C494 200.141 494.264 200.168 494.45 200.239C494.534 200.27 494.615 200.318 494.677 200.371C494.74 200.424 494.77 200.469 494.78 200.497C494.803 200.572 494.806 200.649 494.782 200.723L494.782 200.723L494.78 200.729C494.766 200.776 494.745 200.816 494.709 200.854L494.709 200.854L494.708 200.855C494.581 200.988 494.395 201.093 494.154 201.135C493.922 201.177 493.657 201.15 493.471 201.079C493.388 201.047 493.307 201 493.244 200.947C493.18 200.892 493.151 200.846 493.142 200.819L492.89 200.849ZM492.89 200.849C492.856 200.748 492.847 200.641 492.871 200.536L494.921 201.026C494.764 201.19 494.538 201.316 494.248 201.367C493.973 201.416 493.653 201.388 493.406 201.294C493.171 201.204 492.95 201.026 492.89 200.849Z" fill="#000D4C" stroke="white" stroke-width="0.5"/>
<path d="M428.01 209.423L428.24 209.573C428.371 209.39 428.721 209.235 429.106 209.209L429.106 209.209C429.535 209.18 429.95 209.22 430.337 209.327L430.338 209.327C430.729 209.435 430.991 209.618 431.246 209.859L431.247 209.859C431.357 209.963 431.428 210.054 431.458 210.131C431.482 210.192 431.486 210.259 431.419 210.343L431.419 210.343C431.288 210.508 431.075 210.61 430.806 210.664C430.535 210.718 430.223 210.72 429.917 210.697C429.784 210.687 429.653 210.668 429.53 210.642C429.504 210.636 429.489 210.633 429.477 210.631C429.464 210.628 429.456 210.627 429.441 210.623L429.441 210.623L429.436 210.622C428.787 210.461 428.401 210.189 428.212 209.822C428.172 209.742 428.175 209.664 428.24 209.573L428.01 209.423ZM428.01 209.423C427.913 209.558 427.889 209.715 427.975 209.886L429.409 210.848C429.431 210.854 429.453 210.859 429.476 210.863C429.488 210.866 429.5 210.868 429.512 210.871C429.65 210.9 429.795 210.921 429.942 210.932C430.581 210.98 431.304 210.928 431.642 210.501C431.86 210.227 431.667 209.944 431.421 209.713C431.139 209.447 430.831 209.229 430.372 209.103C429.947 208.985 429.498 208.943 429.04 208.974C428.613 209.003 428.189 209.174 428.01 209.423Z" fill="#000D4C" stroke="white" stroke-width="0.5"/>
<path d="M418.729 214.659L418.729 214.659C419.262 214.417 419.895 214.377 420.488 214.481L420.488 214.481C420.802 214.536 421.103 214.632 421.368 214.756C421.749 214.935 422.148 215.13 422.474 215.361C422.798 215.592 423.011 215.833 423.076 216.102C423.1 216.203 423.094 216.325 423.023 216.475L423.023 216.475C422.897 216.741 422.602 216.952 422.2 217.088C421.8 217.223 421.321 217.274 420.87 217.241L420.87 217.241C419.965 217.175 419.055 216.786 418.496 216.326C418.488 216.319 418.481 216.313 418.475 216.308C418.437 216.276 418.41 216.253 418.384 216.229L418.384 216.229L418.38 216.225C418.112 215.976 417.995 215.688 418.034 215.419C418.074 215.147 418.278 214.864 418.729 214.659Z" fill="#000D4C" stroke="white" stroke-width="0.5"/>
<path d="M437.321 209.461C437.37 209.605 437.359 209.766 437.234 209.895L437.321 209.461ZM437.321 209.461C437.275 209.321 437.101 209.184 436.918 209.114C436.727 209.041 436.475 209.019 436.262 209.057C436.036 209.097 435.86 209.194 435.738 209.323M437.321 209.461L435.738 209.323M435.738 209.323C435.613 209.452 435.603 209.613 435.651 209.757L435.738 209.323ZM437.022 209.723L437.022 209.723L437.021 209.724C436.929 209.822 436.794 209.898 436.616 209.929C436.444 209.96 436.25 209.939 436.119 209.889C436.061 209.867 436.005 209.834 435.963 209.799C435.919 209.761 435.905 209.735 435.903 209.728L435.902 209.727C435.876 209.649 435.881 209.566 435.95 209.494L435.95 209.494L435.951 209.493C436.043 209.396 436.178 209.32 436.356 209.288C436.526 209.258 436.722 209.278 436.853 209.328C436.911 209.351 436.967 209.384 437.009 209.419C437.053 209.456 437.067 209.482 437.07 209.49L437.07 209.49C437.096 209.569 437.091 209.652 437.022 209.723Z" fill="#000D4C" stroke="white" stroke-width="0.5"/>
<path d="M431.741 213.804C431.775 213.817 431.791 213.828 431.798 213.834C431.799 213.845 431.797 213.868 431.771 213.899C431.739 213.936 431.678 213.975 431.582 213.992C431.497 214.007 431.405 213.996 431.339 213.972C431.304 213.959 431.288 213.947 431.282 213.942C431.28 213.93 431.282 213.907 431.308 213.877C431.339 213.84 431.401 213.801 431.498 213.784C431.583 213.769 431.675 213.78 431.741 213.804ZM431.278 213.938C431.278 213.938 431.279 213.938 431.279 213.939L431.278 213.938ZM431.801 213.837C431.801 213.837 431.802 213.838 431.801 213.838L431.801 213.837Z" fill="#000D4C" stroke="white" stroke-width="0.5"/>
<path d="M412.661 218.077L412.661 218.077C412.632 217.992 412.638 217.9 412.713 217.822C412.813 217.718 412.956 217.637 413.145 217.604C413.328 217.571 413.533 217.592 413.675 217.646C413.737 217.67 413.797 217.705 413.843 217.744C413.89 217.784 413.907 217.814 413.911 217.826L413.911 217.826C413.94 217.911 413.934 218.003 413.86 218.081C413.76 218.185 413.616 218.266 413.427 218.299C413.243 218.332 413.037 218.31 412.897 218.257C412.836 218.233 412.776 218.198 412.73 218.159C412.682 218.118 412.665 218.088 412.661 218.077ZM412.5 217.651C412.371 217.786 412.359 217.955 412.41 218.107L414.163 217.796C414.113 217.649 413.932 217.505 413.74 217.432C413.537 217.354 413.276 217.332 413.052 217.372C412.814 217.414 412.63 217.517 412.5 217.651Z" fill="#000D4C" stroke="white" stroke-width="0.5"/>
<path d="M90.8815 207.392L90.8817 207.392C91.3359 207.598 91.5996 207.867 91.748 208.154C91.8981 208.445 91.9413 208.776 91.9153 209.121L92.1645 209.14M90.8815 207.392L84.6442 214.238C85.4835 214.642 86.4598 214.565 87.3887 214.251C88.3156 213.939 89.1608 213.401 89.706 212.942C91.0276 211.825 91.8104 210.496 91.9153 209.121L92.1645 209.14M90.8815 207.392C89.9835 206.983 88.753 206.969 87.7802 207.31C86.7665 207.664 85.9769 208.308 85.398 209.037C84.9274 209.63 84.4926 210.253 84.1329 210.91L83.9221 210.795M90.8815 207.392L83.9221 210.795M92.1645 209.14C92.0532 210.6 91.2243 211.986 89.8671 213.133L90.985 207.165C91.9822 207.617 92.2214 208.386 92.1645 209.14ZM83.9221 210.795L84.1328 210.91C84.1037 210.963 84.0758 211.017 84.0492 211.071L84.0486 211.072M83.9221 210.795L84.0486 211.072M84.0486 211.072C83.7861 211.597 83.5783 212.229 83.6162 212.807M84.0486 211.072L83.6162 212.807M83.6162 212.807C83.6526 213.363 83.9151 213.886 84.6441 214.238L83.6162 212.807Z" fill="#000D4C" stroke="white" stroke-width="0.5"/>
<path d="M117.634 205.896L117.634 205.896C117.416 206.739 116.776 207.659 115.907 208.327C115.116 208.933 113.917 209.363 112.675 209.29L112.675 209.29C112.098 209.256 111.61 209.087 111.261 208.846C110.912 208.604 110.716 208.3 110.682 207.988C110.613 207.345 110.951 206.675 111.412 206.116C112.242 205.108 113.873 204.276 115.51 204.255L117.634 205.896ZM117.634 205.896C117.743 205.474 117.61 205.075 117.259 204.771M117.634 205.896L117.259 204.771M117.259 204.771C116.902 204.462 116.308 204.245 115.51 204.255L117.259 204.771Z" fill="#000D4C" stroke="white" stroke-width="0.5"/>
<path d="M102.281 209.564C102.795 209.555 103.245 209.862 103.24 210.199M102.281 209.564L102.286 209.814C102.494 209.81 102.684 209.871 102.816 209.959C102.954 210.052 102.991 210.144 102.99 210.195L102.99 210.195C102.989 210.295 102.963 210.387 102.904 210.463C102.886 210.487 102.868 210.508 102.847 210.533C102.837 210.544 102.827 210.557 102.815 210.57C102.784 210.608 102.747 210.654 102.713 210.707C102.692 210.733 102.668 210.76 102.639 210.789C102.433 210.986 102.109 211.154 101.727 211.194C101.621 211.205 101.501 211.2 101.39 211.178C101.277 211.156 101.197 211.12 101.154 211.086C101.133 211.068 101.099 211.041 101.057 211.018C100.884 210.91 100.838 210.789 100.84 210.681C100.842 210.557 100.909 210.405 101.045 210.27C101.315 210.003 101.746 209.824 102.286 209.814L103.24 210.199M102.281 209.564C101.691 209.575 101.194 209.771 100.869 210.092C100.531 210.429 100.443 210.935 100.931 211.234L102.281 209.564ZM103.24 210.199C103.238 210.341 103.2 210.488 103.103 210.615M103.24 210.199L103.103 210.615M103.103 210.615C103.08 210.644 103.057 210.672 103.034 210.699M103.103 210.615L103.034 210.699M103.034 210.699C102.992 210.748 102.951 210.796 102.918 210.85L103.034 210.699Z" fill="#000D4C" stroke="white" stroke-width="0.5"/>
<path d="M114.339 216.301L114.34 216.301C115.138 216.33 115.788 216.041 116.25 215.648C116.43 215.494 116.581 215.325 116.698 215.153C116.901 214.852 117.104 214.469 117.19 214.098C117.275 213.728 117.235 213.414 117.021 213.183C116.669 212.806 116.126 212.671 115.538 212.725C114.952 212.778 114.367 213.015 113.982 213.32C113.975 213.325 113.969 213.33 113.965 213.333L113.959 213.337C113.582 213.642 113.238 213.991 113.035 214.349C112.834 214.704 112.783 215.039 112.934 215.359L112.934 215.359C112.995 215.488 113.067 215.617 113.144 215.745C113.313 216.027 113.687 216.278 114.339 216.301Z" fill="#000D4C" stroke="white" stroke-width="0.5"/>
<mask id="path-45-inside-1_1961_1658" fill="white">
<path d="M122.198 209.022C121.696 209.006 121.348 208.654 121.615 208.352C121.641 208.322 121.667 208.297 121.696 208.274C121.703 208.269 121.71 208.26 121.71 208.251C121.71 208.243 121.713 208.235 121.716 208.227C121.761 208.093 121.94 207.964 122.113 207.899C122.44 207.773 122.894 207.819 123.153 208.002C123.295 208.102 123.368 208.229 123.373 208.356C123.383 208.618 123.123 208.817 122.878 208.912C122.671 208.991 122.417 209.03 122.198 209.022Z"/>
</mask>
<path d="M122.198 209.022C121.696 209.006 121.348 208.654 121.615 208.352C121.641 208.322 121.667 208.297 121.696 208.274C121.703 208.269 121.71 208.26 121.71 208.251C121.71 208.243 121.713 208.235 121.716 208.227C121.761 208.093 121.94 207.964 122.113 207.899C122.44 207.773 122.894 207.819 123.153 208.002C123.295 208.102 123.368 208.229 123.373 208.356C123.383 208.618 123.123 208.817 122.878 208.912C122.671 208.991 122.417 209.03 122.198 209.022Z" fill="#000D4C"/>
<path d="M122.198 209.022L122.214 208.522L122.215 208.522L122.198 209.022ZM121.615 208.352L121.994 208.678L121.99 208.683L121.615 208.352ZM122.113 207.899L122.292 208.366L122.29 208.366L122.113 207.899ZM123.153 208.002L122.864 208.411L122.863 208.41L123.153 208.002ZM121.696 208.274L122.007 208.666L121.696 208.274ZM122.182 209.522C121.833 209.511 121.478 209.383 121.248 209.131C121.129 209 121.031 208.819 121.023 208.6C121.015 208.376 121.103 208.175 121.241 208.02L121.99 208.683C121.993 208.679 122.025 208.636 122.023 208.563C122.02 208.496 121.99 208.461 121.988 208.458C121.986 208.456 122.001 208.472 122.045 208.49C122.086 208.506 122.144 208.52 122.214 208.522L122.182 209.522ZM121.237 208.025C121.284 207.97 121.334 207.923 121.386 207.882L122.007 208.666C122.001 208.671 121.997 208.675 121.994 208.678L121.237 208.025ZM121.242 208.067C121.309 207.869 121.45 207.73 121.556 207.645C121.671 207.554 121.805 207.481 121.935 207.431L122.29 208.366C122.27 208.374 122.249 208.384 122.229 208.395C122.208 208.407 122.19 208.419 122.177 208.429C122.164 208.44 122.16 208.445 122.161 208.443C122.162 208.442 122.178 208.423 122.19 208.386L121.242 208.067ZM121.934 207.432C122.182 207.337 122.458 207.312 122.708 207.337C122.955 207.362 123.223 207.439 123.442 207.595L122.863 208.41C122.824 208.382 122.736 208.345 122.609 208.332C122.485 208.32 122.37 208.336 122.292 208.366L121.934 207.432ZM123.441 207.594C123.677 207.761 123.861 208.019 123.872 208.338L122.873 208.375C122.874 208.389 122.876 208.401 122.879 208.41C122.882 208.42 122.886 208.427 122.887 208.43C122.891 208.436 122.888 208.427 122.864 208.411L123.441 207.594ZM123.058 209.378C122.783 209.484 122.46 209.531 122.181 209.522L122.215 208.522C122.373 208.528 122.56 208.498 122.699 208.445L123.058 209.378ZM123.872 208.337C123.885 208.651 123.731 208.894 123.575 209.05C123.419 209.206 123.228 209.313 123.058 209.378L122.699 208.445C122.773 208.416 122.834 208.377 122.868 208.343C122.9 208.311 122.871 208.324 122.873 208.376L123.872 208.337ZM121.21 208.251C121.21 208.182 121.224 208.127 121.232 208.1C121.236 208.086 121.24 208.075 121.241 208.07C121.242 208.067 121.243 208.065 121.243 208.065C121.243 208.064 121.243 208.065 121.242 208.067L122.19 208.386C122.189 208.389 122.185 208.402 122.187 208.396C122.187 208.395 122.19 208.388 122.192 208.378C122.198 208.359 122.21 208.312 122.21 208.251H121.21ZM121.386 207.882C121.359 207.904 121.321 207.939 121.287 207.99C121.254 208.042 121.21 208.132 121.21 208.251H122.21C122.21 208.495 122.049 208.632 122.007 208.666L121.386 207.882Z" fill="white" mask="url(#path-45-inside-1_1961_1658)"/>
<path d="M76.5299 215.094L76.5298 215.094L76.5284 215.092C76.4722 215.03 76.402 214.971 76.3122 214.918L76.4394 214.702L76.3125 214.918C76.2269 214.867 76.0919 214.821 75.9461 214.804C75.7983 214.786 75.6711 214.803 75.5868 214.845C75.3264 214.974 75.088 215.16 74.9413 215.355C74.8823 215.434 74.8416 215.51 74.8184 215.58C74.7446 215.802 74.7669 216.051 74.8729 216.19C74.9593 216.301 75.1324 216.381 75.3776 216.397C75.6176 216.414 75.8812 216.365 76.0865 216.274C76.4096 216.13 76.5983 215.909 76.6676 215.698C76.7348 215.493 76.6978 215.277 76.5299 215.094Z" fill="#000D4C" stroke="white" stroke-width="0.5"/>
<path d="M93.3309 215.437L93.0815 215.454C93.0772 215.393 93.0577 215.329 93.0179 215.269L93.0179 215.269L93.0173 215.268C92.9829 215.215 92.9405 215.17 92.878 215.133L92.878 215.133L92.8761 215.132C92.6993 215.024 92.4767 214.954 92.2224 214.954C91.9781 214.954 91.7297 215.025 91.5763 215.127C91.5073 215.172 91.4485 215.232 91.4099 215.292C91.3708 215.352 91.3624 215.397 91.3634 215.419C91.3695 215.49 91.3949 215.562 91.4463 215.628L91.4464 215.628L91.4502 215.633C91.4811 215.675 91.5169 215.711 91.5678 215.741L91.5678 215.741L91.5687 215.742C91.7455 215.85 91.9682 215.92 92.2224 215.92C92.4667 215.92 92.7151 215.848 92.8685 215.747C92.9372 215.701 92.996 215.641 93.0348 215.581C93.075 215.519 93.0827 215.474 93.0814 215.453L93.3309 215.437ZM93.3309 215.437C93.3238 215.333 93.2906 215.228 93.2267 215.131L91.4384 215.955C91.654 216.087 91.9216 216.17 92.2224 216.17C92.5066 216.17 92.8051 216.088 93.0064 215.955C93.1983 215.828 93.3427 215.618 93.3309 215.437Z" fill="#000D4C" stroke="white" stroke-width="0.5"/>
<path d="M158.452 214.005L158.452 214.005L158.457 214.003C159.025 213.735 159.285 213.406 159.323 213.03C159.33 212.958 159.302 212.887 159.203 212.81L159.357 212.612L159.203 212.81C159.002 212.653 158.599 212.563 158.213 212.604L158.213 212.604C157.784 212.65 157.398 212.76 157.064 212.931L157.064 212.931C156.726 213.103 156.546 213.324 156.395 213.598L156.394 213.598C156.329 213.717 156.298 213.814 156.299 213.886C156.3 213.94 156.317 214.002 156.416 214.073L156.416 214.073C156.818 214.361 157.419 214.314 158.015 214.16C158.142 214.127 158.263 214.086 158.374 214.039C158.396 214.029 158.409 214.024 158.419 214.02C158.431 214.015 158.439 214.011 158.452 214.005Z" fill="#000D4C" stroke="white" stroke-width="0.5"/>
<path d="M170.374 216.093L170.374 216.093C169.76 215.949 169.129 216.019 168.594 216.222L168.594 216.222C168.311 216.33 168.057 216.474 167.849 216.64C167.554 216.877 167.241 217.132 167.015 217.412C166.79 217.692 166.684 217.958 166.732 218.224C166.748 218.318 166.801 218.43 166.924 218.559L166.924 218.559C167.15 218.794 167.519 218.949 167.965 219.012C168.406 219.074 168.892 219.041 169.317 218.931L169.317 218.931C170.17 218.712 170.896 218.179 171.255 217.64C171.26 217.633 171.264 217.626 171.268 217.62C171.292 217.583 171.31 217.556 171.324 217.529L171.324 217.529L171.327 217.525C171.486 217.243 171.485 216.954 171.346 216.707C171.203 216.455 170.895 216.214 170.374 216.093ZM167.693 216.445C167.923 216.261 168.2 216.105 168.505 215.989L171.464 217.778C171.068 218.373 170.287 218.94 169.379 219.173C168.47 219.408 167.302 219.314 166.743 218.732C166.594 218.576 166.513 218.421 166.485 218.268C166.354 217.531 167.109 216.913 167.693 216.445Z" fill="#000D4C" stroke="white" stroke-width="0.5"/>
<path d="M150.377 214.243C150.386 214.39 150.46 214.544 150.63 214.647L150.377 214.243ZM150.377 214.243C150.367 214.101 150.481 213.938 150.63 213.839C150.787 213.736 151.021 213.671 151.241 213.671C151.476 213.671 151.684 213.736 151.852 213.839M150.377 214.243L151.852 213.839M151.852 213.839C152.023 213.942 152.096 214.096 152.106 214.243L151.852 213.839ZM150.76 214.434L150.76 214.434L150.761 214.434C150.89 214.514 151.053 214.565 151.241 214.565C151.424 214.565 151.606 214.511 151.715 214.439C151.762 214.407 151.803 214.366 151.829 214.326C151.842 214.306 151.849 214.29 151.853 214.277C151.857 214.265 151.856 214.26 151.856 214.26L151.856 214.259C151.852 214.188 151.819 214.111 151.723 214.053L151.723 214.053L151.722 214.052C151.593 213.973 151.43 213.921 151.241 213.921C151.061 213.921 150.877 213.976 150.768 214.048C150.72 214.079 150.68 214.12 150.654 214.161C150.641 214.18 150.634 214.197 150.63 214.209C150.626 214.221 150.626 214.227 150.626 214.227L150.626 214.227C150.631 214.298 150.664 214.375 150.76 214.434Z" fill="#000D4C" stroke="white" stroke-width="0.5"/>
<path d="M157.458 217.496C157.439 217.508 157.428 217.518 157.422 217.525C157.422 217.526 157.423 217.526 157.423 217.527C157.43 217.537 157.442 217.552 157.466 217.568C157.512 217.599 157.59 217.628 157.694 217.628C157.786 217.628 157.873 217.6 157.929 217.564C157.948 217.551 157.959 217.541 157.966 217.535C157.965 217.534 157.964 217.533 157.964 217.532C157.957 217.522 157.945 217.508 157.922 217.492C157.876 217.461 157.798 217.432 157.694 217.432C157.601 217.432 157.514 217.46 157.458 217.496ZM157.973 217.525C157.972 217.525 157.972 217.525 157.971 217.527C157.972 217.526 157.973 217.525 157.973 217.525ZM157.415 217.535C157.415 217.535 157.415 217.534 157.416 217.533C157.415 217.534 157.414 217.535 157.415 217.535Z" fill="#000D4C" stroke="white" stroke-width="0.5"/>
<path d="M177.573 218.346L177.573 218.346C177.568 218.268 177.531 218.183 177.427 218.12C177.288 218.035 177.115 217.98 176.916 217.98C176.723 217.98 176.529 218.037 176.412 218.114C176.36 218.148 176.317 218.193 176.289 218.236C176.26 218.282 176.258 218.309 176.258 218.315L176.258 218.315C176.263 218.393 176.3 218.478 176.404 218.541C176.543 218.626 176.716 218.68 176.916 218.68C177.11 218.68 177.304 218.623 177.419 218.546C177.47 218.513 177.514 218.468 177.542 218.425C177.572 218.378 177.573 218.351 177.573 218.346ZM177.557 217.906C177.735 218.014 177.813 218.175 177.823 218.33H176.008C175.999 218.18 176.117 218.009 176.274 217.906C176.439 217.796 176.683 217.73 176.916 217.73C177.162 217.73 177.38 217.798 177.557 217.906Z" fill="#000D4C" stroke="white" stroke-width="0.5"/>
<path d="M486.771 207.392L486.771 207.392C487.225 207.598 487.489 207.867 487.637 208.154C487.787 208.445 487.83 208.776 487.804 209.121L488.054 209.14M486.771 207.392L480.533 214.238C481.373 214.642 482.349 214.565 483.278 214.251C484.205 213.939 485.05 213.401 485.595 212.942C486.917 211.825 487.7 210.496 487.804 209.121L488.054 209.14M486.771 207.392C485.873 206.983 484.642 206.969 483.669 207.31C482.656 207.664 481.866 208.308 481.287 209.037C480.817 209.63 480.382 210.253 480.022 210.91L479.811 210.795M486.771 207.392L479.811 210.795M488.054 209.14C487.942 210.6 487.113 211.986 485.756 213.133L486.874 207.165C487.871 207.617 488.111 208.386 488.054 209.14ZM479.811 210.795L480.022 210.91C479.993 210.963 479.965 211.017 479.938 211.071L479.938 211.072M479.811 210.795L479.938 211.072M479.938 211.072C479.675 211.597 479.468 212.229 479.505 212.807M479.938 211.072L479.505 212.807M479.505 212.807C479.542 213.363 479.804 213.886 480.533 214.238L479.505 212.807Z" fill="#000D4C" stroke="white" stroke-width="0.5"/>
<path d="M513.523 205.896L513.523 205.896C513.305 206.739 512.666 207.659 511.796 208.327C511.006 208.933 509.807 209.363 508.565 209.29L508.564 209.29C507.988 209.256 507.499 209.087 507.151 208.846C506.802 208.604 506.606 208.3 506.572 207.988C506.502 207.345 506.841 206.675 507.301 206.116C508.132 205.108 509.763 204.276 511.4 204.255L513.523 205.896ZM513.523 205.896C513.632 205.474 513.499 205.075 513.149 204.771M513.523 205.896L513.149 204.771M513.149 204.771C512.792 204.462 512.198 204.245 511.4 204.255L513.149 204.771Z" fill="#000D4C" stroke="white" stroke-width="0.5"/>
<path d="M498.171 209.564C498.685 209.555 499.135 209.862 499.13 210.199M498.171 209.564L498.175 209.814C498.384 209.81 498.574 209.871 498.706 209.959C498.844 210.052 498.881 210.144 498.88 210.195L498.88 210.195C498.879 210.295 498.852 210.387 498.794 210.463C498.776 210.487 498.758 210.508 498.736 210.533C498.727 210.544 498.716 210.557 498.705 210.57C498.673 210.608 498.636 210.654 498.602 210.707C498.582 210.733 498.557 210.76 498.529 210.789C498.323 210.986 497.998 211.154 497.617 211.194C497.511 211.205 497.39 211.2 497.28 211.178C497.166 211.156 497.086 211.12 497.044 211.086C497.023 211.068 496.989 211.041 496.946 211.018C496.774 210.91 496.728 210.789 496.73 210.681C496.732 210.557 496.799 210.405 496.935 210.27C497.205 210.003 497.636 209.824 498.175 209.814L499.13 210.199M498.171 209.564C497.581 209.575 497.083 209.771 496.759 210.092C496.42 210.429 496.333 210.935 496.821 211.234L498.171 209.564ZM499.13 210.199C499.128 210.341 499.09 210.488 498.992 210.615M499.13 210.199L498.992 210.615M498.992 210.615C498.97 210.644 498.947 210.672 498.923 210.699M498.992 210.615L498.923 210.699M498.923 210.699C498.882 210.748 498.841 210.796 498.808 210.85L498.923 210.699Z" fill="#000D4C" stroke="white" stroke-width="0.5"/>
<path d="M510.229 216.301L510.229 216.301C511.027 216.33 511.678 216.041 512.14 215.648C512.32 215.494 512.47 215.325 512.588 215.153C512.791 214.852 512.994 214.469 513.08 214.098C513.165 213.728 513.125 213.414 512.91 213.183C512.559 212.806 512.016 212.671 511.427 212.725C510.842 212.778 510.257 213.015 509.871 213.32C509.865 213.325 509.859 213.33 509.855 213.333L509.849 213.337C509.472 213.642 509.128 213.991 508.925 214.349C508.724 214.704 508.673 215.039 508.824 215.359L508.824 215.359C508.885 215.488 508.956 215.617 509.033 215.745C509.202 216.027 509.577 216.278 510.229 216.301Z" fill="#000D4C" stroke="white" stroke-width="0.5"/>
<mask id="path-58-inside-2_1961_1658" fill="white">
<path d="M518.088 209.022C517.586 209.006 517.237 208.654 517.505 208.352C517.53 208.322 517.557 208.297 517.586 208.274C517.593 208.269 517.6 208.26 517.6 208.251C517.6 208.243 517.603 208.235 517.606 208.227C517.651 208.093 517.83 207.964 518.002 207.899C518.329 207.773 518.784 207.819 519.042 208.002C519.184 208.102 519.258 208.229 519.262 208.356C519.273 208.618 519.013 208.817 518.768 208.912C518.561 208.991 518.306 209.03 518.088 209.022Z"/>
</mask>
<path d="M518.088 209.022C517.586 209.006 517.237 208.654 517.505 208.352C517.53 208.322 517.557 208.297 517.586 208.274C517.593 208.269 517.6 208.26 517.6 208.251C517.6 208.243 517.603 208.235 517.606 208.227C517.651 208.093 517.83 207.964 518.002 207.899C518.329 207.773 518.784 207.819 519.042 208.002C519.184 208.102 519.258 208.229 519.262 208.356C519.273 208.618 519.013 208.817 518.768 208.912C518.561 208.991 518.306 209.03 518.088 209.022Z" fill="#000D4C"/>
<path d="M518.088 209.022L518.103 208.522L518.105 208.522L518.088 209.022ZM517.505 208.352L517.883 208.678L517.879 208.683L517.505 208.352ZM518.002 207.899L518.181 208.366L518.18 208.366L518.002 207.899ZM519.042 208.002L518.754 208.411L518.753 208.41L519.042 208.002ZM517.586 208.274L517.896 208.666L517.586 208.274ZM518.072 209.522C517.723 209.511 517.368 209.383 517.138 209.131C517.019 209 516.921 208.819 516.913 208.6C516.904 208.376 516.993 208.175 517.131 208.02L517.879 208.683C517.883 208.679 517.915 208.636 517.912 208.563C517.91 208.496 517.88 208.461 517.877 208.458C517.876 208.456 517.891 208.472 517.934 208.49C517.976 208.506 518.033 208.52 518.103 208.522L518.072 209.522ZM517.127 208.025C517.174 207.97 517.224 207.923 517.276 207.882L517.896 208.666C517.891 208.671 517.887 208.675 517.883 208.678L517.127 208.025ZM517.132 208.067C517.199 207.869 517.339 207.73 517.446 207.645C517.561 207.554 517.695 207.481 517.825 207.431L518.18 208.366C518.16 208.374 518.139 208.384 518.118 208.395C518.097 208.407 518.08 208.419 518.067 208.429C518.054 208.44 518.049 208.445 518.051 208.443C518.052 208.442 518.067 208.423 518.08 208.386L517.132 208.067ZM517.823 207.432C518.072 207.337 518.348 207.312 518.598 207.337C518.844 207.362 519.113 207.439 519.332 207.595L518.753 208.41C518.713 208.382 518.625 208.345 518.498 208.332C518.375 208.32 518.259 208.336 518.181 208.366L517.823 207.432ZM519.33 207.594C519.567 207.761 519.75 208.019 519.762 208.338L518.763 208.375C518.763 208.389 518.766 208.401 518.769 208.41C518.772 208.42 518.775 208.427 518.777 208.43C518.781 208.436 518.777 208.427 518.754 208.411L519.33 207.594ZM518.948 209.378C518.672 209.484 518.35 209.531 518.07 209.522L518.105 208.522C518.263 208.528 518.45 208.498 518.588 208.445L518.948 209.378ZM519.762 208.337C519.774 208.651 519.621 208.894 519.465 209.05C519.309 209.206 519.118 209.313 518.948 209.378L518.588 208.445C518.663 208.416 518.724 208.377 518.757 208.343C518.789 208.311 518.761 208.324 518.763 208.376L519.762 208.337ZM517.1 208.251C517.1 208.182 517.114 208.127 517.121 208.1C517.125 208.086 517.129 208.075 517.131 208.07C517.132 208.067 517.133 208.065 517.133 208.065C517.133 208.064 517.133 208.065 517.132 208.067L518.08 208.386C518.079 208.389 518.074 208.402 518.076 208.396C518.077 208.395 518.079 208.388 518.082 208.378C518.088 208.359 518.1 208.312 518.1 208.251H517.1ZM517.276 207.882C517.248 207.904 517.211 207.939 517.177 207.99C517.143 208.042 517.1 208.132 517.1 208.251H518.1C518.1 208.495 517.939 208.632 517.896 208.666L517.276 207.882Z" fill="white" mask="url(#path-58-inside-2_1961_1658)"/>
<path d="M472.419 215.094L472.419 215.094L472.417 215.092C472.361 215.03 472.291 214.971 472.201 214.918L472.328 214.702L472.201 214.918C472.116 214.867 471.981 214.821 471.835 214.804C471.687 214.786 471.56 214.803 471.475 214.845C471.215 214.974 470.977 215.16 470.83 215.355C470.771 215.434 470.73 215.51 470.707 215.58C470.633 215.802 470.656 216.051 470.762 216.19C470.848 216.301 471.021 216.381 471.266 216.397C471.506 216.414 471.77 216.365 471.975 216.274C472.298 216.13 472.487 215.909 472.556 215.698C472.623 215.493 472.586 215.277 472.419 215.094Z" fill="#000D4C" stroke="white" stroke-width="0.5"/>
<path d="M489.221 215.437L488.972 215.454C488.967 215.393 488.948 215.329 488.908 215.269L488.908 215.269L488.907 215.268C488.873 215.215 488.831 215.17 488.768 215.133L488.768 215.133L488.766 215.132C488.589 215.024 488.367 214.954 488.113 214.954C487.868 214.954 487.62 215.025 487.466 215.127C487.397 215.172 487.339 215.232 487.3 215.292C487.261 215.352 487.253 215.397 487.254 215.419C487.26 215.49 487.285 215.562 487.336 215.628L487.336 215.628L487.34 215.633C487.371 215.675 487.407 215.711 487.458 215.741L487.458 215.741L487.459 215.742C487.636 215.85 487.858 215.92 488.113 215.92C488.357 215.92 488.605 215.848 488.759 215.747C488.827 215.701 488.886 215.641 488.925 215.581C488.965 215.519 488.973 215.474 488.972 215.453L489.221 215.437ZM489.221 215.437C489.214 215.333 489.181 215.228 489.117 215.131L487.329 215.955C487.544 216.087 487.812 216.17 488.113 216.17C488.397 216.17 488.695 216.088 488.897 215.955C489.088 215.828 489.233 215.618 489.221 215.437Z" fill="#000D4C" stroke="white" stroke-width="0.5"/>
<path d="M554.342 214.005L554.342 214.005L554.346 214.003C554.915 213.735 555.175 213.406 555.213 213.03C555.219 212.958 555.192 212.887 555.093 212.81L555.246 212.612L555.093 212.81C554.892 212.653 554.489 212.563 554.103 212.604L554.103 212.604C553.674 212.65 553.288 212.76 552.954 212.931L552.953 212.931C552.616 213.103 552.435 213.324 552.284 213.598L552.284 213.598C552.218 213.717 552.187 213.814 552.189 213.886C552.19 213.94 552.207 214.002 552.306 214.073L552.306 214.073C552.707 214.361 553.309 214.314 553.905 214.16C554.032 214.127 554.152 214.086 554.263 214.039C554.285 214.029 554.299 214.024 554.309 214.02C554.321 214.015 554.329 214.011 554.342 214.005Z" fill="#000D4C" stroke="white" stroke-width="0.5"/>
<path d="M566.264 216.093L566.264 216.093C565.65 215.949 565.018 216.019 564.484 216.222L564.484 216.222C564.201 216.33 563.947 216.474 563.739 216.64C563.443 216.877 563.13 217.132 562.905 217.412C562.68 217.692 562.574 217.958 562.621 218.224C562.638 218.318 562.69 218.43 562.813 218.559L562.813 218.559C563.039 218.794 563.409 218.949 563.854 219.012C564.296 219.074 564.782 219.041 565.207 218.931L565.207 218.931C566.06 218.712 566.786 218.179 567.144 217.64C567.149 217.633 567.154 217.626 567.158 217.62C567.182 217.583 567.199 217.556 567.214 217.529L567.214 217.529L567.216 217.525C567.375 217.243 567.375 216.954 567.235 216.707C567.093 216.455 566.784 216.214 566.264 216.093ZM563.583 216.445C563.812 216.261 564.09 216.105 564.395 215.989L567.353 217.778C566.958 218.373 566.176 218.94 565.269 219.173C564.36 219.408 563.192 219.314 562.633 218.732C562.483 218.576 562.402 218.421 562.375 218.268C562.243 217.531 562.998 216.913 563.583 216.445Z" fill="#000D4C" stroke="white" stroke-width="0.5"/>
<path d="M546.266 214.243C546.275 214.39 546.348 214.544 546.519 214.647L546.266 214.243ZM546.266 214.243C546.256 214.101 546.37 213.938 546.519 213.839C546.675 213.736 546.91 213.671 547.13 213.671C547.365 213.671 547.573 213.736 547.741 213.839M546.266 214.243L547.741 213.839M547.741 213.839C547.912 213.942 547.985 214.096 547.995 214.243L547.741 213.839ZM546.649 214.434L546.649 214.434L546.65 214.434C546.779 214.514 546.942 214.565 547.13 214.565C547.312 214.565 547.494 214.511 547.603 214.439C547.651 214.407 547.692 214.366 547.717 214.326C547.73 214.306 547.738 214.29 547.742 214.277C547.745 214.265 547.745 214.26 547.745 214.26L547.745 214.259C547.74 214.188 547.707 214.111 547.612 214.053L547.612 214.053L547.61 214.052C547.481 213.973 547.318 213.921 547.13 213.921C546.95 213.921 546.765 213.976 546.657 214.048C546.609 214.079 546.569 214.12 546.543 214.161C546.53 214.18 546.522 214.197 546.519 214.209C546.515 214.221 546.515 214.227 546.515 214.227L546.515 214.227C546.52 214.298 546.553 214.375 546.649 214.434Z" fill="#000D4C" stroke="white" stroke-width="0.5"/>
<path d="M553.348 217.496C553.329 217.508 553.318 217.518 553.311 217.525C553.312 217.526 553.312 217.526 553.313 217.527C553.319 217.537 553.332 217.552 553.355 217.568C553.402 217.599 553.48 217.628 553.583 217.628C553.676 217.628 553.763 217.6 553.818 217.564C553.838 217.551 553.849 217.541 553.855 217.535C553.855 217.534 553.854 217.533 553.853 217.532C553.847 217.522 553.834 217.508 553.812 217.492C553.766 217.461 553.688 217.432 553.583 217.432C553.491 217.432 553.404 217.46 553.348 217.496ZM553.862 217.525C553.862 217.525 553.862 217.525 553.861 217.527C553.862 217.526 553.862 217.525 553.862 217.525ZM553.304 217.535C553.304 217.535 553.305 217.534 553.305 217.533C553.304 217.534 553.304 217.535 553.304 217.535Z" fill="#000D4C" stroke="white" stroke-width="0.5"/>
<path d="M573.463 218.346L573.463 218.346C573.458 218.268 573.421 218.183 573.317 218.12C573.178 218.035 573.005 217.98 572.805 217.98C572.613 217.98 572.419 218.037 572.301 218.114C572.25 218.148 572.207 218.193 572.179 218.236C572.149 218.282 572.147 218.309 572.148 218.315L572.148 218.315C572.152 218.393 572.189 218.478 572.293 218.541C572.432 218.626 572.605 218.68 572.805 218.68C573 218.68 573.193 218.623 573.309 218.546C573.36 218.513 573.403 218.468 573.432 218.425C573.461 218.378 573.463 218.351 573.463 218.346ZM573.447 217.906C573.625 218.014 573.703 218.175 573.712 218.33H571.898C571.889 218.18 572.007 218.009 572.163 217.906C572.329 217.796 572.573 217.73 572.805 217.73C573.052 217.73 573.269 217.798 573.447 217.906Z" fill="#000D4C" stroke="white" stroke-width="0.5"/>
<path d="M277.827 207.392L277.827 207.392C278.282 207.598 278.545 207.867 278.694 208.154C278.844 208.445 278.887 208.776 278.861 209.121L279.11 209.14M277.827 207.392L271.59 214.238C272.429 214.642 273.406 214.565 274.335 214.251C275.261 213.939 276.107 213.401 276.652 212.942C277.973 211.825 278.756 210.496 278.861 209.121L279.11 209.14M277.827 207.392C276.929 206.983 275.699 206.969 274.726 207.31C273.712 207.664 272.923 208.308 272.344 209.037C271.873 209.63 271.438 210.253 271.079 210.91L270.868 210.795M277.827 207.392L270.868 210.795M279.11 209.14C278.999 210.6 278.17 211.986 276.813 213.133L277.931 207.165C278.928 207.617 279.167 208.386 279.11 209.14ZM270.868 210.795L271.079 210.91C271.05 210.963 271.022 211.017 270.995 211.071L270.994 211.072M270.868 210.795L270.994 211.072M270.994 211.072C270.732 211.597 270.524 212.229 270.562 212.807M270.994 211.072L270.562 212.807M270.562 212.807C270.598 213.363 270.861 213.886 271.59 214.238L270.562 212.807Z" fill="#000D4C" stroke="white" stroke-width="0.5"/>
<path d="M304.58 205.896L304.58 205.896C304.362 206.739 303.722 207.659 302.853 208.327C302.063 208.933 300.864 209.363 299.621 209.29L299.621 209.29C299.045 209.256 298.556 209.087 298.208 208.846C297.859 208.604 297.663 208.3 297.629 207.988C297.559 207.345 297.897 206.675 298.358 206.116C299.188 205.108 300.82 204.276 302.456 204.255L304.58 205.896ZM304.58 205.896C304.689 205.474 304.556 205.075 304.206 204.771M304.58 205.896L304.206 204.771M304.206 204.771C303.848 204.462 303.254 204.245 302.457 204.255L304.206 204.771Z" fill="#000D4C" stroke="white" stroke-width="0.5"/>
<path d="M289.227 209.564C289.741 209.555 290.191 209.862 290.186 210.199M289.227 209.564L289.232 209.814C289.44 209.81 289.631 209.871 289.762 209.959C289.9 210.052 289.937 210.144 289.937 210.195L289.937 210.195C289.935 210.295 289.909 210.387 289.85 210.463C289.832 210.487 289.815 210.508 289.793 210.533C289.783 210.544 289.773 210.557 289.762 210.57C289.73 210.608 289.693 210.654 289.659 210.707C289.639 210.733 289.614 210.76 289.586 210.789C289.379 210.986 289.055 211.154 288.673 211.194C288.568 211.205 288.447 211.2 288.337 211.178C288.223 211.156 288.143 211.12 288.1 211.086C288.079 211.068 288.045 211.041 288.003 211.018C287.83 210.91 287.785 210.789 287.786 210.681C287.788 210.557 287.855 210.405 287.992 210.27C288.261 210.003 288.693 209.824 289.232 209.814L290.186 210.199M289.227 209.564C288.637 209.575 288.14 209.771 287.816 210.092C287.477 210.429 287.389 210.935 287.877 211.234L289.227 209.564ZM290.186 210.199C290.185 210.341 290.146 210.488 290.049 210.615M290.186 210.199L290.049 210.615M290.049 210.615C290.027 210.644 290.003 210.672 289.98 210.699M290.049 210.615L289.98 210.699M289.98 210.699C289.939 210.748 289.898 210.796 289.864 210.85L289.98 210.699Z" fill="#000D4C" stroke="white" stroke-width="0.5"/>
<path d="M301.286 216.301L301.286 216.301C302.084 216.33 302.735 216.041 303.197 215.648C303.376 215.494 303.527 215.325 303.645 215.153C303.848 214.852 304.051 214.469 304.136 214.098C304.221 213.728 304.182 213.414 303.967 213.183C303.616 212.806 303.073 212.671 302.484 212.725C301.898 212.778 301.314 213.015 300.928 213.32C300.921 213.325 300.916 213.33 300.912 213.333L300.906 213.337C300.529 213.642 300.185 213.991 299.981 214.349C299.78 214.704 299.73 215.039 299.88 215.359L299.881 215.359C299.941 215.488 300.013 215.617 300.09 215.745C300.259 216.027 300.633 216.278 301.286 216.301Z" fill="#000D4C" stroke="white" stroke-width="0.5"/>
<mask id="path-71-inside-3_1961_1658" fill="white">
<path d="M309.144 209.022C308.642 209.006 308.294 208.654 308.562 208.352C308.587 208.322 308.614 208.297 308.643 208.274C308.65 208.269 308.656 208.26 308.656 208.251C308.656 208.243 308.66 208.235 308.662 208.227C308.708 208.093 308.887 207.964 309.059 207.899C309.386 207.773 309.841 207.819 310.099 208.002C310.241 208.102 310.314 208.229 310.319 208.356C310.329 208.618 310.07 208.817 309.825 208.912C309.618 208.991 309.363 209.03 309.144 209.022Z"/>
</mask>
<path d="M309.144 209.022C308.642 209.006 308.294 208.654 308.562 208.352C308.587 208.322 308.614 208.297 308.643 208.274C308.65 208.269 308.656 208.26 308.656 208.251C308.656 208.243 308.66 208.235 308.662 208.227C308.708 208.093 308.887 207.964 309.059 207.899C309.386 207.773 309.841 207.819 310.099 208.002C310.241 208.102 310.314 208.229 310.319 208.356C310.329 208.618 310.07 208.817 309.825 208.912C309.618 208.991 309.363 209.03 309.144 209.022Z" fill="#000D4C"/>
<path d="M309.144 209.022L309.16 208.522L309.161 208.522L309.144 209.022ZM308.562 208.352L308.94 208.678L308.936 208.683L308.562 208.352ZM309.059 207.899L309.238 208.366L309.236 208.366L309.059 207.899ZM310.099 208.002L309.811 208.411L309.809 208.41L310.099 208.002ZM308.643 208.274L308.953 208.666L308.643 208.274ZM309.129 209.522C308.779 209.511 308.424 209.383 308.194 209.131C308.076 209 307.978 208.819 307.97 208.6C307.961 208.376 308.05 208.175 308.187 208.02L308.936 208.683C308.94 208.679 308.972 208.636 308.969 208.563C308.966 208.496 308.937 208.461 308.934 208.458C308.932 208.456 308.947 208.472 308.991 208.49C309.032 208.506 309.09 208.52 309.16 208.522L309.129 209.522ZM308.183 208.025C308.23 207.97 308.28 207.923 308.332 207.882L308.953 208.666C308.947 208.671 308.943 208.675 308.94 208.678L308.183 208.025ZM308.189 208.067C308.255 207.869 308.396 207.73 308.502 207.645C308.618 207.554 308.751 207.481 308.882 207.431L309.236 208.366C309.217 208.374 309.196 208.384 309.175 208.395C309.154 208.407 309.137 208.419 309.124 208.429C309.11 208.44 309.106 208.445 309.108 208.443C309.109 208.442 309.124 208.423 309.136 208.386L308.189 208.067ZM308.88 207.432C309.129 207.337 309.404 207.312 309.654 207.337C309.901 207.362 310.17 207.439 310.388 207.595L309.809 208.41C309.77 208.382 309.682 208.345 309.555 208.332C309.431 208.32 309.316 208.336 309.238 208.366L308.88 207.432ZM310.387 207.594C310.624 207.761 310.807 208.019 310.819 208.338L309.819 208.375C309.82 208.389 309.822 208.401 309.825 208.41C309.828 208.42 309.832 208.427 309.834 208.43C309.837 208.436 309.834 208.427 309.811 208.411L310.387 207.594ZM310.004 209.378C309.729 209.484 309.407 209.531 309.127 209.522L309.161 208.522C309.319 208.528 309.506 208.498 309.645 208.445L310.004 209.378ZM310.819 208.337C310.831 208.651 310.678 208.894 310.521 209.05C310.366 209.206 310.175 209.313 310.004 209.378L309.645 208.445C309.72 208.416 309.781 208.377 309.814 208.343C309.846 208.311 309.817 208.324 309.819 208.376L310.819 208.337ZM308.156 208.251C308.156 208.182 308.17 208.127 308.178 208.1C308.182 208.086 308.186 208.075 308.188 208.07C308.188 208.067 308.189 208.065 308.189 208.065C308.19 208.064 308.189 208.065 308.189 208.067L309.136 208.386C309.135 208.389 309.131 208.402 309.133 208.396C309.133 208.395 309.136 208.388 309.139 208.378C309.144 208.359 309.156 208.312 309.156 208.251H308.156ZM308.332 207.882C308.305 207.904 308.267 207.939 308.234 207.99C308.2 208.042 308.156 208.132 308.156 208.251H309.156C309.156 208.495 308.996 208.632 308.953 208.666L308.332 207.882Z" fill="white" mask="url(#path-71-inside-3_1961_1658)"/>
<path d="M263.475 215.094L263.475 215.094L263.474 215.092C263.418 215.03 263.347 214.971 263.258 214.918L263.385 214.702L263.258 214.918C263.172 214.867 263.037 214.821 262.891 214.804C262.744 214.786 262.616 214.803 262.532 214.845C262.272 214.974 262.033 215.16 261.887 215.355C261.828 215.434 261.787 215.51 261.764 215.58C261.69 215.802 261.712 216.051 261.818 216.19C261.905 216.301 262.078 216.381 262.323 216.397C262.563 216.414 262.826 216.365 263.032 216.274C263.355 216.13 263.544 215.909 263.613 215.698C263.68 215.493 263.643 215.277 263.475 215.094Z" fill="#000D4C" stroke="white" stroke-width="0.5"/>
<path d="M280.278 215.437L280.028 215.454C280.024 215.393 280.004 215.33 279.965 215.269L279.965 215.269L279.964 215.268C279.93 215.216 279.887 215.171 279.825 215.133L279.825 215.133L279.823 215.132C279.646 215.024 279.423 214.954 279.169 214.954C278.925 214.954 278.677 215.026 278.523 215.127C278.454 215.173 278.395 215.232 278.357 215.292C278.318 215.353 278.309 215.397 278.31 215.42C278.316 215.491 278.342 215.562 278.393 215.628L278.393 215.628L278.397 215.633C278.428 215.675 278.464 215.711 278.515 215.742L278.515 215.742L278.515 215.742C278.692 215.85 278.915 215.92 279.169 215.92C279.414 215.92 279.662 215.849 279.815 215.747C279.884 215.702 279.943 215.642 279.982 215.582C280.022 215.519 280.03 215.474 280.028 215.453L280.278 215.437ZM280.278 215.437C280.271 215.334 280.237 215.229 280.173 215.132L278.385 215.956C278.601 216.087 278.868 216.17 279.169 216.17C279.453 216.17 279.752 216.089 279.953 215.956C280.145 215.829 280.289 215.619 280.278 215.437Z" fill="#000D4C" stroke="white" stroke-width="0.5"/>
<path d="M345.398 214.005L345.398 214.005L345.403 214.003C345.972 213.735 346.232 213.406 346.27 213.03C346.276 212.958 346.249 212.887 346.149 212.81L346.303 212.612L346.149 212.81C345.948 212.653 345.545 212.563 345.159 212.604L345.159 212.604C344.731 212.65 344.344 212.76 344.01 212.931L344.01 212.931C343.673 213.103 343.492 213.324 343.341 213.598L343.341 213.598C343.275 213.717 343.244 213.814 343.245 213.886C343.246 213.94 343.264 214.002 343.362 214.073L343.362 214.073C343.764 214.361 344.365 214.314 344.962 214.16C345.088 214.127 345.209 214.086 345.32 214.039C345.342 214.029 345.355 214.024 345.366 214.02C345.378 214.015 345.386 214.011 345.398 214.005Z" fill="#000D4C" stroke="white" stroke-width="0.5"/>
<path d="M357.321 216.093L357.32 216.093C356.706 215.949 356.075 216.019 355.541 216.222L355.54 216.222C355.257 216.33 355.003 216.474 354.796 216.64C354.5 216.877 354.187 217.132 353.962 217.412C353.737 217.692 353.63 217.958 353.678 218.224C353.695 218.318 353.747 218.43 353.87 218.559L353.87 218.559C354.096 218.794 354.466 218.949 354.911 219.012C355.352 219.074 355.839 219.041 356.263 218.931L356.263 218.931C357.116 218.712 357.843 218.179 358.201 217.64C358.206 217.633 358.21 217.626 358.215 217.62C358.239 217.583 358.256 217.556 358.271 217.529L358.271 217.529L358.273 217.525C358.432 217.243 358.431 216.954 358.292 216.707C358.149 216.455 357.841 216.214 357.321 216.093ZM354.639 216.445C354.869 216.261 355.146 216.105 355.452 215.989L358.41 217.778C358.014 218.373 357.233 218.94 356.326 219.173C355.416 219.408 354.249 219.314 353.69 218.732C353.54 218.576 353.459 218.421 353.432 218.268C353.3 217.531 354.055 216.913 354.639 216.445Z" fill="#000D4C" stroke="white" stroke-width="0.5"/>
<path d="M337.322 214.244C337.332 214.391 337.405 214.544 337.576 214.648L337.322 214.244ZM337.322 214.244C337.313 214.101 337.426 213.938 337.576 213.84C337.732 213.736 337.966 213.672 338.187 213.672C338.421 213.672 338.63 213.736 338.798 213.84M337.322 214.244L338.798 213.84M338.798 213.84C338.968 213.943 339.042 214.096 339.051 214.244L338.798 213.84ZM337.705 214.434L337.705 214.434L337.707 214.435C337.835 214.514 337.998 214.565 338.187 214.565C338.369 214.565 338.551 214.511 338.66 214.439C338.708 214.408 338.748 214.366 338.774 214.326C338.787 214.307 338.794 214.29 338.798 214.278C338.802 214.266 338.802 214.26 338.802 214.26L338.802 214.26C338.797 214.188 338.764 214.111 338.668 214.053L338.668 214.053L338.667 214.052C338.538 213.973 338.375 213.922 338.187 213.922C338.007 213.922 337.822 213.976 337.714 214.048C337.666 214.08 337.625 214.121 337.599 214.161C337.587 214.181 337.579 214.197 337.575 214.21C337.571 214.222 337.572 214.227 337.572 214.227L337.572 214.228C337.576 214.299 337.609 214.376 337.705 214.434Z" fill="#000D4C" stroke="white" stroke-width="0.5"/>
<path d="M344.405 217.496C344.385 217.508 344.374 217.518 344.368 217.525C344.368 217.526 344.369 217.526 344.369 217.527C344.376 217.537 344.389 217.552 344.412 217.568C344.459 217.599 344.537 217.628 344.64 217.628C344.732 217.628 344.819 217.6 344.875 217.564C344.894 217.551 344.906 217.541 344.912 217.535C344.911 217.534 344.911 217.533 344.91 217.532C344.904 217.522 344.891 217.508 344.868 217.492C344.822 217.461 344.744 217.432 344.64 217.432C344.547 217.432 344.46 217.46 344.405 217.496ZM344.919 217.525C344.919 217.525 344.918 217.525 344.918 217.527C344.919 217.526 344.919 217.525 344.919 217.525ZM344.361 217.535C344.361 217.535 344.361 217.534 344.362 217.533C344.361 217.534 344.361 217.535 344.361 217.535Z" fill="#000D4C" stroke="white" stroke-width="0.5"/>
<path d="M364.52 218.346L364.519 218.346C364.515 218.268 364.478 218.183 364.374 218.12C364.235 218.035 364.062 217.98 363.862 217.98C363.669 217.98 363.476 218.037 363.358 218.114C363.307 218.148 363.263 218.193 363.235 218.236C363.206 218.282 363.204 218.309 363.204 218.315L363.204 218.315C363.209 218.393 363.246 218.478 363.35 218.541C363.489 218.626 363.662 218.68 363.862 218.68C364.056 218.68 364.25 218.623 364.366 218.546C364.417 218.513 364.46 218.468 364.488 218.425C364.518 218.378 364.52 218.351 364.52 218.346ZM364.504 217.906C364.681 218.014 364.76 218.175 364.769 218.33H362.955C362.945 218.18 363.064 218.009 363.22 217.906C363.386 217.796 363.63 217.73 363.862 217.73C364.108 217.73 364.326 217.798 364.504 217.906Z" fill="#000D4C" stroke="white" stroke-width="0.5"/>
<path d="M557.055 134.832L557.07 134.835C557.902 135.029 558.733 135.292 559.45 135.627C560.171 135.962 560.758 136.361 561.122 136.816L557.055 134.832ZM557.055 134.832L557.041 134.826M557.055 134.832L557.041 134.826M557.041 134.826C556.517 134.634 555.97 134.468 555.388 134.343L555.387 134.342M557.041 134.826L555.387 134.342M561.006 138.654L561.006 138.654C560.401 139.236 559.334 139.401 558.201 139.364L561.006 138.654ZM561.006 138.654C561.297 138.374 561.435 138.059 561.451 137.749M561.006 138.654L561.451 137.749M555.387 134.342C554.579 134.166 553.573 134.018 552.63 134.045C551.678 134.072 550.839 134.276 550.313 134.753M555.387 134.342L550.313 134.753M561.451 137.749C561.466 137.439 561.36 137.113 561.122 136.816L561.451 137.749ZM550.313 134.753C550.023 135.016 549.93 135.274 549.94 135.518M550.313 134.753L549.94 135.518M549.94 135.518C549.95 135.776 550.076 136.059 550.304 136.355M549.94 135.518L550.304 136.355M550.304 136.355C550.763 136.95 551.565 137.506 552.27 137.872L550.304 136.355ZM552.271 137.873C553.969 138.752 556.029 139.292 558.201 139.364L552.271 137.873Z" fill="#000D4C" stroke="white" stroke-width="0.5"/>
<path d="M563.032 156.372L563.032 156.372C563.784 156.457 564.479 156.346 564.971 156.098C565.461 155.851 565.719 155.489 565.708 155.061C565.69 154.448 565.215 153.782 564.413 153.217C563.621 152.659 562.563 152.241 561.497 152.107L561.484 152.106L561.472 152.103C560.964 151.985 560.44 151.922 559.906 151.948C559.334 151.975 558.829 152.13 558.461 152.362C558.091 152.596 557.879 152.892 557.837 153.204L557.837 153.204C557.743 153.909 558.302 154.662 559.246 155.201C560.264 155.78 561.689 156.22 563.032 156.372Z" fill="#000D4C" stroke="white" stroke-width="0.5"/>
<path d="M554.713 145.956L554.956 145.898C554.997 146.073 555.198 146.277 555.532 146.43C555.581 146.451 555.63 146.471 555.68 146.488C555.753 146.507 555.822 146.532 555.883 146.554C555.894 146.559 555.905 146.563 555.916 146.567C555.967 146.586 556.013 146.602 556.059 146.617C556.215 146.667 556.403 146.689 556.595 146.69L556.595 146.69C556.803 146.691 556.998 146.63 557.132 146.542C557.273 146.45 557.305 146.362 557.303 146.316L557.552 146.305L557.303 146.316C557.292 146.062 557.097 145.797 556.653 145.601C556.431 145.503 556.146 145.439 555.868 145.437C555.59 145.435 555.347 145.495 555.178 145.612C555.143 145.64 555.108 145.66 555.081 145.674C554.965 145.734 554.941 145.836 554.956 145.899L554.713 145.956ZM554.713 145.956C554.781 146.246 555.073 146.495 555.43 146.658L554.713 145.956Z" fill="#000D4C" stroke="white" stroke-width="0.5"/>
<path d="M548.066 155.651L548.181 155.429C548.418 155.551 548.685 155.655 548.962 155.738C549.426 155.875 550.033 156.017 550.637 156.078C551.248 156.139 551.825 156.114 552.245 155.943C552.558 155.815 552.735 155.667 552.827 155.53C552.915 155.398 552.937 155.258 552.906 155.109C552.84 154.792 552.527 154.424 552.049 154.159C552.042 154.156 552.036 154.153 552.031 154.15C552.028 154.148 552.026 154.147 552.024 154.145C551.092 153.641 549.853 153.204 548.681 153.446L548.681 153.446C548.485 153.486 548.289 153.535 548.09 153.586C547.548 153.725 547.263 153.985 547.238 154.294L547.238 154.295C547.204 154.702 547.544 155.101 548.181 155.429L548.066 155.651ZM548.066 155.651C547.417 155.318 546.941 154.848 546.989 154.274M548.066 155.651C548.32 155.781 548.602 155.891 548.891 155.977C549.838 156.258 551.385 156.563 552.339 156.175L546.989 154.274M546.989 154.274C547.027 153.798 547.458 153.49 548.028 153.344C548.228 153.292 548.428 153.243 548.63 153.201C549.89 152.941 551.195 153.413 552.145 153.927L546.989 154.274Z" fill="#000D4C" stroke="white" stroke-width="0.5"/>
<path d="M558.621 159.496L558.621 159.496L558.621 159.498C558.611 159.617 558.707 159.825 558.944 159.908L558.961 159.914L558.977 159.922C559.085 159.978 559.225 160.008 559.374 160.005L559.374 160.005C559.53 160.003 559.675 159.963 559.782 159.897L559.782 159.897L559.782 159.897C559.874 159.84 559.912 159.775 559.923 159.727C559.933 159.684 559.925 159.636 559.882 159.587L559.882 159.587L559.881 159.586C559.819 159.514 559.675 159.426 559.533 159.406C559.529 159.406 559.525 159.405 559.521 159.405C559.454 159.402 559.403 159.377 559.378 159.363C559.355 159.351 559.329 159.339 559.297 159.327L559.297 159.327L559.295 159.326C559.129 159.262 558.947 159.272 558.808 159.327C558.659 159.386 558.623 159.466 558.621 159.496Z" fill="#000D4C" stroke="white" stroke-width="0.5"/>
<mask id="path-85-inside-4_1961_1658" fill="white">
<path d="M547.062 129.047C546.735 128.726 546.726 128.242 547.304 128.046C547.703 127.912 548.145 127.924 548.563 127.982C548.719 128.004 548.874 128.041 549.023 128.09C549.376 128.206 549.691 128.386 549.907 128.576C550.122 128.765 549.997 129.055 549.783 129.213C549.684 129.287 549.57 129.346 549.447 129.395C548.689 129.699 547.569 129.544 547.062 129.047Z"/>
</mask>
<path d="M547.062 129.047C546.735 128.726 546.726 128.242 547.304 128.046C547.703 127.912 548.145 127.924 548.563 127.982C548.719 128.004 548.874 128.041 549.023 128.09C549.376 128.206 549.691 128.386 549.907 128.576C550.122 128.765 549.997 129.055 549.783 129.213C549.684 129.287 549.57 129.346 549.447 129.395C548.689 129.699 547.569 129.544 547.062 129.047Z" fill="#000D4C"/>
<path d="M547.062 129.047L546.712 129.404L546.712 129.404L547.062 129.047ZM549.023 128.09L549.178 127.615L549.179 127.615L549.023 128.09ZM549.783 129.213L550.081 129.615L550.081 129.615L549.783 129.213ZM549.447 129.395L549.261 128.931L549.264 128.93L549.447 129.395ZM546.712 129.404C546.47 129.166 546.289 128.812 546.349 128.422C546.415 128.003 546.731 127.712 547.143 127.573L547.464 128.52C547.378 128.549 547.344 128.578 547.336 128.587C547.33 128.593 547.336 128.589 547.337 128.577C547.339 128.568 547.335 128.573 547.344 128.595C547.353 128.618 547.374 128.652 547.412 128.69L546.712 129.404ZM548.632 127.487C548.82 127.513 549.004 127.558 549.178 127.615L548.868 128.565C548.745 128.525 548.618 128.495 548.493 128.477L548.632 127.487ZM549.179 127.615C549.588 127.749 549.964 127.961 550.237 128.2L549.576 128.951C549.418 128.811 549.164 128.662 548.867 128.565L549.179 127.615ZM550.237 128.2C550.504 128.436 550.563 128.759 550.489 129.036C550.422 129.283 550.258 129.484 550.081 129.615L549.485 128.812C549.5 128.801 549.512 128.788 549.52 128.778C549.528 128.767 549.526 128.765 549.523 128.777C549.519 128.789 549.514 128.821 549.526 128.863C549.538 128.908 549.562 128.938 549.576 128.951L550.237 128.2ZM550.081 129.615C549.939 129.72 549.785 129.799 549.63 129.86L549.264 128.93C549.356 128.893 549.429 128.853 549.486 128.811L550.081 129.615ZM549.633 129.859C549.156 130.05 548.595 130.089 548.089 130.016C547.59 129.944 547.068 129.753 546.712 129.404L547.412 128.69C547.563 128.838 547.854 128.972 548.231 129.026C548.602 129.079 548.98 129.044 549.261 128.931L549.633 129.859ZM547.145 127.572C547.652 127.402 548.185 127.425 548.632 127.487L548.493 128.477C548.106 128.423 547.754 128.423 547.463 128.52L547.145 127.572Z" fill="white" mask="url(#path-85-inside-4_1961_1658)"/>
<path d="M548.035 139.337L548.035 139.337L548.034 139.337C547.868 139.457 547.814 139.568 547.814 139.653C547.814 139.733 547.873 139.861 548.027 139.963C548.175 140.06 548.441 140.142 548.665 140.136C548.804 140.132 548.942 140.112 549.065 140.077L549.065 140.077L549.066 140.076C549.173 140.046 549.253 140.011 549.309 139.969L549.309 139.969L549.311 139.968C549.478 139.849 549.531 139.737 549.531 139.653C549.531 139.572 549.472 139.444 549.319 139.343C549.171 139.245 548.907 139.163 548.681 139.169C548.52 139.175 548.365 139.2 548.232 139.245L548.232 139.246L548.229 139.247C548.145 139.274 548.082 139.303 548.035 139.337ZM549.457 140.171C549.367 140.237 549.255 140.282 549.135 140.317L549.457 140.171Z" fill="#000D4C" stroke="white" stroke-width="0.5"/>
<path d="M552.943 184.054L552.821 183.836C553.056 183.704 553.127 183.495 553.089 183.34L553.089 183.34C553.03 183.098 552.885 182.866 552.636 182.653L552.636 182.652C552.379 182.433 552.03 182.303 551.577 182.194L551.577 182.193C551.18 182.097 550.808 182.074 550.558 182.226L550.558 182.227C550.443 182.296 550.368 182.43 550.353 182.611C550.337 182.792 550.387 182.989 550.485 183.134L550.278 183.274L550.485 183.134C550.522 183.188 550.567 183.242 550.617 183.294C550.637 183.314 550.645 183.322 550.65 183.328C550.654 183.333 550.656 183.335 550.664 183.342L550.664 183.342L550.669 183.346C551.053 183.702 551.58 183.916 552.286 183.947C552.517 183.956 552.693 183.908 552.821 183.836L552.943 184.054ZM552.943 184.054C553.26 183.876 553.4 183.561 553.332 183.28C553.258 182.98 553.08 182.704 552.799 182.463M552.943 184.054L552.799 182.463M552.799 182.463C552.495 182.203 552.098 182.062 551.636 181.95C551.235 181.853 550.771 181.803 550.428 182.013L552.799 182.463Z" fill="#000D4C" stroke="white" stroke-width="0.5"/>
<path d="M547.829 191.262L547.829 191.262L547.829 191.262C548.004 190.937 547.935 190.597 547.65 190.27L547.65 190.27C547.498 190.095 547.286 189.929 547.03 189.788C546.946 189.743 546.858 189.698 546.767 189.654C546.141 189.356 545.497 189.107 544.839 189.029C544.495 188.988 544.144 189.022 543.788 189.171L543.788 189.171C543.403 189.333 543.207 189.569 543.132 189.802C543.056 190.039 543.092 190.308 543.239 190.557L543.239 190.557C543.389 190.812 543.657 191.065 544.008 191.29C544.357 191.512 544.774 191.698 545.203 191.822C545.214 191.825 545.224 191.828 545.234 191.831C545.29 191.847 545.338 191.861 545.388 191.873L545.388 191.873L545.391 191.873C545.886 191.996 546.424 191.998 546.879 191.886C547.339 191.772 547.675 191.551 547.829 191.262Z" fill="#000D4C" stroke="white" stroke-width="0.5"/>
<path d="M550.013 178.486L550.013 178.486L550.011 178.487C549.888 178.574 549.863 178.646 549.863 178.687C549.863 178.726 549.895 178.811 550.004 178.883C550.11 178.953 550.305 179.014 550.47 179.009L550.47 179.009C550.672 179.003 550.845 178.959 550.942 178.889L550.942 178.889L550.943 178.888C551.067 178.8 551.092 178.728 551.092 178.687C551.092 178.649 551.059 178.563 550.95 178.491C550.845 178.422 550.649 178.36 550.485 178.365L550.484 178.365C550.282 178.371 550.109 178.416 550.013 178.486ZM551.088 179.091C550.932 179.204 550.7 179.253 550.477 179.259C550.262 179.265 550.015 179.19 549.866 179.091C549.71 178.988 549.613 178.834 549.613 178.687C549.613 178.532 549.71 178.394 549.866 178.283L551.088 179.091Z" fill="#000D4C" stroke="white" stroke-width="0.5"/>
<path d="M545.515 182.857C545.411 182.86 545.325 182.888 545.274 182.921C545.252 182.935 545.241 182.946 545.236 182.953C545.242 182.961 545.254 182.975 545.279 182.993C545.331 183.028 545.41 183.055 545.501 183.053C545.607 183.05 545.692 183.021 545.743 182.989C545.765 182.974 545.776 182.963 545.781 182.957C545.776 182.948 545.763 182.934 545.737 182.916C545.686 182.882 545.606 182.854 545.515 182.857ZM545.232 182.962C545.232 182.962 545.232 182.961 545.232 182.96L545.232 182.962ZM545.785 182.949C545.785 182.949 545.785 182.949 545.784 182.951C545.785 182.949 545.785 182.949 545.785 182.949Z" fill="#000D4C" stroke="white" stroke-width="0.5"/>
<path d="M544.291 196.018L544.291 196.018C544.505 196.013 544.689 195.965 544.794 195.89C544.925 195.795 544.955 195.717 544.955 195.668C544.955 195.621 544.919 195.53 544.802 195.452C544.689 195.378 544.482 195.313 544.305 195.318L544.305 195.318C544.091 195.324 543.906 195.372 543.802 195.447C543.671 195.541 543.641 195.619 543.641 195.668C543.641 195.716 543.678 195.808 543.794 195.884C543.906 195.958 544.116 196.023 544.291 196.018ZM544.94 196.093C544.776 196.21 544.532 196.262 544.298 196.268L544.298 195.068C544.525 195.062 544.783 195.14 544.94 195.244C545.106 195.353 545.205 195.515 545.205 195.668C545.205 195.831 545.103 195.975 544.94 196.093Z" fill="#000D4C" stroke="white" stroke-width="0.5"/>
<path opacity="0.18" d="M562.561 0H11C4.92487 0 0 4.92487 0 11V209.621C0 215.696 4.92487 220.621 11 220.621H562.561C568.636 220.621 573.561 215.696 573.561 209.621V11C573.561 4.92487 568.636 0 562.561 0Z" fill="url(#paint0_linear_1961_1658)"/>
<defs>
<linearGradient id="paint0_linear_1961_1658" x1="286.78" y1="6.31014" x2="286.78" y2="295.52" gradientUnits="userSpaceOnUse">
<stop offset="0.3245" stop-color="white"/>
<stop offset="0.4128" stop-color="#FCFEFF"/>
<stop offset="0.4845" stop-color="#F2FDFE"/>
<stop offset="0.5504" stop-color="#E1FAFD"/>
<stop offset="0.6128" stop-color="#C9F6FC"/>
<stop offset="0.6728" stop-color="#AAF1FB"/>
<stop offset="0.731" stop-color="#84EBF9"/>
<stop offset="0.7866" stop-color="#57E4F6"/>
<stop offset="0.8136" stop-color="#3FE0F5"/>
<stop offset="0.8318" stop-color="#44E1F5"/>
<stop offset="0.8527" stop-color="#52E3F6"/>
<stop offset="0.8748" stop-color="#68E7F7"/>
<stop offset="0.8978" stop-color="#89ECF9"/>
<stop offset="0.9215" stop-color="#B2F3FB"/>
<stop offset="0.9454" stop-color="#E4FBFE"/>
<stop offset="0.9573" stop-color="white"/>
</linearGradient>
</defs>
</svg>
