<svg width="148" height="106" viewBox="0 0 148 106" fill="none" xmlns="http://www.w3.org/2000/svg">
<path fill-rule="evenodd" clip-rule="evenodd" d="M116.16 72.8803C116.508 72.5782 116.943 72.3952 117.402 72.358L117.412 72.3572L135.779 71.0857C136.057 71.0665 136.336 71.1247 136.583 71.2539C136.827 71.3816 137.032 71.5737 137.175 71.8095C137.177 71.8119 137.178 71.8144 137.18 71.8168L137.181 71.8194C137.323 72.0582 137.397 72.3315 137.394 72.6095C137.391 72.8883 137.311 73.1608 137.162 73.3968L127.357 88.9987C127.107 89.3855 126.74 89.6823 126.31 89.8457C125.879 90.0091 125.408 90.0305 124.964 89.9068C124.521 89.7831 124.128 89.5208 123.844 89.1583C123.561 88.7957 123.4 88.3518 123.387 87.8915C123.386 87.8801 123.386 87.8687 123.386 87.8573L123.465 80.022L116.53 76.3968C116.52 76.3914 116.51 76.3858 116.5 76.38C116.101 76.1504 115.785 75.7992 115.6 75.3776C115.415 74.9561 115.369 74.4863 115.47 74.037C115.571 73.5877 115.812 73.1823 116.16 72.8803ZM134.244 72.5668L117.537 74.0793C117.447 74.0874 117.361 74.1238 117.293 74.1834C117.223 74.2438 117.175 74.3249 117.155 74.4148C117.135 74.5046 117.144 74.5986 117.181 74.6829C117.216 74.7633 117.275 74.8309 117.35 74.8768L124.478 78.4094L134.244 72.5668ZM125.328 79.9131L135.131 74.0482L125.904 88.0653C125.855 88.141 125.782 88.1992 125.697 88.2314C125.611 88.2641 125.517 88.2684 125.428 88.2436C125.339 88.2189 125.261 88.1664 125.204 88.0939C125.15 88.0247 125.118 87.9407 125.113 87.8531L125.328 79.9131Z" fill="#0771EF"/>
<path d="M66.8041 27.9937C57.4984 37.3631 41.0556 60.1456 49.7302 76.3205C60.5734 96.539 112.607 63.1769 92.4919 53.8504C72.3769 44.5239 52.819 97.4274 81.4309 96.1231C93.3208 94.7034 105.205 91.5599 116.816 84.1938" stroke="#0771EF" stroke-opacity="0.3" stroke-width="1.80395" stroke-dasharray="4.81 4.81"/>
<rect width="139.124" height="46.7743" rx="23.3872" fill="#0771EF"/>
<g opacity="0.4">
<rect x="19.8433" y="16.3809" width="88.9949" height="3.6079" rx="1.80395" fill="white"/>
</g>
<g opacity="0.4">
<rect x="30.667" y="27.2046" width="88.3936" height="3.6079" rx="1.80395" fill="white"/>
</g>
<path d="M32.3821 56.9683L22.7873 43.7755L41.9768 43.7755L32.3821 56.9683Z" fill="#0771EF"/>
</svg>
