<svg width="20" height="18" viewBox="0 0 20 18" fill="none" xmlns="http://www.w3.org/2000/svg">
<path d="M10.7112 0.382095C10.4665 0.13744 10.1346 0 9.78855 0C9.4425 0 9.11062 0.13744 8.86589 0.382095L0.191359 9.05532C0.130691 9.11599 0.0825659 9.18802 0.0497325 9.26728C0.0168991 9.34655 0 9.43151 0 9.51731C0 9.6031 0.0168991 9.68806 0.0497325 9.76733C0.0825659 9.84659 0.130691 9.91862 0.191359 9.97929C0.313884 10.1018 0.480063 10.1706 0.653339 10.1706C0.739137 10.1706 0.824095 10.1537 0.903361 10.1209C0.982628 10.0881 1.05465 10.04 1.11532 9.97929L1.95837 9.13493V16.0425C1.95837 16.5616 2.16461 17.0595 2.53172 17.4266C2.89883 17.7938 3.39674 18 3.91591 18H15.6612C16.1804 18 16.6783 17.7938 17.0454 17.4266C17.4125 17.0595 17.6187 16.5616 17.6187 16.0425V9.13493L18.4618 9.97929C18.5843 10.1018 18.7505 10.1706 18.9238 10.1706C19.097 10.1706 19.2632 10.1018 19.3857 9.97929C19.5083 9.85676 19.5771 9.69058 19.5771 9.51731C19.5771 9.34403 19.5083 9.17785 19.3857 9.05532L16.3137 5.98459V1.68713C16.3137 1.51407 16.245 1.3481 16.1226 1.22573C16.0002 1.10336 15.8342 1.03461 15.6612 1.03461H14.3562C14.1831 1.03461 14.0171 1.10336 13.8948 1.22573C13.7724 1.3481 13.7036 1.51407 13.7036 1.68713V3.37453L10.7112 0.382095ZM16.3137 7.8299V16.0425C16.3137 16.2155 16.245 16.3815 16.1226 16.5039C16.0002 16.6262 15.8342 16.695 15.6612 16.695H3.91591C3.74286 16.695 3.57689 16.6262 3.45452 16.5039C3.33215 16.3815 3.2634 16.2155 3.2634 16.0425V7.8299L9.78855 1.30475L16.3137 7.8299Z" fill="white"/>
</svg>
