<svg width="11" height="12" viewBox="0 0 11 12" fill="none" xmlns="http://www.w3.org/2000/svg">
<path fill-rule="evenodd" clip-rule="evenodd" d="M0 5.06467C0 2.76017 -7.28501e-08 1.60761 0.716222 0.892003C1.43183 0.175781 2.58439 0.175781 4.88889 0.175781H6.11111C8.41561 0.175781 9.56817 0.175781 10.2838 0.892003C11 1.60761 11 2.76017 11 5.06467V6.28689C11 8.59139 11 9.74395 10.2838 10.4596C9.56817 11.1758 8.41561 11.1758 6.11111 11.1758H4.88889C2.58439 11.1758 1.43183 11.1758 0.716222 10.4596C-7.28501e-08 9.74395 0 8.59139 0 6.28689V5.06467ZM9.16667 2.92578C9.16667 3.1689 9.07009 3.40205 8.89818 3.57396C8.72627 3.74587 8.49312 3.84245 8.25 3.84245C8.00688 3.84245 7.77373 3.74587 7.60182 3.57396C7.42991 3.40205 7.33333 3.1689 7.33333 2.92578C7.33333 2.68267 7.42991 2.44951 7.60182 2.2776C7.77373 2.10569 8.00688 2.00911 8.25 2.00911C8.49312 2.00911 8.72627 2.10569 8.89818 2.2776C9.07009 2.44951 9.16667 2.68267 9.16667 2.92578ZM6.72222 6.28689C6.72222 6.61105 6.59345 6.92192 6.36424 7.15113C6.13503 7.38034 5.82415 7.50911 5.5 7.50911C5.17585 7.50911 4.86497 7.38034 4.63576 7.15113C4.40655 6.92192 4.27778 6.61105 4.27778 6.28689C4.27778 5.96274 4.40655 5.65186 4.63576 5.42265C4.86497 5.19344 5.17585 5.06467 5.5 5.06467C5.82415 5.06467 6.13503 5.19344 6.36424 5.42265C6.59345 5.65186 6.72222 5.96274 6.72222 6.28689ZM7.94444 6.28689C7.94444 6.9352 7.68691 7.55695 7.22848 8.01538C6.77006 8.4738 6.14831 8.73134 5.5 8.73134C4.85169 8.73134 4.22994 8.4738 3.77152 8.01538C3.31309 7.55695 3.05556 6.9352 3.05556 6.28689C3.05556 5.63859 3.31309 5.01683 3.77152 4.55841C4.22994 4.09999 4.85169 3.84245 5.5 3.84245C6.14831 3.84245 6.77006 4.09999 7.22848 4.55841C7.68691 5.01683 7.94444 5.63859 7.94444 6.28689Z" fill="white"/>
</svg>
