<svg width="28" height="29" viewBox="0 0 28 29" fill="none" xmlns="http://www.w3.org/2000/svg">
<circle cx="14" cy="14.1758" r="14" fill="#fff"/>
<path d="M10.2143 9.17578C9.89224 9.17578 9.58338 9.30371 9.35566 9.53144C9.12793 9.75916 9 10.068 9 10.3901C9 10.7121 9.12793 11.021 9.35566 11.2487C9.58338 11.4764 9.89224 11.6044 10.2143 11.6044C10.5363 11.6044 10.8452 11.4764 11.0729 11.2487C11.3006 11.021 11.4286 10.7121 11.4286 10.3901C11.4286 10.068 11.3006 9.75916 11.0729 9.53144C10.8452 9.30371 10.5363 9.17578 10.2143 9.17578ZM9.07143 12.6044C9.05248 12.6044 9.03432 12.6119 9.02092 12.6253C9.00753 12.6387 9 12.6568 9 12.6758V20.1044C9 20.1438 9.032 20.1758 9.07143 20.1758H11.3571C11.3761 20.1758 11.3943 20.1683 11.4077 20.1549C11.421 20.1415 11.4286 20.1233 11.4286 20.1044V12.6758C11.4286 12.6568 11.421 12.6387 11.4077 12.6253C11.3943 12.6119 11.3761 12.6044 11.3571 12.6044H9.07143ZM12.7857 12.6044C12.7668 12.6044 12.7486 12.6119 12.7352 12.6253C12.7218 12.6387 12.7143 12.6568 12.7143 12.6758V20.1044C12.7143 20.1438 12.7463 20.1758 12.7857 20.1758H15.0714C15.0904 20.1758 15.1085 20.1683 15.1219 20.1549C15.1353 20.1415 15.1429 20.1233 15.1429 20.1044V16.1044C15.1429 15.8202 15.2557 15.5477 15.4567 15.3467C15.6576 15.1458 15.9301 15.0329 16.2143 15.0329C16.4984 15.0329 16.771 15.1458 16.9719 15.3467C17.1728 15.5477 17.2857 15.8202 17.2857 16.1044V20.1044C17.2857 20.1438 17.3177 20.1758 17.3571 20.1758H19.6429C19.6618 20.1758 19.68 20.1683 19.6934 20.1549C19.7068 20.1415 19.7143 20.1233 19.7143 20.1044V15.1786C19.7143 13.7918 18.5086 12.7072 17.1286 12.8324C16.7016 12.8712 16.2834 12.9769 15.8891 13.1455L15.1429 13.4655V12.6758C15.1429 12.6568 15.1353 12.6387 15.1219 12.6253C15.1085 12.6119 15.0904 12.6044 15.0714 12.6044H12.7857Z" fill="#03a1fd"/>
</svg>
