<svg width="11" height="12" viewBox="0 0 11 12" fill="none" xmlns="http://www.w3.org/2000/svg">
<path d="M1.21429 0.175781C0.892237 0.175781 0.583379 0.303715 0.355656 0.531437C0.127933 0.75916 0 1.06802 0 1.39007C0 1.71212 0.127933 2.02097 0.355656 2.2487C0.583379 2.47642 0.892237 2.60435 1.21429 2.60435C1.53633 2.60435 1.84519 2.47642 2.07292 2.2487C2.30064 2.02097 2.42857 1.71212 2.42857 1.39007C2.42857 1.06802 2.30064 0.75916 2.07292 0.531437C1.84519 0.303715 1.53633 0.175781 1.21429 0.175781ZM0.0714286 3.60435C0.0524845 3.60435 0.0343163 3.61188 0.0209209 3.62527C0.00752543 3.63867 0 3.65684 0 3.67578V11.1044C0 11.1438 0.032 11.1758 0.0714286 11.1758H2.35714C2.37609 11.1758 2.39426 11.1683 2.40765 11.1549C2.42105 11.1415 2.42857 11.1233 2.42857 11.1044V3.67578C2.42857 3.65684 2.42105 3.63867 2.40765 3.62527C2.39426 3.61188 2.37609 3.60435 2.35714 3.60435H0.0714286ZM3.78571 3.60435C3.76677 3.60435 3.7486 3.61188 3.73521 3.62527C3.72181 3.63867 3.71429 3.65684 3.71429 3.67578V11.1044C3.71429 11.1438 3.74629 11.1758 3.78571 11.1758H6.07143C6.09037 11.1758 6.10854 11.1683 6.12194 11.1549C6.13533 11.1415 6.14286 11.1233 6.14286 11.1044V7.10435C6.14286 6.82019 6.25574 6.54767 6.45667 6.34674C6.6576 6.14581 6.93013 6.03292 7.21429 6.03292C7.49845 6.03292 7.77097 6.14581 7.9719 6.34674C8.17283 6.54767 8.28572 6.82019 8.28572 7.10435V11.1044C8.28572 11.1438 8.31771 11.1758 8.35714 11.1758H10.6429C10.6618 11.1758 10.68 11.1683 10.6934 11.1549C10.7068 11.1415 10.7143 11.1233 10.7143 11.1044V6.17864C10.7143 4.79178 9.50857 3.70721 8.12857 3.83235C7.70159 3.87122 7.28335 3.97689 6.88914 4.1455L6.14286 4.4655V3.67578C6.14286 3.65684 6.13533 3.63867 6.12194 3.62527C6.10854 3.61188 6.09037 3.60435 6.07143 3.60435H3.78571Z" fill="white"/>
</svg>
