<svg width="159" height="41" viewBox="0 0 159 41" fill="none" xmlns="http://www.w3.org/2000/svg">
<path d="M0 27.9188V4.11133H20.9508V10.6128H6.08667V13.7753H19.6236V19.5821H6.08667V27.9188H0Z" fill="white"/>
<path d="M22.1582 27.9188V4.11133H28.6959V21.4174H42.9327V27.9188H22.1582Z" fill="white"/>
<path d="M44.0532 27.9181V21.1316L34.3321 4.10547H41.6579L45.7174 10.5602C45.7796 10.695 45.9248 10.9595 46.0907 11.255C46.3551 11.732 47.0291 13.1422 47.0291 13.1422L47.4283 13.1473C47.4283 13.1473 48.2838 11.6075 48.5637 11.1305C48.7037 10.8921 48.8281 10.6847 48.9007 10.5447L53.0898 4.11065H60.3845L50.6272 21.1679V27.9233H44.0532V27.9181Z" fill="white"/>
<path d="M63.3917 28.3693V23.0189L74.9533 12.012C75.0362 11.9291 75.6687 11.338 75.6687 11.338L75.451 10.9596C75.451 10.9596 74.3726 11.0322 74.0771 11.0322H63.3917V4.55664H86.0897V9.38865L74.0771 20.8154C73.9475 20.945 73.2061 21.4842 73.2061 21.4842L73.4497 21.9716C73.4497 21.9716 74.5281 21.9405 74.917 21.9405L86.0897 21.9094V28.3745H63.3917V28.3693Z" fill="white"/>
<path d="M129.754 28.3693L118.654 12.1935L118.203 12.3076C118.203 12.3076 118.297 15.0139 118.297 15.3872L118.26 28.3745H112.277V4.55664H119.245L130.439 20.3903L130.988 20.2555C130.988 20.2555 130.88 18.4979 130.88 18.0365V4.55664H136.863V28.3693H129.754Z" fill="white"/>
<path d="M138.121 28.3693V4.55664H158.999V11.0633H144.203V13.5259H158.999V19.3689H144.203V21.8679H158.999V28.3693H138.121Z" fill="white"/>
<path d="M103.696 4.17285H94.5923C87.7591 4.20396 87.1836 9.07226 87.1836 13.6399V19.6747C87.1836 19.6747 91.3986 19.2133 92.2696 19.2133L93.0681 19.2444V14.0909C93.0681 11.6645 93.2547 10.5188 94.9449 10.4721H103.365C105.05 10.5188 105.226 11.6127 105.226 14.0909V18.8348C105.226 20.9708 105.096 22.3707 103.38 22.3862L102.831 22.3914L102.131 28.6854H103.696C110.53 28.6854 111.1 23.8171 111.1 19.2547V13.6399C111.105 9.07226 110.53 4.20396 103.696 4.17285Z" fill="white"/>
<path d="M102.691 31.3193C103.085 28.7737 103.629 26.2384 103.842 23.6721C104.272 18.5238 103.837 13.417 102.385 8.43984C102.074 7.377 102.281 6.89484 103.246 6.34527C105.319 5.1632 106.305 3.2138 106.491 0.714844C104.293 3.69078 100.954 4.06925 97.7759 4.93507C93.846 6.00828 90.9945 8.36725 89.9939 12.5356C91.6011 10.3685 93.6905 8.96348 96.2931 8.28948C98.0715 13.5155 93.6801 18.4616 86.6758 19.2704C89.5895 22.0804 93.0217 21.6553 98.9425 17.6787C101.421 21.8938 101.815 26.5962 102.24 31.2934C102.385 31.2986 102.535 31.3089 102.691 31.3193Z" fill="url(#paint0_linear_63_4408)"/>
<path d="M98.5279 4.10052C99.8499 4.03312 100.591 3.42653 100.612 2.15631C100.633 0.880909 99.8551 0.180994 98.6575 0.175809C97.5324 0.170625 96.7651 0.886095 96.7184 2.03188C96.6666 3.25025 97.3873 3.94498 98.5279 4.10052Z" fill="url(#paint1_linear_63_4408)"/>
<path d="M98.3973 25.746C98.3973 27.2807 97.153 28.5301 95.6132 28.5301C94.0734 28.5301 92.8291 27.2858 92.8291 25.746C92.8291 24.2114 94.0734 22.9619 95.6132 22.9619C97.153 22.9619 98.3973 24.2062 98.3973 25.746Z" fill="url(#paint2_linear_63_4408)"/>
<path d="M19.8005 34.0566L22.9165 40.7344H22.1958L21.1433 38.5361H18.2711L17.229 40.7344H16.4824L19.6346 34.0566H19.8005ZM19.7176 35.472L18.5718 37.888H20.853L19.7176 35.472Z" fill="white"/>
<path d="M34.5966 35.2963L34.0678 35.7007C33.7775 35.3222 33.4301 35.0371 33.0205 34.8401C32.6109 34.6431 32.1651 34.5497 31.6777 34.5497C31.1437 34.5497 30.6512 34.6794 30.2001 34.9334C29.7439 35.1874 29.3965 35.5348 29.1477 35.9651C28.8988 36.3954 28.7744 36.8828 28.7744 37.422C28.7744 38.236 29.0543 38.9151 29.6091 39.4595C30.169 40.0039 30.8741 40.2787 31.7244 40.2787C32.6576 40.2787 33.4405 39.9106 34.0678 39.1795L34.5966 39.5788C34.2648 40.0039 33.8501 40.3305 33.3523 40.5638C32.8546 40.7971 32.2999 40.9112 31.6829 40.9112C30.5164 40.9112 29.5935 40.5223 28.9195 39.7447C28.3544 39.0862 28.0693 38.2982 28.0693 37.365C28.0693 36.3903 28.4114 35.5659 29.0958 34.8971C29.7802 34.2283 30.6408 33.8965 31.6725 33.8965C32.2947 33.8965 32.8598 34.0209 33.3627 34.2646C33.8656 34.5031 34.2752 34.8504 34.5966 35.2963Z" fill="white"/>
<path d="M36.3379 34.0566H37.1052L38.8161 36.8096L40.4959 34.0566H41.2684L39.1531 37.5407V40.7292H38.4947V37.5407L36.3379 34.0566Z" fill="white"/>
<path d="M43.3118 34.0566H44.6287C45.1575 34.0566 45.5619 34.1189 45.8471 34.2433C46.1322 34.3677 46.3552 34.5595 46.5211 34.824C46.687 35.0832 46.7699 35.3735 46.7699 35.6898C46.7699 35.9853 46.6973 36.2549 46.5522 36.4986C46.407 36.7422 46.1944 36.9393 45.9145 37.0896C46.2618 37.2089 46.5262 37.3488 46.7129 37.5044C46.8995 37.6651 47.0447 37.8569 47.1484 38.0799C47.2521 38.3028 47.3039 38.5517 47.3039 38.8109C47.3039 39.3449 47.1069 39.8011 46.7181 40.1692C46.3241 40.5425 45.8004 40.724 45.142 40.724H43.3066V34.0566H43.3118ZM43.9651 34.7099V36.8459H44.3487C44.8153 36.8459 45.1523 36.8045 45.3701 36.7163C45.5878 36.6282 45.7589 36.4934 45.8885 36.3067C46.013 36.1201 46.0804 35.9127 46.0804 35.6846C46.0804 35.3787 45.9715 35.1402 45.7589 34.9639C45.5464 34.7877 45.2042 34.7047 44.7376 34.7047H43.9651V34.7099ZM43.9651 37.5199V40.0811H44.7946C45.282 40.0811 45.6397 40.0344 45.8678 39.9359C46.0959 39.8426 46.2774 39.6923 46.4174 39.4901C46.5522 39.2879 46.6248 39.0701 46.6248 38.8316C46.6248 38.5361 46.5262 38.2769 46.3344 38.0539C46.1426 37.831 45.873 37.6806 45.536 37.5977C45.3079 37.5407 44.9139 37.5147 44.3487 37.5147H43.9651V37.5199Z" fill="white"/>
<path d="M49.5645 34.0566H53.3907V34.7099H50.2333V36.7993H53.3647V37.4577H50.2333V40.0759H53.3647V40.7292H49.5645V34.0566Z" fill="white"/>
<path d="M55.5117 34.0566H56.8441C57.5855 34.0566 58.0884 34.0877 58.3528 34.15C58.7469 34.2381 59.0683 34.4351 59.3172 34.7358C59.566 35.0313 59.6905 35.3994 59.6905 35.8401C59.6905 36.203 59.6075 36.5245 59.4364 36.7993C59.2653 37.0741 59.0217 37.2814 58.7054 37.4266C58.3892 37.5666 57.9485 37.6392 57.3885 37.6392L59.789 40.7395H58.9646L56.5642 37.6392H56.1857V40.7395H55.5169V34.0566H55.5117ZM56.1805 34.7099V36.9807L57.3315 36.9911C57.7774 36.9911 58.104 36.9496 58.3217 36.8667C58.5343 36.7837 58.7002 36.6489 58.8195 36.4623C58.9387 36.2756 59.0009 36.0683 59.0009 35.8401C59.0009 35.6172 58.9387 35.4098 58.8195 35.2284C58.7002 35.0469 58.5395 34.9121 58.3425 34.8343C58.1455 34.7566 57.8188 34.7151 57.3626 34.7151H56.1805V34.7099Z" fill="white"/>
<path d="M68.4829 35.1764L67.9644 35.6689C67.5911 35.3008 67.1867 35.026 66.7409 34.8342C66.295 34.6476 65.8647 34.5491 65.4447 34.5491C64.9211 34.5491 64.4234 34.6787 63.9516 34.9327C63.4798 35.192 63.1117 35.5393 62.8524 35.98C62.5932 36.4207 62.4636 36.8873 62.4636 37.3746C62.4636 37.8776 62.5984 38.3545 62.868 38.8056C63.1376 39.2566 63.5109 39.6144 63.9827 39.8736C64.4545 40.1328 64.9781 40.2624 65.5432 40.2624C66.2276 40.2624 66.8082 40.0706 67.2852 39.6818C67.7622 39.2929 68.0422 38.7952 68.1303 38.1731H65.9994V37.5302H68.8769C68.8717 38.5619 68.5658 39.3811 67.9592 39.9877C67.3526 40.5943 66.5387 40.9001 65.5225 40.9001C64.2886 40.9001 63.3087 40.4802 62.5932 39.6403C62.0385 38.9922 61.7637 38.2457 61.7637 37.3954C61.7637 36.7629 61.9244 36.177 62.2406 35.6275C62.5569 35.0831 62.9924 34.6579 63.5472 34.3521C64.1019 34.0462 64.7292 33.8906 65.424 33.8906C65.9891 33.8906 66.5231 33.9943 67.0208 34.1965C67.5237 34.3987 68.0111 34.7253 68.4829 35.1764Z" fill="white"/>
<path d="M71.0859 34.0566H74.9121V34.7099H71.7548V36.7993H74.8862V37.4577H71.7548V40.0759H74.8862V40.7292H71.0859V34.0566Z" fill="white"/>
<path d="M76.9961 40.7292V34.0566H77.1413L81.5844 39.1738V34.0566H82.2429V40.7292H82.0925L77.6856 35.6742V40.7292H76.9961Z" fill="white"/>
<path d="M94.5195 35.2963L93.9907 35.7007C93.7004 35.3222 93.353 35.0371 92.9434 34.8401C92.5339 34.6431 92.088 34.5497 91.6006 34.5497C91.0666 34.5497 90.5741 34.6794 90.123 34.9334C89.6668 35.1874 89.3194 35.5348 89.0706 35.9651C88.8217 36.3954 88.6973 36.8828 88.6973 37.422C88.6973 38.236 88.9773 38.9151 89.532 39.4595C90.0919 40.0039 90.7918 40.2787 91.6473 40.2787C92.5805 40.2787 93.3634 39.9106 93.9907 39.1795L94.5195 39.5788C94.1877 40.0039 93.773 40.3305 93.2753 40.5638C92.7775 40.7971 92.2228 40.9112 91.6058 40.9112C90.4393 40.9112 89.5164 40.5223 88.8424 39.7447C88.2773 39.0862 87.9922 38.2982 87.9922 37.365C87.9922 36.3903 88.3344 35.5659 89.0187 34.8971C89.7031 34.2283 90.5637 33.8965 91.5954 33.8965C92.2176 33.8965 92.7827 34.0209 93.2856 34.2646C93.7833 34.5031 94.1981 34.8504 94.5195 35.2963Z" fill="white"/>
<path d="M99.9639 33.8857C100.975 33.8857 101.82 34.2227 102.504 34.8967C103.189 35.5707 103.526 36.4003 103.526 37.3905C103.526 38.3652 103.184 39.1947 102.504 39.8791C101.825 40.5583 100.996 40.9004 100.016 40.9004C99.0255 40.9004 98.1908 40.5635 97.5116 39.8843C96.8272 39.2051 96.4902 38.3859 96.4902 37.4268C96.4902 36.7839 96.6458 36.1929 96.9569 35.6433C97.2679 35.0937 97.6931 34.6686 98.2271 34.3575C98.7611 34.0413 99.3417 33.8857 99.9639 33.8857ZM99.995 34.539C99.5025 34.539 99.0307 34.6686 98.59 34.9227C98.1493 35.1819 97.8019 35.5292 97.5531 35.9648C97.3042 36.4003 97.1798 36.8876 97.1798 37.4216C97.1798 38.2148 97.4546 38.8837 98.0041 39.4332C98.5537 39.9776 99.2173 40.2524 99.995 40.2524C100.513 40.2524 100.99 40.128 101.431 39.8739C101.872 39.6199 102.214 39.2777 102.463 38.8422C102.712 38.4067 102.831 37.9193 102.831 37.3905C102.831 36.8617 102.707 36.3795 102.463 35.9544C102.214 35.5241 101.867 35.1819 101.421 34.9278C100.975 34.6634 100.498 34.539 99.995 34.539Z" fill="white"/>
<path d="M105.49 40.7292L106.444 34.0566H106.553L109.27 39.5315L111.955 34.0566H112.064L113.023 40.7292H112.37L111.712 35.9594L109.348 40.7292H109.176L106.792 35.9231L106.133 40.7292H105.49Z" fill="white"/>
<path d="M115.258 34.0566H116.585C117.347 34.0566 117.86 34.0877 118.13 34.1551C118.509 34.2485 118.82 34.4403 119.063 34.7358C119.302 35.0262 119.426 35.3943 119.426 35.8349C119.426 36.2808 119.307 36.6437 119.074 36.9341C118.84 37.2244 118.514 37.4162 118.099 37.5199C117.793 37.5925 117.233 37.6288 116.404 37.6288H115.927V40.7344H115.258V34.0566ZM115.927 34.7099V36.9755L117.057 36.9911C117.513 36.9911 117.845 36.9496 118.057 36.8667C118.27 36.7837 118.436 36.6489 118.555 36.4623C118.674 36.2756 118.737 36.0683 118.737 35.8401C118.737 35.6172 118.674 35.4098 118.555 35.2284C118.431 35.0417 118.275 34.9121 118.078 34.8343C117.881 34.7566 117.555 34.7151 117.104 34.7151H115.927V34.7099Z" fill="white"/>
<path d="M124.42 34.0566L127.536 40.7344H126.815L125.762 38.5361H122.885L121.843 40.7344H121.102L124.254 34.0566H124.42ZM124.337 35.472L123.191 37.888H125.472L124.337 35.472Z" fill="white"/>
<path d="M129.506 40.7292V34.0566H129.651L134.094 39.1738V34.0566H134.753V40.7292H134.602L130.195 35.6742V40.7292H129.506Z" fill="white"/>
<path d="M136.773 34.0566H137.546L139.252 36.8096L140.931 34.0566H141.704L139.589 37.5407V40.7292H138.93V37.5407L136.773 34.0566Z" fill="white"/>
<path d="M13.4695 37.1572H0V38.8992H13.4695V37.1572Z" fill="url(#paint3_linear_63_4408)"/>
<path d="M159 37.1572H145.023V38.8992H159V37.1572Z" fill="url(#paint4_linear_63_4408)"/>
<defs>
<linearGradient id="paint0_linear_63_4408" x1="86.6758" y1="16.0171" x2="106.491" y2="16.0171" gradientUnits="userSpaceOnUse">
<stop stop-color="#0C3DF2"/>
<stop offset="1" stop-color="#01B5FF"/>
</linearGradient>
<linearGradient id="paint1_linear_63_4408" x1="96.7158" y1="2.13815" x2="100.612" y2="2.13815" gradientUnits="userSpaceOnUse">
<stop stop-color="#0C3DF2"/>
<stop offset="1" stop-color="#01B5FF"/>
</linearGradient>
<linearGradient id="paint2_linear_63_4408" x1="92.8291" y1="25.746" x2="98.3973" y2="25.746" gradientUnits="userSpaceOnUse">
<stop stop-color="#0C3DF2"/>
<stop offset="1" stop-color="#01B5FF"/>
</linearGradient>
<linearGradient id="paint3_linear_63_4408" x1="0" y1="38.0282" x2="13.4695" y2="38.0282" gradientUnits="userSpaceOnUse">
<stop stop-color="#0C3DF2"/>
<stop offset="1" stop-color="#01B5FF"/>
</linearGradient>
<linearGradient id="paint4_linear_63_4408" x1="145.023" y1="38.0282" x2="159" y2="38.0282" gradientUnits="userSpaceOnUse">
<stop stop-color="#0C3DF2"/>
<stop offset="1" stop-color="#01B5FF"/>
</linearGradient>
</defs>
</svg>
