<svg width="13" height="19" viewBox="0 0 13 19" fill="none" xmlns="http://www.w3.org/2000/svg">
<path fill-rule="evenodd" clip-rule="evenodd" d="M1.38462 2.2527C1.38462 2.06909 1.45755 1.893 1.58739 1.76317C1.71722 1.63334 1.89331 1.5604 2.07692 1.5604H10.3846C10.5682 1.5604 10.7443 1.63334 10.8742 1.76317C11.004 1.893 11.0769 2.06909 11.0769 2.2527V16.0989C11.0769 16.2825 11.004 16.4586 10.8742 16.5884C10.7443 16.7182 10.5682 16.7912 10.3846 16.7912H2.07692C1.89331 16.7912 1.71722 16.7182 1.58739 16.5884C1.45755 16.4586 1.38462 16.2825 1.38462 16.0989V2.2527ZM2.07692 0.175781C1.52609 0.175781 0.997815 0.394599 0.608317 0.784098C0.218818 1.1736 0 1.70187 0 2.2527V16.0989C0 16.6497 0.218818 17.178 0.608317 17.5675C0.997815 17.957 1.52609 18.1758 2.07692 18.1758H10.3846C10.9354 18.1758 11.4637 17.957 11.8532 17.5675C12.2427 17.178 12.4615 16.6497 12.4615 16.0989V2.2527C12.4615 1.70187 12.2427 1.1736 11.8532 0.784098C11.4637 0.394599 10.9354 0.175781 10.3846 0.175781H2.07692ZM4.15385 14.9219C4.02532 14.9219 3.90205 14.973 3.81117 15.0639C3.72029 15.1548 3.66923 15.278 3.66923 15.4066C3.66923 15.5351 3.72029 15.6583 3.81117 15.7492C3.90205 15.8401 4.02532 15.8912 4.15385 15.8912H8.30769C8.43622 15.8912 8.55948 15.8401 8.65037 15.7492C8.74125 15.6583 8.79231 15.5351 8.79231 15.4066C8.79231 15.278 8.74125 15.1548 8.65037 15.0639C8.55948 14.973 8.43622 14.9219 8.30769 14.9219H4.15385Z" fill="white"/>
</svg>
