<svg width="149" height="33" viewBox="0 0 149 33" fill="none" xmlns="http://www.w3.org/2000/svg">
<path d="M57.0929 2.62665C56.8269 2.71344 56.3163 2.92126 55.9584 3.0886C55.6004 3.25595 54.4143 3.46848 53.3223 3.56114L51.3369 3.72924L53.123 3.75552L54.9091 3.78181L54.3101 4.39994C53.9805 4.73992 53.5939 5.35693 53.4507 5.77084L53.1907 6.52361L51.6966 6.66071C49.5126 6.86095 49.4156 6.94964 51.353 6.97441L53.071 6.99634L53.3728 8.08077C53.5388 8.67716 53.657 9.18279 53.6357 9.20435C53.6141 9.22571 52.1946 9.32064 50.4813 9.41518L47.3661 9.58707L50.6672 9.61543L53.9683 9.6436L54.7131 10.3527C55.1856 10.8023 55.4119 10.9319 55.3321 10.7065C54.7032 8.93092 54.704 6.95795 55.3338 6.09041C55.9535 5.23667 57.282 4.69247 58.7686 4.68301C61.2114 4.66769 61.7758 5.27751 62.0084 8.1825C62.12 9.57553 62.2795 10.3905 62.5223 10.8063C62.9606 11.5568 63.2736 11.6756 63.439 11.1542C63.6531 10.4803 64.6495 9.48969 65.3446 9.26032C65.8973 9.07804 66.2171 9.1081 67.3368 9.44827C68.0705 9.67102 68.7495 9.82721 68.8457 9.79506C69.1364 9.69825 67.7848 7.13211 67.1226 6.52361L66.5052 5.95634L67.0415 6.88704L67.5779 7.81794L66.9485 7.45432C66.6024 7.25445 65.4329 6.26097 64.3498 5.2465C61.8426 2.89819 61.2691 2.59602 59.184 2.52435C58.3 2.49391 57.3589 2.54005 57.0929 2.62665Z" fill="white"/>
<path d="M59.846 8.427C59.4726 9.2138 59.0235 10.4051 58.848 11.0743L58.5288 12.2909L55.8784 12.3149C54.4205 12.3279 51.3558 12.3977 49.0679 12.4696C44.9335 12.5995 44.9494 12.6004 51.6678 12.6346C58.3271 12.6685 58.4277 12.6747 58.4277 13.0535C58.4277 13.5016 57.691 15.0158 57.1421 15.6964C56.7811 16.1436 56.6113 16.1776 53.7659 16.3745L50.7697 16.5819L53.6016 16.6108L56.4337 16.6399L55.9506 17.1231C55.4834 17.5903 55.3597 17.6109 52.1733 17.7561L48.8788 17.9061L51.9951 17.9348L55.1115 17.9636L54.4996 18.5753L53.8879 19.1872L50.2487 19.3982L46.6098 19.6092L49.777 19.6372C51.5188 19.6527 52.9442 19.7344 52.9442 19.8189C52.9442 20.001 52.3574 20.4467 49.8242 22.1897C47.6843 23.662 47.8789 23.6938 51.1683 22.4098C54.6734 21.0416 56.5243 20.0161 59.4215 17.8378L61.2662 16.4509L63.6759 16.4554C65.0013 16.458 66.4686 16.5473 66.9365 16.6539C68.1227 16.924 69.1273 17.6382 69.7899 18.6821L70.3539 19.5708L70.2996 17.5924L70.2456 15.6139L69.6168 15.1908C68.9144 14.718 67.6827 14.3262 65.4842 13.8762C63.6026 13.491 62.1449 12.8073 61.5542 12.0328C60.8816 11.1508 60.466 9.40705 60.6131 8.08361C60.6795 7.48571 60.6869 6.99634 60.6294 6.99634C60.5719 6.99634 60.2193 7.64019 59.846 8.427Z" fill="white"/>
<path d="M64.7431 0.642907C64.0091 1.37696 63.8909 2.26133 64.3964 3.23874C65.324 5.03264 68.2601 4.28308 68.2601 2.25244C68.2601 0.803067 67.4815 0 66.0762 0C65.5434 0 65.2395 0.146545 64.7431 0.642907Z" fill="white"/>
<path d="M0 29.7817V30.6326H6.33439H12.6688V29.7817C12.6688 29.7817 12.9041 28.884 12.5718 28.884C7.34706 28.884 8.80812 28.9308 6.33439 28.9308H0V29.7817Z" fill="white"/>
<path fill-rule="evenodd" clip-rule="evenodd" d="M92.9892 4.15999C93.6535 3.11602 95.1047 2.27513 96.6059 2.06449C97.1873 1.98299 99.6646 1.93799 102.111 1.96465C106.419 2.01154 106.592 2.02799 107.594 2.49108C108.899 3.09333 109.594 3.78597 110.218 5.10544C110.704 6.13239 110.711 6.20916 110.771 11.193C110.82 15.2791 110.776 16.458 110.539 17.3817C110.016 19.4266 108.992 20.5709 107.117 21.2055C106.075 21.5586 96.6976 21.5705 95.5438 21.2203C94.2941 20.841 93.1991 19.8859 92.5585 18.6163L91.9905 17.4908L91.9298 12.2434C91.8632 6.46897 91.9521 5.79032 92.9892 4.15999ZM0 20.989V11.6291V2.26908H8.3198H16.6396V5.01089V7.7527H10.967H5.29442V8.69815V9.6436H10.3997H15.5051V12.1018V14.56H10.3997H5.29442V17.7745V20.989H2.64721H0ZM17.585 20.989V11.6291V2.26908H20.3268H23.0685V8.88724V15.5054H28.552H34.0355V18.2472V20.989H25.8103H17.585ZM31.5774 9.02944C29.4975 5.39096 27.7957 2.3814 27.7957 2.34151C27.7957 2.30161 29.1915 2.26908 30.8973 2.26908H33.999L35.7033 4.96362C36.6406 6.44571 37.5561 7.97337 37.7378 8.35854L38.0682 9.05912L38.7587 7.88582C39.1386 7.24064 40.1009 5.71298 40.8971 4.49089L42.3449 2.26908H45.4768C48.4016 2.26908 48.5967 2.29102 48.4295 2.59999C48.331 2.78208 46.6262 5.7699 44.641 9.23971L41.0317 15.5483V18.2688V20.989H38.1954H35.3591V18.317V15.6451L31.5774 9.02944ZM72.9873 7.96051V5.11489V2.26908H81.8744H90.7614V4.41337V6.55765L87.4997 9.66554C85.7058 11.3747 83.5413 13.4305 82.6899 14.2338L81.142 15.6945H85.9516H90.7614V18.4363V21.1781H81.8744H72.9873V18.8313V16.4843L74.1884 15.3804C74.8491 14.7731 76.9126 12.8298 78.7737 11.0618L82.158 7.84725L77.5726 7.90397L72.9873 7.96051ZM111.75 11.8497C111.75 6.71895 111.807 2.46441 111.876 2.39521C111.945 2.32581 113.253 2.26908 114.782 2.26908H117.562L121.446 7.62544C123.582 10.5715 125.508 13.2732 125.725 13.6291L126.119 14.2763L126.12 8.2727L126.121 2.26908H128.673H131.226V11.7283V21.1878L128.252 21.1356L125.279 21.0836L121.332 15.5054C119.161 12.4374 117.287 9.70506 117.168 9.43334C116.999 9.05156 116.964 10.3266 117.013 15.0588L117.076 21.1781H114.413H111.75V11.8497ZM140.775 21.1781H132.549V11.7236V2.26908H140.775H149V5.10544V7.94179H143.327H137.655V8.60361V9.26542H143.327H149V11.7236V14.1818H143.327H137.655V14.9381V15.6945H143.327H149V18.4363V21.1781H140.775ZM97.0958 11.7236C97.0958 9.00561 97.1557 8.1167 97.3552 7.87637C97.5806 7.60483 98.1063 7.56361 101.35 7.56361C104.594 7.56361 105.12 7.60483 105.345 7.87637C105.545 8.1167 105.605 9.00561 105.605 11.7236C105.605 14.4416 105.545 15.3305 105.345 15.5708C105.12 15.8424 104.594 15.8836 101.35 15.8836C98.1063 15.8836 97.5806 15.8424 97.3552 15.5708C97.1557 15.3305 97.0958 14.4416 97.0958 11.7236ZM25.951 29.0172C26.0232 27.6732 26.5135 26.8491 27.5745 26.2886C28.518 25.7902 30.0462 25.7917 31.027 26.2921C31.8314 26.7026 32.1273 27.1329 31.8175 27.4427C31.6926 27.5677 31.3891 27.468 30.9152 27.1464C29.0673 25.8923 26.6597 27.0845 26.6619 29.2523C26.664 31.3468 29.1051 32.511 30.9167 31.2814C31.5475 30.8535 31.6655 30.8289 31.9113 31.0745C32.1571 31.3203 32.0957 31.416 31.394 31.8804C29.6847 33.0116 27.2609 32.5508 26.3235 30.9163C25.974 30.3072 25.9014 29.9373 25.951 29.0172ZM57.4822 29.1292C57.4822 27.7048 57.9922 26.8743 59.2789 26.2032C60.3715 25.6336 62.3605 25.8916 63.4192 26.7404C63.7138 26.9764 63.7355 27.0794 63.5409 27.3139C63.3322 27.5656 63.2083 27.5436 62.5036 27.1307C60.5018 25.9576 58.2371 27.0842 58.2393 29.2523C58.2407 30.688 59.4374 31.7672 61.0282 31.7672C61.8879 31.7672 62.9404 31.142 63.1771 30.4908C63.3242 30.086 63.2862 30.0654 62.3924 30.0654C61.5792 30.0654 61.453 30.0147 61.453 29.6872C61.453 29.3443 61.5792 29.309 62.8016 29.309H64.15L64.052 30.0393C63.8327 31.6747 62.531 32.6196 60.6814 32.4859C58.664 32.3399 57.4822 31.0999 57.4822 29.1292ZM81.9695 28.5698C82.1219 27.7471 82.8423 26.7578 83.6454 26.2682C84.3542 25.8358 85.9473 25.7834 86.8439 26.1629C87.5749 26.4723 88.1989 27.128 88.027 27.4062C87.8327 27.7206 87.5545 27.6471 86.9215 27.1144C86.4045 26.6793 86.2078 26.6311 85.2395 26.7011C84.3497 26.7655 84.0356 26.8833 83.5729 27.3266C82.455 28.3978 82.4613 30.0372 83.5873 31.1161C84.1024 31.6095 84.3009 31.6726 85.3377 31.6726C86.2362 31.6726 86.6407 31.5773 87.0846 31.2606C87.466 30.9885 87.7527 30.9042 87.928 31.0127C88.1501 31.1498 88.1378 31.2387 87.8531 31.5531C87.0232 32.4702 85.1768 32.8024 83.8921 32.2656C82.6131 31.7312 81.7065 29.9884 81.9695 28.5698ZM93.538 32.4812C89.985 32.776 88.5183 28.3467 91.503 26.3354C91.971 26.02 92.4131 25.9054 93.1624 25.9054C94.3629 25.9054 95.0276 26.2077 95.8259 27.1169C97.5345 29.0628 96.1697 32.263 93.538 32.4812ZM15.4529 32.3344C14.9961 32.3344 15.0354 32.2197 16.6472 28.8338C17.3644 27.3271 18.0269 26.0945 18.1194 26.0945C18.2118 26.0945 18.6513 26.8815 19.0958 27.8435C19.3037 28.2932 19.4913 28.6983 19.6603 29.0632C20.8806 31.698 21.1299 32.2363 21.0157 32.3296C20.9863 32.3536 20.933 32.3482 20.8661 32.3414C20.83 32.3378 20.7899 32.3337 20.7475 32.3337C20.4264 32.3333 20.2148 32.0981 19.8541 31.341L19.3813 30.349L18.1071 30.2932L16.833 30.2372L16.3187 31.2859C15.9697 31.9975 15.6915 32.3344 15.4529 32.3344ZM34.7255 27.9067C34.273 27.17 33.8427 26.4609 33.7689 26.3308C33.6785 26.171 33.7765 26.0954 34.0717 26.0973C34.4039 26.0994 34.6665 26.3701 35.17 27.229C35.534 27.85 35.8895 28.3592 35.9601 28.3607C36.0304 28.3622 36.3982 27.853 36.7773 27.229C37.2364 26.473 37.5881 26.0945 37.8309 26.0945C38.0315 26.0945 38.1954 26.1465 38.1954 26.21C38.1954 26.2735 37.77 27.0299 37.25 27.8908C36.3354 29.405 36.3046 29.503 36.3046 30.8953C36.3046 32.2083 36.2715 32.3344 35.9264 32.3344C35.579 32.3344 35.5482 32.2083 35.5482 30.7903C35.5482 29.2994 35.5199 29.2001 34.7255 27.9067ZM40.0863 32.3344V29.2144V26.0945H41.3239C42.386 26.0945 42.6274 26.1603 43.0256 26.5587C43.5532 27.086 43.6315 27.8882 43.2136 28.4846C42.9627 28.8429 42.9786 28.9174 43.3868 29.3011C44.0023 29.8791 44.1271 30.5226 43.7699 31.2755C43.3845 32.0873 42.8097 32.3344 41.3065 32.3344H40.0863ZM45.948 32.3344V29.2144V26.0945H47.8388C49.3935 26.0945 49.7297 26.1449 49.7297 26.3781C49.7297 26.6065 49.4355 26.6617 48.217 26.6617H46.7043V27.6072V28.5526H48.217C49.6036 28.5526 49.7297 28.5842 49.7297 28.9308C49.7297 29.2774 49.6036 29.309 48.217 29.309H46.7043V30.4356V31.5622L48.1677 31.6174C49.385 31.6634 49.6418 31.7282 49.6941 32.0035C49.7511 32.301 49.5648 32.3344 47.8526 32.3344H45.948ZM51.9042 32.3344C51.6635 32.3344 51.6206 31.8617 51.6206 29.2144V26.0945L53.086 26.1005C54.6038 26.1067 54.9842 26.2531 55.3715 26.9802C55.9107 27.9929 55.2818 29.1912 54.0857 29.4306L53.5158 29.5444L54.4273 30.7031C55.671 32.2836 55.6944 32.3346 55.1771 32.3333C54.8577 32.3325 54.4466 31.9517 53.6464 30.9151C53.0448 30.1357 52.4703 29.4981 52.3701 29.4981C52.2693 29.4981 52.1878 30.1321 52.1878 30.9163C52.1878 32.0508 52.1311 32.3344 51.9042 32.3344ZM66.1802 32.3344V29.2144V26.0945H67.9765C69.4472 26.0945 69.7728 26.1459 69.7728 26.3781C69.7728 26.605 69.4892 26.6617 68.3547 26.6617H66.9365V27.6072V28.5526H68.3547C69.6467 28.5526 69.7728 28.5863 69.7728 28.9308C69.7728 29.2753 69.6467 29.309 68.3547 29.309H66.9365V30.4435V31.5781H68.3547C69.6467 31.5781 69.7728 31.6117 69.7728 31.9563C69.7728 32.308 69.6467 32.3344 67.9765 32.3344H66.1802ZM72.0419 32.3344C71.679 32.3344 71.6637 32.2083 71.6637 29.2144C71.6637 27.4984 71.732 26.0945 71.8152 26.0945C71.8986 26.0945 72.8557 27.1292 73.9424 28.3936L75.9181 30.6928L75.9713 28.3936C76.0144 26.5214 76.0758 26.0945 76.3022 26.0945C76.5353 26.0945 76.5799 26.5963 76.5799 29.2144C76.5799 30.9304 76.5444 32.3344 76.5009 32.3344C76.4574 32.3344 75.5214 31.3094 74.421 30.0567L72.4201 27.7789V30.0567C72.4201 32.2083 72.3991 32.3344 72.0419 32.3344ZM98.8033 28.8363C98.9715 27.5883 99.1449 26.4554 99.1884 26.3189C99.3246 25.8918 99.5214 26.1837 100.682 28.5358C101.303 29.7931 101.857 30.8217 101.915 30.8217C101.972 30.8217 102.554 29.7482 103.207 28.4363C103.861 27.1244 104.439 26.095 104.493 26.1487C104.547 26.2024 104.753 27.3822 104.951 28.7703C105.15 30.1586 105.355 31.5285 105.407 31.8144C105.482 32.2319 105.43 32.3344 105.142 32.3344C104.745 32.3344 104.691 32.1548 104.379 29.7946C104.27 28.9698 104.156 28.2703 104.127 28.2406C104.097 28.2108 103.612 29.1197 103.049 30.2605C102.486 31.4011 101.958 32.3344 101.876 32.3344C101.794 32.3344 101.282 31.441 100.739 30.349C100.196 29.257 99.7016 28.3635 99.6409 28.3635C99.5802 28.3635 99.4214 29.257 99.2881 30.349C99.0699 32.1336 99.0067 32.3344 98.6641 32.3344C98.3379 32.3344 98.2982 32.2456 98.3899 31.7199C98.4489 31.3818 98.635 30.0843 98.8033 28.8363ZM107.779 32.3344C107.416 32.3344 107.401 32.2083 107.401 29.2144V26.0945H108.888C110.774 26.0945 111.372 26.4647 111.372 27.6333C111.372 28.0487 111.288 28.5441 111.187 28.7343C110.949 29.1783 110.026 29.4981 108.98 29.4981H108.157V30.9163C108.157 32.2083 108.124 32.3344 107.779 32.3344ZM113.956 30.1126C114.537 28.8907 115.189 27.4867 115.404 26.9926C115.619 26.4985 115.885 26.0977 115.995 26.1015C116.172 26.1079 118.944 31.8437 118.938 32.1926C118.936 32.2707 118.783 32.3344 118.596 32.3344C118.374 32.3344 118.083 31.9782 117.748 31.2944L117.238 30.2544H116.004H114.771L114.261 31.2944C113.868 32.0966 113.654 32.3344 113.325 32.3344C112.919 32.3344 112.948 32.2314 113.956 30.1126ZM121.198 32.3344C120.843 32.3344 120.826 32.1917 120.826 29.2144C120.826 27.4984 120.89 26.095 120.968 26.0956C121.046 26.0962 121.961 27.0883 123.001 28.3004L124.891 30.5042L124.945 28.2992C124.994 26.2505 125.024 26.0945 125.37 26.0945C125.725 26.0945 125.742 26.2372 125.742 29.2144C125.742 30.9304 125.679 32.3288 125.601 32.3218C125.522 32.315 124.608 31.323 123.568 30.1175L121.677 27.9258L121.624 30.1302C121.574 32.1784 121.544 32.3344 121.198 32.3344ZM128.701 27.9067C128.249 27.17 127.819 26.4609 127.745 26.3308C127.654 26.171 127.752 26.0954 128.048 26.0973C128.38 26.0994 128.642 26.3701 129.146 27.229C129.51 27.85 129.865 28.3592 129.936 28.3607C130.006 28.3622 130.374 27.853 130.753 27.229C131.212 26.473 131.564 26.0945 131.807 26.0945C132.007 26.0945 132.171 26.1465 132.171 26.21C132.171 26.2735 131.746 27.0299 131.226 27.8908C130.311 29.405 130.28 29.503 130.28 30.8953C130.28 32.2083 130.247 32.3344 129.902 32.3344C129.555 32.3344 129.524 32.2083 129.524 30.7903C129.524 29.2994 129.496 29.2001 128.701 27.9067ZM40.8426 28.5526V27.5824V26.6122L41.5213 26.7224C41.8945 26.7829 42.32 26.9321 42.4667 27.0539C43.1105 27.5883 42.4726 28.5526 41.4751 28.5526H40.8426ZM52.1878 27.8278C52.1878 27.3251 52.2445 26.8571 52.3139 26.7879C52.5051 26.5967 53.4216 26.637 54.0153 26.8627C55.4845 27.4213 54.8647 28.7417 53.1332 28.7417H52.1878V27.8278ZM91.5289 31.1161C90.3587 29.9948 90.3988 28.3199 91.6216 27.2462C92.9355 26.0924 94.9639 26.6211 95.5984 28.2828C96.004 29.3449 95.7762 30.2864 94.9132 31.1133C94.4017 31.6032 94.1914 31.6726 93.2195 31.6726C92.249 31.6726 92.037 31.6028 91.5289 31.1161ZM108.157 28.7417V27.6777V26.6137L109.097 26.7039C110.226 26.8124 110.615 27.0964 110.615 27.8127C110.615 28.4825 110.171 28.7417 109.021 28.7417H108.157ZM17.2604 29.4508C17.3122 29.3209 17.5007 28.8527 17.6794 28.4108C17.8581 27.9687 18.0405 27.6072 18.085 27.6072C18.1863 27.6072 18.9086 29.2789 18.9086 29.5138C18.9086 29.6091 18.5167 29.6872 18.0375 29.6872C17.4165 29.6872 17.1934 29.6193 17.2604 29.4508ZM115.154 29.5032C115.154 29.4018 115.342 28.9314 115.572 28.4573L115.991 27.5956L116.415 28.4049C117.025 29.5707 116.987 29.6872 116.004 29.6872C115.536 29.6872 115.154 29.6044 115.154 29.5032ZM40.8426 31.5781V30.4435C40.8426 29.3555 40.8623 29.309 41.3214 29.309C42.0734 29.309 43.109 29.8167 43.134 30.1975C43.2015 31.2232 42.8218 31.5781 41.6574 31.5781H40.8426Z" fill="white"/>
<path d="M135.764 29.7817V30.6326H142.287H148.811V29.7817V28.9308H142.287H135.764V29.7817Z" fill="white"/>
</svg>
