<svg width="28" height="29" viewBox="0 0 28 29" fill="none" xmlns="http://www.w3.org/2000/svg">
  <circle cx="14" cy="14.1758" r="14" fill="#ffffff"/> <!-- Background circle with white color -->
  <path d="M9.03046 9.81272C9.14761 9.79911 9.26626 9.81777 9.37357 9.8667C9.48088 9.91562 9.57278 9.99294 9.63933 10.0903C10.5944 11.4873 11.7409 12.0683 13.0137 12.2003C13.0758 11.6561 13.2226 11.1185 13.4989 10.6448C13.904 9.9499 14.5627 9.43873 15.5035 9.2498C16.804 8.98839 17.794 9.45944 18.3679 10.036L19.5274 9.81919C19.6488 9.79646 19.7741 9.80891 19.8885 9.85507C20.003 9.90123 20.1019 9.97919 20.1736 10.0797C20.2452 10.1803 20.2866 10.2992 20.2928 10.4225C20.299 10.5458 20.2699 10.6683 20.2088 10.7755L19.0958 12.7309C19.1974 15.5526 18.4132 17.5222 16.7413 18.8791C15.8548 19.5986 14.5853 20.0069 13.1922 20.133C11.7882 20.2599 10.201 20.1065 8.62348 19.6458C8.48869 19.6065 8.37035 19.5244 8.28632 19.4119C8.20228 19.2995 8.15711 19.1627 8.15763 19.0223C8.15814 18.8819 8.2043 18.7455 8.28915 18.6336C8.374 18.5218 8.49294 18.4405 8.628 18.4022C9.42128 18.1764 10.0256 17.9816 10.5711 17.6406C9.79527 17.2291 9.22393 16.6908 8.81953 16.0774C8.2579 15.2246 8.04955 14.2734 8.00814 13.4161C7.96673 12.5588 8.09031 11.7642 8.22102 11.1916C8.29543 10.8648 8.38213 10.5374 8.50183 10.2242C8.54406 10.1139 8.61571 10.0171 8.70902 9.94459C8.80232 9.87204 8.91307 9.82644 9.03046 9.81272Z" fill="#03A1FD"/> <!-- Icon with #03A1FD color -->
</svg>
