<svg width="13" height="12" viewBox="0 0 13 12" fill="none" xmlns="http://www.w3.org/2000/svg">
<path d="M1.03046 0.812724C1.14761 0.79911 1.26626 0.817772 1.37357 0.866695C1.48088 0.915618 1.57278 0.992941 1.63933 1.09031C2.59436 2.48727 3.74092 3.06831 5.01365 3.20031C5.07577 2.65615 5.22265 2.11845 5.49893 1.64482C5.90398 0.949897 6.56267 0.438734 7.50347 0.249798C8.80402 -0.0116069 9.79399 0.459439 10.3679 1.03595L11.5274 0.819195C11.6488 0.79646 11.7741 0.808909 11.8885 0.855072C12.003 0.901235 12.1019 0.979185 12.1736 1.07972C12.2452 1.18026 12.2866 1.29919 12.2928 1.42248C12.299 1.54577 12.2699 1.66827 12.2088 1.77552L11.0958 3.73088C11.1974 6.55263 10.4132 8.52222 8.74126 9.87907C7.85481 10.5986 6.58532 11.0069 5.19224 11.133C3.78816 11.2599 2.20096 11.1065 0.623475 10.6458C0.488692 10.6065 0.370353 10.5244 0.286319 10.4119C0.202284 10.2995 0.157114 10.1627 0.157626 10.0223C0.158137 9.8819 0.204302 9.74548 0.289153 9.63362C0.374005 9.52176 0.492938 9.44053 0.628005 9.4022C1.42128 9.17638 2.02561 8.98162 2.57107 8.64063C1.79527 8.22912 1.22393 7.69078 0.819529 7.07738C0.257897 6.22458 0.0495496 5.27343 0.00813898 4.4161C-0.0332717 3.55877 0.0903132 2.7642 0.221016 2.19157C0.295425 1.86481 0.382129 1.53741 0.501832 1.22424C0.544055 1.11385 0.615709 1.01713 0.709016 0.944586C0.802323 0.872039 0.913071 0.826436 1.03046 0.812724Z" fill="white"/>
</svg>
