<svg width="28" height="28" viewBox="0 0 28 28" fill="none" xmlns="http://www.w3.org/2000/svg">
<circle cx="14" cy="14" r="14" fill="#fff"/>
<path fill-rule="evenodd" clip-rule="evenodd" d="M19.0177 9.22095C17.8182 7.95093 16.2245 7.25 14.527 7.25C11.0282 7.25 8.17896 10.2646 8.17896 13.9692C8.17688 15.1536 8.46948 16.3093 9.02564 17.3289L8.125 20.8115L11.491 19.8755C12.4165 20.4116 13.4624 20.6929 14.5249 20.6951H14.527C18.0258 20.6951 20.8729 17.6804 20.875 13.9736C20.875 12.1785 20.2151 10.491 19.0177 9.22095ZM14.527 19.5591H14.5249C13.5786 19.5591 12.6489 19.2888 11.8396 18.7812L11.6466 18.6604L9.64819 19.2141L10.1815 17.1531L10.057 16.9421C9.52783 16.0522 9.24976 15.0239 9.24976 13.9692C9.24976 10.8909 11.6176 8.38599 14.5291 8.38599C15.9381 8.38599 17.2621 8.96826 18.2582 10.0229C19.2543 11.0798 19.8021 12.4817 19.8021 13.9736C19.8021 17.0542 17.4343 19.5591 14.527 19.5591ZM17.4198 15.3755C17.2621 15.292 16.4818 14.8855 16.3365 14.8306C16.1913 14.7734 16.0854 14.7471 15.9796 14.9141C15.8738 15.0833 15.5708 15.4612 15.4774 15.5732C15.3861 15.6831 15.2927 15.6985 15.135 15.615C14.9752 15.5315 14.4647 15.3535 13.8588 14.78C13.3877 14.3362 13.0681 13.7847 12.9768 13.6177C12.8834 13.4485 12.9664 13.3584 13.0453 13.2749C13.1179 13.2002 13.2051 13.0793 13.2839 12.9805C13.3628 12.8838 13.3898 12.8135 13.4437 12.7014C13.4956 12.5894 13.4686 12.4905 13.4292 12.407C13.3898 12.3235 13.0723 11.4951 12.9395 11.1589C12.8108 10.8315 12.6801 10.8777 12.5825 10.8711C12.4912 10.8667 12.3854 10.8667 12.2795 10.8667C12.1737 10.8667 12.0015 10.9084 11.8562 11.0776C11.7109 11.2446 11.3021 11.6511 11.3021 12.4773C11.3021 13.3035 11.8707 14.1033 11.9496 14.2153C12.0284 14.3252 13.0681 16.0215 14.6598 16.7488C15.0375 16.9224 15.3322 17.0256 15.5625 17.1025C15.9423 17.23 16.2888 17.2124 16.5627 17.1707C16.8678 17.1223 17.5007 16.7642 17.6335 16.3708C17.7643 15.9797 17.7643 15.6436 17.7249 15.5732C17.6854 15.5029 17.5796 15.4612 17.4198 15.3755Z" fill="#03a1fd"/>
</svg>
