<svg width="14" height="12" viewBox="0 0 14 12" fill="none" xmlns="http://www.w3.org/2000/svg">
<path fill-rule="evenodd" clip-rule="evenodd" d="M6.875 0.175781C7.46281 0.175781 8.06575 0.190906 8.65012 0.215656L9.34037 0.248656L10.0011 0.287844L10.6198 0.329781L11.1849 0.373781C11.7983 0.420457 12.3756 0.68208 12.815 1.11257C13.2544 1.54306 13.5278 2.1148 13.5871 2.72709L13.6146 3.01928L13.6661 3.64491C13.7143 4.29322 13.75 4.99997 13.75 5.67578C13.75 6.35159 13.7143 7.05834 13.6661 7.70666L13.6146 8.33228L13.5871 8.62447C13.5278 9.23687 13.2543 9.8087 12.8147 10.2392C12.3751 10.6697 11.7978 10.9313 11.1842 10.9778L10.6205 11.0211L10.0017 11.0637L9.34037 11.1029L8.65012 11.1359C8.05876 11.1615 7.46692 11.1748 6.875 11.1758C6.28308 11.1748 5.69124 11.1615 5.09987 11.1359L4.40962 11.1029L3.74894 11.0637L3.13019 11.0211L2.56506 10.9778C1.95168 10.9311 1.37445 10.6695 0.93503 10.239C0.495611 9.8085 0.222194 9.23676 0.162937 8.62447L0.135438 8.33228L0.083875 7.70666C0.03151 7.03093 0.0035335 6.35353 0 5.67578C0 4.99997 0.03575 4.29322 0.083875 3.64491L0.135438 3.01928L0.162937 2.72709C0.222171 2.11491 0.495489 1.54325 0.934768 1.11278C1.37405 0.682303 1.95112 0.420611 2.56437 0.373781L3.12881 0.329781L3.74756 0.287844L4.40894 0.248656L5.09919 0.215656C5.69078 0.190031 6.28285 0.176737 6.875 0.175781ZM5.5 4.00859V7.34297C5.5 7.66059 5.84375 7.85859 6.11875 7.70047L9.00625 6.03328C9.06908 5.99711 9.12127 5.94502 9.15756 5.88226C9.19385 5.8195 9.21296 5.74828 9.21296 5.67578C9.21296 5.60328 9.19385 5.53206 9.15756 5.4693C9.12127 5.40654 9.06908 5.35445 9.00625 5.31828L6.11875 3.65178C6.05602 3.61557 5.98487 3.59651 5.91243 3.59652C5.84 3.59653 5.76885 3.61561 5.70614 3.65185C5.64342 3.68808 5.59135 3.74019 5.55517 3.80294C5.51898 3.86568 5.49995 3.93685 5.5 4.00928V4.00859Z" fill="white"/>
</svg>
