<svg width="21" height="20" viewBox="0 0 21 20" fill="none" xmlns="http://www.w3.org/2000/svg">
<g clip-path="url(#clip0_3096_2050)">
<path d="M18.2479 9.02979L10.8362 16.4414C9.92824 17.3494 8.69675 17.8595 7.41267 17.8595C6.12859 17.8595 4.89711 17.3494 3.98913 16.4414C3.08114 15.5334 2.57104 14.302 2.57104 13.0179C2.57104 11.7338 3.08114 10.5023 3.98913 9.59433L11.4008 2.18269C12.0061 1.57737 12.8271 1.2373 13.6831 1.2373C14.5392 1.2373 15.3602 1.57737 15.9655 2.18269C16.5708 2.78801 16.9109 3.609 16.9109 4.46506C16.9109 5.32111 16.5708 6.1421 15.9655 6.74742L8.54579 14.1591C8.24313 14.4617 7.83264 14.6318 7.40461 14.6318C6.97658 14.6318 6.56609 14.4617 6.26343 14.1591C5.96077 13.8564 5.79073 13.4459 5.79073 13.0179C5.79073 12.5899 5.96077 12.1794 6.26343 11.8767L13.1105 5.03766" stroke="#5E5E5E" stroke-width="1.74202" stroke-linecap="round" stroke-linejoin="round"/>
</g>
<defs>
<clipPath id="clip0_3096_2050">
<rect width="19.3558" height="19.3558" fill="white" transform="translate(0.957764 0.118164)"/>
</clipPath>
</defs>
</svg>
