<svg width="12" height="16" viewBox="0 0 12 16" fill="none" xmlns="http://www.w3.org/2000/svg">
<path d="M8.69954 7.42927C9.49442 7.57121 10.1686 7.98994 10.7222 8.68546C11.2758 9.38097 11.5526 10.1688 11.5526 11.0488C11.5526 11.8011 11.3539 12.4824 10.9564 13.0928C10.5732 13.6889 10.0125 14.1644 9.27441 14.5193C8.53631 14.8599 7.67756 15.0303 6.69815 15.0303H0.779166V0.2328H6.42137C7.42916 0.2328 8.295 0.403131 9.01891 0.743793C9.74281 1.08445 10.2893 1.54577 10.6583 2.12773C11.0274 2.6955 11.2119 3.33424 11.2119 4.04395C11.2119 4.8956 10.9848 5.60531 10.5306 6.17308C10.0764 6.74085 9.46603 7.15958 8.69954 7.42927ZM3.20638 6.44987H6.20845C7.00333 6.44987 7.62078 6.27244 8.0608 5.91758C8.51502 5.54854 8.74212 5.02335 8.74212 4.34203C8.74212 3.6749 8.51502 3.15681 8.0608 2.78776C7.62078 2.40452 7.00333 2.21289 6.20845 2.21289H3.20638V6.44987ZM6.48524 13.0502C7.30851 13.0502 7.95434 12.8515 8.42275 12.454C8.89116 12.0566 9.12537 11.503 9.12537 10.7933C9.12537 10.0694 8.87697 9.49453 8.38017 9.0687C7.88337 8.64288 7.22334 8.42996 6.40008 8.42996H3.20638V13.0502H6.48524Z" fill="#5E5E5E"/>
</svg>
