<svg width="14" height="16" viewBox="0 0 14 16" fill="none" xmlns="http://www.w3.org/2000/svg">
<path d="M7.4408 15.374C5.74265 15.374 4.35162 14.9856 3.2677 14.2088C2.20184 13.4139 1.60568 12.339 1.47923 10.9841H3.43029C3.52061 11.8151 3.90902 12.4926 4.5955 13.0165C5.30005 13.5223 6.23945 13.7752 7.4137 13.7752C8.44342 13.7752 9.24733 13.5313 9.82543 13.0436C10.4216 12.5558 10.7197 11.9506 10.7197 11.228C10.7197 10.7222 10.5571 10.3067 10.2319 9.9815C9.90672 9.65632 9.49122 9.40341 8.98539 9.22275C8.49762 9.02403 7.8292 8.81628 6.98013 8.5995C5.87814 8.31045 4.98391 8.02141 4.29742 7.73236C3.61094 7.44331 3.02381 7.01878 2.53605 6.45875C2.06635 5.88066 1.8315 5.11288 1.8315 4.15542C1.8315 3.4328 2.04828 2.76438 2.48185 2.15016C2.91542 1.53594 3.52964 1.04817 4.32452 0.686866C5.1194 0.325559 6.02267 0.144906 7.03433 0.144906C8.62408 0.144906 9.90672 0.551377 10.8822 1.36432C11.8578 2.15919 12.3817 3.26118 12.4539 4.67028H10.5571C10.5029 3.80314 10.1596 3.10763 9.52735 2.58373C8.91312 2.04177 8.06405 1.77079 6.98013 1.77079C6.02267 1.77079 5.24585 1.99661 4.6497 2.44824C4.05354 2.89987 3.75546 3.4599 3.75546 4.12832C3.75546 4.70641 3.92708 5.18514 4.27032 5.56452C4.63163 5.92582 5.07423 6.21487 5.59813 6.43165C6.12202 6.63037 6.82657 6.85619 7.71178 7.1091C8.77763 7.39815 9.62671 7.67816 10.259 7.94914C10.8913 8.22013 11.4332 8.61756 11.8849 9.14146C12.3365 9.66535 12.5714 10.3609 12.5894 11.228C12.5894 12.0229 12.3726 12.7365 11.9391 13.3688C11.5055 13.983 10.9003 14.4707 10.1235 14.832C9.34669 15.1934 8.45246 15.374 7.4408 15.374Z" fill="#5E5E5E"/>
<path d="M0.178519 6.29616H13.9985V7.65107H0.178519V6.29616Z" fill="#5E5E5E"/>
</svg>
