<svg width="16" height="15" viewBox="0 0 16 15" fill="none" xmlns="http://www.w3.org/2000/svg">
<path fill-rule="evenodd" clip-rule="evenodd" d="M2.03706 7.5078C2.03706 4.2472 4.6803 1.60396 7.94091 1.60396C11.2015 1.60396 13.8447 4.2472 13.8447 7.5078C13.8447 10.7684 11.2015 13.4116 7.94091 13.4116C4.6803 13.4116 2.03706 10.7684 2.03706 7.5078ZM7.94091 0.291992C3.95572 0.291992 0.725098 3.52262 0.725098 7.5078C0.725098 11.493 3.95572 14.7236 7.94091 14.7236C11.9261 14.7236 15.1567 11.493 15.1567 7.5078C15.1567 3.52262 11.9261 0.291992 7.94091 0.291992ZM4.92339 8.29514C5.2123 8.07845 5.6218 8.13614 5.8397 8.42361L5.84275 8.42749C5.84665 8.43242 5.85407 8.44166 5.86492 8.45459C5.88667 8.4805 5.92192 8.52091 5.96996 8.57104C6.06658 8.67187 6.21178 8.80866 6.39979 8.94539C6.77833 9.2207 7.30167 9.47591 7.94091 9.47591C8.58014 9.47591 9.10348 9.2207 9.48203 8.94539C9.67003 8.80866 9.81523 8.67187 9.91185 8.57104C9.9599 8.52091 9.99514 8.4805 10.0169 8.45459C10.0277 8.44166 10.0352 8.43242 10.0391 8.42749L10.0421 8.4236C10.26 8.13614 10.6695 8.07845 10.9584 8.29514C11.2483 8.51252 11.307 8.92369 11.0896 9.21352L10.5648 8.81993C11.0896 9.21352 11.0895 9.21373 11.0893 9.21394L11.089 9.2144L11.0882 9.2154L11.0864 9.21778L11.0817 9.22395L11.0677 9.24183C11.0564 9.25612 11.0411 9.27507 11.0218 9.29801C10.9833 9.34385 10.9289 9.40593 10.8591 9.4788C10.72 9.62397 10.5167 9.81517 10.2537 10.0064C9.73025 10.3871 8.94163 10.7879 7.94091 10.7879C6.94018 10.7879 6.15156 10.3871 5.62813 10.0064C5.36515 9.81517 5.16185 9.62397 5.02273 9.4788C4.95291 9.40593 4.89846 9.34385 4.85999 9.29801C4.84074 9.27507 4.82542 9.25612 4.81411 9.24183L4.80013 9.22395L4.79541 9.21778L4.79361 9.2154L4.79285 9.2144L4.79251 9.21394C4.79235 9.21373 4.79219 9.21352 5.31698 8.81993L4.79219 9.21352C4.57482 8.92369 4.63355 8.51252 4.92339 8.29514ZM5.31708 5.53966C5.31708 5.17737 5.61077 4.88367 5.97306 4.88367H5.97962C6.34191 4.88367 6.6356 5.17737 6.6356 5.53966C6.6356 5.90194 6.34191 6.19564 5.97962 6.19564H5.97306C5.61077 6.19564 5.31708 5.90194 5.31708 5.53966ZM9.90903 4.88367C9.54674 4.88367 9.25305 5.17737 9.25305 5.53966C9.25305 5.90194 9.54674 6.19564 9.90903 6.19564H9.91559C10.2779 6.19564 10.5716 5.90194 10.5716 5.53966C10.5716 5.17737 10.2779 4.88367 9.91559 4.88367H9.90903Z" fill="#535353"/>
</svg>
