<svg width="111" height="111" viewBox="0 0 111 111" fill="none" xmlns="http://www.w3.org/2000/svg">
<circle cx="55.5" cy="55.5" r="55.5" fill="#157EFB"/>
<path d="M79 46.75L55 60.1875L31 46.75V41.375L55 54.8125L79 41.375M79 36H31C27.67 36 25 38.3919 25 41.375V73.625C25 75.0505 25.6321 76.4177 26.7574 77.4257C27.8826 78.4337 29.4087 79 31 79H79C80.5913 79 82.1174 78.4337 83.2426 77.4257C84.3679 76.4177 85 75.0505 85 73.625V41.375C85 39.9495 84.3679 38.5823 83.2426 37.5743C82.1174 36.5663 80.5913 36 79 36Z" fill="white"/>
</svg>
