<svg width="10" height="12" viewBox="0 0 10 12" fill="none" xmlns="http://www.w3.org/2000/svg">
<path d="M7.93367 1.88C7.49782 1.35968 7.25759 0.691599 7.25765 0H5.28699V8.26667C5.27211 8.71413 5.09153 9.13805 4.78336 9.449C4.47519 9.75995 4.06352 9.9336 3.6352 9.93333C2.72959 9.93333 1.97704 9.16 1.97704 8.2C1.97704 7.05333 3.03571 6.19333 4.12628 6.54667V4.44C1.92602 4.13333 0 5.92 0 8.2C0 10.42 1.7602 12 3.62883 12C5.63138 12 7.25765 10.3 7.25765 8.2V4.00667C8.05676 4.60657 9.01618 4.92843 10 4.92667V2.86667C10 2.86667 8.80102 2.92667 7.93367 1.88Z" fill="white"/>
</svg>
