<svg width="20" height="20" viewBox="0 0 20 20" fill="none" xmlns="http://www.w3.org/2000/svg">
<g clip-path="url(#clip0_3096_2044)">
<path d="M8.67188 10.602C9.01822 11.065 9.4601 11.4481 9.96754 11.7254C10.475 12.0026 11.0361 12.1675 11.6129 12.2088C12.1896 12.2501 12.7685 12.1669 13.3103 11.9648C13.852 11.7627 14.344 11.4464 14.7528 11.0375L17.1723 8.61802C17.9068 7.85749 18.3133 6.83888 18.3041 5.78159C18.2949 4.72429 17.8708 3.71291 17.1232 2.96526C16.3755 2.21761 15.3641 1.79352 14.3068 1.78433C13.2495 1.77514 12.2309 2.18159 11.4704 2.91614L10.0832 4.29523" stroke="#5E5E5E" stroke-width="1.74202" stroke-linecap="round" stroke-linejoin="round"/>
<path d="M11.899 8.99112C11.5526 8.52809 11.1107 8.14497 10.6033 7.86773C10.0959 7.59049 9.53473 7.42563 8.95797 7.38433C8.38122 7.34302 7.80232 7.42624 7.26056 7.62833C6.71879 7.83043 6.22682 8.14667 5.81803 8.55562L3.39856 10.9751C2.66401 11.7356 2.25757 12.7542 2.26675 13.8115C2.27594 14.8688 2.70003 15.8802 3.44768 16.6278C4.19533 17.3755 5.20672 17.7996 6.26401 17.8088C7.32131 17.818 8.33991 17.4115 9.10044 16.677L10.4795 15.2979" stroke="#5E5E5E" stroke-width="1.74202" stroke-linecap="round" stroke-linejoin="round"/>
</g>
<defs>
<clipPath id="clip0_3096_2044">
<rect width="19.3558" height="19.3558" fill="white" transform="translate(0.607422 0.118164)"/>
</clipPath>
</defs>
</svg>
