<svg width="20" height="21" viewBox="0 0 20 21" fill="none" xmlns="http://www.w3.org/2000/svg">
<path fill-rule="evenodd" clip-rule="evenodd" d="M4.15893 3.44862C4.47468 3.39234 4.80016 3.43852 5.0878 3.58041L5.09413 3.58354L16.5276 9.3917C16.7007 9.47974 16.8463 9.61409 16.9478 9.77964C17.0482 9.94338 17.1019 10.1315 17.1031 10.3235C17.1031 10.3255 17.1031 10.3275 17.1031 10.3295L17.1031 10.3316C17.1027 10.5252 17.049 10.7149 16.9478 10.8799C16.8463 11.0455 16.7009 11.1797 16.5278 11.2677L5.08782 17.087C4.80018 17.2289 4.47468 17.2751 4.15893 17.2188C3.84318 17.1625 3.5537 17.0067 3.3328 16.7742C3.11191 16.5416 2.97118 16.2445 2.93117 15.9263C2.89117 15.6081 2.954 15.2854 3.11046 15.0054C3.11434 14.9985 3.11835 14.9916 3.12249 14.9849L5.97166 10.3298L3.12273 5.68291C3.1185 5.67602 3.11441 5.66904 3.11046 5.66197C2.954 5.382 2.89117 5.05932 2.93117 4.74109C2.97118 4.42287 3.11191 4.12577 3.3328 3.89324C3.5537 3.6607 3.84317 3.5049 4.15893 3.44862ZM15.0805 9.72816L4.55342 4.65782C4.49646 4.63033 4.43227 4.62149 4.36997 4.63259C4.30682 4.64385 4.24892 4.67501 4.20474 4.72152C4.16056 4.76802 4.13242 4.82744 4.12442 4.89109C4.11679 4.95179 4.12786 5.0133 4.15605 5.06744L7.15389 9.72816H15.0805ZM7.12408 10.9308H15.0809L4.5533 16.0096C4.49638 16.0371 4.43223 16.0459 4.36997 16.0348C4.30681 16.0235 4.24892 15.9924 4.20474 15.9459C4.16056 15.8994 4.13242 15.8399 4.12442 15.7763C4.11678 15.7155 4.12788 15.654 4.15613 15.5998L7.12408 10.9308Z" fill="#535353"/>
</svg>
