<svg width="22" height="19" viewBox="0 0 22 19" fill="none" xmlns="http://www.w3.org/2000/svg">
<g clip-path="url(#clip0_2384_33)">
<path fill-rule="evenodd" clip-rule="evenodd" d="M7.33867 8.34959L6.21167 6.09632C5.03203 3.7378 4.44184 2.55816 4.98392 2.01608C5.52524 1.47476 6.70563 2.0642 9.06416 3.24383L17.5983 7.51052C19.2584 8.34055 20.0884 8.75556 20.0884 9.41267C20.0884 10.0698 19.2584 10.4848 17.5998 11.3148L9.06414 15.5815C6.70562 16.7612 5.52597 17.3514 4.9839 16.8093C4.44257 16.268 5.03202 15.0876 6.21166 12.7291L7.33717 10.4758L13.8842 10.4758C14.163 10.4709 14.4287 10.3568 14.6241 10.158C14.8195 9.95912 14.929 9.69147 14.929 9.41268C14.929 9.13388 14.8195 8.86624 14.6241 8.6674C14.4287 8.46856 14.163 8.35442 13.8842 8.34958L7.33867 8.34959Z" fill="white"/>
</g>
<defs>
<clipPath id="clip0_2384_33">
<rect width="22" height="19" fill="white"/>
</clipPath>
</defs>
</svg>
