<svg width="28" height="28" viewBox="0 0 28 28" fill="none" xmlns="http://www.w3.org/2000/svg">
<rect width="28" height="28" rx="14" fill="#020202"/>
<path d="M10.1 18.2C8.81975 18.4882 8 18.931 8 19.4276C8 20.296 10.5072 21 13.6 21C16.6928 21 19.2 20.296 19.2 19.4276C19.2 18.931 18.3802 18.4882 17.1 18.2" stroke="white" stroke-linecap="round"/>
<path d="M15.3496 11.9C15.3496 12.8665 14.5661 13.65 13.5996 13.65C12.6331 13.65 11.8496 12.8665 11.8496 11.9C11.8496 10.9335 12.6331 10.15 13.5996 10.15C14.5661 10.15 15.3496 10.9335 15.3496 11.9Z" stroke="white"/>
<path d="M14.4794 17.8455C14.2433 18.0729 13.9277 18.2 13.5994 18.2C13.2709 18.2 12.9554 18.0729 12.7192 17.8455C10.5572 15.7506 7.65985 13.4102 9.07282 10.0126C9.83679 8.17552 11.6707 7 13.5994 7C15.528 7 17.3619 8.17553 18.1258 10.0126C19.537 13.406 16.6467 15.7578 14.4794 17.8455Z" stroke="white"/>
</svg>
