<svg width="28" height="28" viewBox="0 0 28 28" fill="none" xmlns="http://www.w3.org/2000/svg">
<rect width="28" height="28" rx="14" fill="#020202"/>
<path d="M7 20.4352C7.47967 21.171 8.09972 21.171 8.59109 20.4352C10.1709 18.0185 11.6757 22.1735 12.7911 20.4624C14.4921 17.8986 15.7155 22.3452 16.9911 20.4352C18.6544 17.8907 19.6906 22.1043 20.9999 20.7089" stroke="white" stroke-linecap="round"/>
<path d="M8.10059 17.5L7.05237 14.452C6.86261 13.9002 7.21198 13.3 7.72291 13.3H20.2007C22.3665 13.3 19.596 17.5 18.1976 17.5" stroke="white" stroke-linecap="round" stroke-linejoin="round"/>
<path d="M18.2007 13.3L16.2415 10.8509C15.7101 10.1867 14.9056 9.80005 14.055 9.80005H11.2008C10.4276 9.80005 9.80078 10.4268 9.80078 11.2V13.3" stroke="white" stroke-linecap="round" stroke-linejoin="round"/>
<path d="M12.5992 9.8V7.7C12.5992 7.3134 12.2858 7 11.8992 7H11.1992" stroke="white" stroke-linecap="round" stroke-linejoin="round"/>
</svg>
