<svg width="28" height="28" viewBox="0 0 28 28" fill="none" xmlns="http://www.w3.org/2000/svg">
<rect width="28" height="28" rx="14" fill="#020202"/>
<path d="M11.7898 9.10951L11.4766 8.40486C11.2718 7.94413 11.1694 7.71375 11.0163 7.53745C10.8244 7.31651 10.5743 7.15395 10.2944 7.06833C10.0711 7 9.81903 7 9.31483 7C8.57726 7 8.20848 7 7.8989 7.14178C7.53423 7.30879 7.2049 7.67144 7.07368 8.05047C6.96228 8.37222 6.9942 8.70289 7.058 9.36421C7.73726 16.4035 11.5965 20.2627 18.6358 20.942C19.2971 21.0058 19.6278 21.0377 19.9495 20.9263C20.3286 20.7951 20.6912 20.4657 20.8583 20.1011C21 19.7915 21 19.4227 21 18.6852C21 18.1809 21 17.9289 20.9317 17.7056C20.8461 17.4257 20.6835 17.1756 20.4626 16.9837C20.2863 16.8306 20.0559 16.7282 19.5952 16.5234L18.8905 16.2102C18.3916 15.9885 18.142 15.8776 17.8886 15.8535C17.6459 15.8304 17.4013 15.8645 17.1742 15.9529C16.9369 16.0453 16.7272 16.2201 16.3077 16.5696C15.8901 16.9176 15.6814 17.0916 15.4263 17.1848C15.2001 17.2674 14.9011 17.298 14.663 17.2628C14.3942 17.2233 14.1885 17.1134 13.777 16.8934C12.4968 16.2093 11.7908 15.5033 11.1066 14.223C10.8867 13.8115 10.7767 13.6057 10.7371 13.3371C10.702 13.0989 10.7326 12.7999 10.8152 12.5738C10.9084 12.3187 11.0824 12.1099 11.4304 11.6923C11.7799 11.2729 11.9547 11.0631 12.0471 10.8258C12.1356 10.5987 12.1696 10.3541 12.1465 10.1115C12.1224 9.85796 12.0115 9.60848 11.7898 9.10951Z" stroke="white" stroke-linecap="round"/>
</svg>
