<svg width="27" height="27" viewBox="0 0 27 27" fill="none" xmlns="http://www.w3.org/2000/svg">
<circle cx="13.5" cy="13.5" r="13.5" fill="white"/>
<path d="M5 13.4118C5 12.5021 5.73719 11.7647 6.64656 11.7647C8.01061 11.7647 9.1164 12.8708 9.1164 14.2353V17.5294C9.1164 18.8939 8.01061 20 6.64656 20C5.73719 20 5 19.2626 5 18.3529V13.4118Z" stroke="url(#paint0_linear_1659_3894)" stroke-width="1.5" stroke-linecap="round" stroke-linejoin="round"/>
<path d="M16.1053 9.54632L15.8861 10.2546C15.7065 10.835 15.6166 11.1252 15.6857 11.3544C15.7416 11.5398 15.8643 11.6996 16.0315 11.8048C16.2381 11.9348 16.5507 11.9348 17.1759 11.9348H17.5085C19.6245 11.9348 20.6824 11.9348 21.1821 12.5613C21.2392 12.6329 21.29 12.709 21.3339 12.7889C21.7183 13.4876 21.2813 14.4289 20.4072 16.3115C19.6051 18.0391 19.204 18.9029 18.4594 19.4113C18.3873 19.4605 18.3132 19.5069 18.2373 19.5504C17.4533 20 16.482 20 14.5392 20H14.1179C11.7642 20 10.5874 20 9.85619 19.2913C9.125 18.5826 9.125 17.442 9.125 15.1608V14.3591C9.125 13.1602 9.125 12.5609 9.33769 12.0122C9.55037 11.4636 9.95762 11.0125 10.7721 10.1103L14.1405 6.37928C14.225 6.28572 14.2672 6.23892 14.3045 6.2065C14.6521 5.90388 15.1886 5.93794 15.4926 6.28194C15.5252 6.31879 15.5607 6.37051 15.6319 6.47397C15.7432 6.63581 15.7988 6.71672 15.8474 6.79689C16.2816 7.51457 16.413 8.36712 16.2141 9.17647C16.1919 9.26687 16.1631 9.36008 16.1053 9.54632Z" stroke="url(#paint1_linear_1659_3894)" stroke-width="1.5" stroke-linecap="round" stroke-linejoin="round"/>
<defs>
<linearGradient id="paint0_linear_1659_3894" x1="7.0582" y1="11.7647" x2="7.0582" y2="20" gradientUnits="userSpaceOnUse">
<stop stop-color="#0771EF"/>
<stop offset="1" stop-color="#15AAFC"/>
</linearGradient>
<linearGradient id="paint1_linear_1659_3894" x1="15.2996" y1="6" x2="15.2996" y2="20" gradientUnits="userSpaceOnUse">
<stop stop-color="#0771EF"/>
<stop offset="1" stop-color="#15AAFC"/>
</linearGradient>
</defs>
</svg>
