<svg width="23" height="23" viewBox="0 0 23 23" fill="none" xmlns="http://www.w3.org/2000/svg">
<circle cx="11.353" cy="11.4396" r="10.689" fill="white"/>
<path d="M4.62109 11.3698C4.62109 10.6495 5.20478 10.0657 5.9248 10.0657C7.00482 10.0657 7.88036 10.9414 7.88036 12.0218V14.63C7.88036 15.7104 7.00482 16.5862 5.9248 16.5862C5.20478 16.5862 4.62109 16.0023 4.62109 15.2821V11.3698Z" stroke="black" stroke-width="1.18766" stroke-linecap="round" stroke-linejoin="round"/>
<path d="M13.4136 8.30924L13.24 8.87005C13.0978 9.32959 13.0266 9.55936 13.0813 9.74083C13.1256 9.88761 13.2227 10.0142 13.3551 10.0974C13.5187 10.2003 13.7662 10.2003 14.2613 10.2003H14.5246C16.1999 10.2003 17.0376 10.2003 17.4332 10.6964C17.4784 10.7531 17.5186 10.8134 17.5534 10.8766C17.8578 11.4298 17.5118 12.1751 16.8197 13.6657C16.1846 15.0336 15.867 15.7175 15.2774 16.1201C15.2204 16.159 15.1617 16.1958 15.1016 16.2302C14.4809 16.5862 13.7118 16.5862 12.1736 16.5862H11.8399C9.97637 16.5862 9.04459 16.5862 8.46566 16.0251C7.88672 15.4639 7.88672 14.5608 7.88672 12.7547V12.1198C7.88672 11.1706 7.88672 10.6961 8.05512 10.2617C8.22352 9.8273 8.54597 9.47013 9.19088 8.7558L11.8579 5.80165C11.9248 5.72757 11.9582 5.69052 11.9877 5.66484C12.2629 5.42524 12.6877 5.4522 12.9284 5.72457C12.9542 5.75375 12.9824 5.79471 13.0387 5.87662C13.1268 6.00476 13.1709 6.06883 13.2094 6.1323C13.5531 6.70055 13.6572 7.37557 13.4997 8.01639C13.4821 8.08797 13.4593 8.16177 13.4136 8.30924Z" stroke="black" stroke-width="1.18766" stroke-linecap="round" stroke-linejoin="round"/>
</svg>
