<svg width="14" height="14" viewBox="0 0 14 14" fill="none" xmlns="http://www.w3.org/2000/svg">
<path fill-rule="evenodd" clip-rule="evenodd" d="M6.99991 0.000700024C3.13386 0.000700024 1.159e-06 3.13456 1.159e-06 7.00061C-0.000592293 8.03196 0.226724 9.0507 0.665693 9.98397L0.0147009 13.1598C-0.00847647 13.2732 -0.00317534 13.3906 0.0301298 13.5014C0.0634349 13.6123 0.123705 13.7131 0.205544 13.795C0.287384 13.8768 0.388239 13.9371 0.499082 13.9704C0.609925 14.0037 0.727296 14.009 0.84069 13.9858L4.01655 13.3348C4.92234 13.7618 5.93453 13.9998 6.99991 13.9998C10.866 13.9998 13.9998 10.8667 13.9998 6.99991C13.9998 3.13456 10.866 0 6.99991 0" fill="url(#paint0_linear_1664_455)"/>
<defs>
<linearGradient id="paint0_linear_1664_455" x1="6.99991" y1="0" x2="6.99991" y2="14" gradientUnits="userSpaceOnUse">
<stop stop-color="#0771EF"/>
<stop offset="1" stop-color="#15AAFC"/>
</linearGradient>
</defs>
</svg>
