<svg width="23" height="23" viewBox="0 0 23 23" fill="none" xmlns="http://www.w3.org/2000/svg">
<circle cx="11.3335" cy="11.4396" r="10.689" fill="white"/>
<path d="M17.2723 11.5953C17.2723 14.5235 14.7905 16.8976 11.7299 16.8976C11.37 16.8981 11.0111 16.8648 10.6577 16.7984C10.4032 16.7506 10.276 16.7267 10.1872 16.7403C10.0984 16.7539 9.97249 16.8208 9.72076 16.9547C9.00865 17.3334 8.1783 17.4671 7.37973 17.3186C7.68324 16.9452 7.89054 16.4973 7.982 16.0171C8.03743 15.7234 7.9001 15.438 7.69441 15.2291C6.76021 14.2805 6.1875 13.0022 6.1875 11.5953C6.1875 8.66717 8.66926 6.29303 11.7299 6.29303C14.7905 6.29303 17.2723 8.66717 17.2723 11.5953Z" stroke="black" stroke-width="1.18766" stroke-linejoin="round"/>
<path d="M11.7223 11.8355H11.7273M13.9367 11.8355H13.9417M9.50781 11.8355H9.51278" stroke="black" stroke-width="1.58355" stroke-linecap="round" stroke-linejoin="round"/>
</svg>
